<svg xmlns="http://www.w3.org/2000/svg" id="Group_87" width="132.195" height="132.166" viewBox="0 0 132.195 132.166">
    <defs>
        <style>
            .cls-1{fill:#f3eee0}
        </style>
    </defs>
    <g id="Group_86">
        <g id="Group_85">
            <path id="Path_290" d="M340.9 2176.424l3.035.6c2 .4 2.93 1.349 2.648 2.771a2.219 2.219 0 0 1-2.548 1.739l-.008.041c1.9.547 2.536 1.612 2.249 3.061-.3 1.518-1.681 2.168-3.582 1.791l-3.637-.722zm1.394 9.728a2.14 2.14 0 0 0 2.83-1.8 2.2 2.2 0 0 0-1.915-2.811l-2.064-.41-.915 4.608zm.68-4.853a2.031 2.031 0 0 0 2.556-1.638 1.881 1.881 0 0 0-1.742-2.464l-1.791-.356-.815 4.1z" class="cls-1" transform="translate(-264.902 -2175.489)"/>
            <path id="Path_291" d="M383.2 2199.144l-4.5-1.616a17.226 17.226 0 0 0-1.349 1.9l-.577-.207c1.742-1.923 3.81-4.379 5.824-6.648l1.091-1.223.157.057.577 10.562-1.1-.4zm-.013-.212l-.327-6.265-.053-.019c-1.692 1.866-3.053 3.51-3.989 4.715z" class="cls-1" transform="translate(-295.317 -2187.525)"/>
            <path id="Path_292" d="M433.76 2203.579l-.244.486a14.939 14.939 0 0 0-2.741-1.75l-4.151 8.275-1.034-.519 4.151-8.275a15.1 15.1 0 0 0-3.054-1.158l.244-.486z" class="cls-1" transform="translate(-334.678 -2194.623)"/>
            <path id="Path_293" d="M455.341 2231.692a4.812 4.812 0 1 1 1.049 6.8 4.66 4.66 0 0 1-1.049-6.8zm6.809 4.811c1.625-2.3 1.711-4.6-.168-5.923s-4.026-.438-5.628 1.828c-1.641 2.323-1.73 4.6.149 5.926s4.006.492 5.647-1.834z" class="cls-1" transform="translate(-357.844 -2218.276)"/>
            <path id="Path_294" d="M497.615 2273.205l-.868-.867 1.081-5.816-1.282-1.281-3.448 3.452-.819-.818 6.691-6.7.818.817-3.1 3.107 1.243 1.241a35.849 35.849 0 0 0 5.7-.515l.473.473c-1.676.178-3.361.189-6.052.22l-.109.108.779.778z" class="cls-1" transform="translate(-388.454 -2243.832)"/>
            <path id="Path_295" d="M525.433 2316.058l-2.841-3.845a17.249 17.249 0 0 0-2.178.829l-.365-.493c2.517-.629 5.6-1.521 8.537-2.286l1.586-.41.1.135-5.394 9.1-.7-.942zm.107-.183l3.212-5.389-.033-.045c-2.444.61-4.489 1.22-5.937 1.7z" class="cls-1" transform="translate(-410.847 -2283.082)"/>
            <path id="Path_296" d="M555.447 2359.049l.6-.291a3.588 3.588 0 0 0 .247 2.915c.649 1.343 1.756 1.969 2.8 1.466 1.218-.588 1.183-1.655 1.132-3.008l-.025-.886c-.03-1.441.128-2.492 1.471-3.141 1.494-.721 2.815.251 3.542 1.757a5.427 5.427 0 0 1 .518 2.2l-.6.291a2.908 2.908 0 0 0-.1-2.414c-.515-1.067-1.427-1.865-2.57-1.313-1 .485-1.1 1.288-1.071 2.622l.025.886c.04 1.59.018 2.794-1.4 3.479-1.619.782-3.1-.192-3.909-1.874a7.017 7.017 0 0 1-.66-2.689z" class="cls-1" transform="translate(-439.391 -2320.182)"/>
            <path id="Path_297" d="M572.587 2408.549l-1.48-4.547a17.249 17.249 0 0 0-2.329.1l-.19-.583c2.587.2 5.8.327 8.823.529l1.635.113.052.159-7.993 6.928-.362-1.114zm.16-.14l4.751-4.1-.017-.053c-2.512-.194-4.645-.262-6.171-.264z" class="cls-1" transform="translate(-449.988 -2358.611)"/>
            <path id="Path_298" d="M592.7 2445.924l-.535.1a15.342 15.342 0 0 0-.376-3.957l-.008-.041-4.25.785a32.233 32.233 0 0 0 .767 3.232l-.521.1a26.855 26.855 0 0 0-.438-3.293l-4.675.864-.21-1.138 9.308-1.719z" class="cls-1" transform="translate(-461.168 -2388.717)"/>
            <path id="Path_299" d="M589.831 2478.8l-.322-4.771a17.352 17.352 0 0 0-2.282-.475l-.041-.612c2.459.826 5.539 1.736 8.424 2.673l1.558.51.011.167-9.446 4.76-.079-1.169zm.189-.1l5.609-2.81v-.056c-2.388-.8-4.44-1.391-5.918-1.766z" class="cls-1" transform="translate(-464.985 -2414.597)"/>
            <path id="Path_300" d="M586.878 2526.659l4.841-2.165.02-.25.134-1.709-4.642-.365.09-1.154 9.437.742-.26 3.308c-.176 2.238-.973 3.126-2.558 3-1.543-.122-2.268-1.4-2.223-3.377l-.189.1-.083 1.056-4.664 2.052zm5.055-2.4c-.146 1.862.709 2.544 2.071 2.652 1.237.1 2.178-.318 2.32-2.125l.149-1.89-4.405-.347z" class="cls-1" transform="translate(-464.658 -2453.359)"/>
            <path id="Path_301" d="M593.154 2566.692l-.214 1.137-9.3-1.753.214-1.137z" class="cls-1" transform="translate(-462.123 -2488.777)"/>
            <path id="Path_302" d="M571.876 2619.968l-1.246 2.833c-.819 1.863-1.952 2.568-3.279 1.984a2.219 2.219 0 0 1-1.146-2.865l-.038-.017c-.945 1.732-2.124 2.127-3.476 1.532-1.417-.623-1.752-2.111-.971-3.885l1.493-3.395zm-9.8-.747a2.14 2.14 0 0 0 1.141 3.152 2.2 2.2 0 0 0 3.159-1.26l.848-1.927-4.3-1.892zm4.591 1.715a2.03 2.03 0 0 0 1.046 2.851 1.881 1.881 0 0 0 2.783-1.167l.736-1.672-3.828-1.684z" class="cls-1" transform="translate(-444.117 -2530.077)"/>
            <path id="Path_303" d="M536.173 2657.6l2.55-4.045a17.248 17.248 0 0 0-1.564-1.728l.327-.519c1.5 2.116 3.454 4.665 5.234 7.122l.958 1.329-.089.142-10.437-1.717.625-.991zm.21.033l6.188 1.032.029-.047c-1.457-2.055-2.769-3.739-3.742-4.913z" class="cls-1" transform="translate(-421.413 -2558.422)"/>
            <path id="Path_304" d="M527.608 2704.2l-.422-.343a14.947 14.947 0 0 0 2.3-2.3l-7.188-5.832.729-.9 7.188 5.832a15.084 15.084 0 0 0 1.787-2.733l.422.343z" class="cls-1" transform="translate(-412.659 -2593.515)"/>
            <path id="Path_305" d="M493.53 2723.006a4.812 4.812 0 1 1-6.868-.432 4.661 4.661 0 0 1 6.868.432zm-6.158 5.62c1.9 2.08 4.122 2.655 5.821 1.1s1.29-3.839-.58-5.888c-1.917-2.1-4.121-2.675-5.82-1.124s-1.338 3.811.579 5.912z" class="cls-1" transform="translate(-382.592 -2614.828)"/>
            <path id="Path_306" d="M435.607 2754.542l1.033-.662 5.45 2.3 1.526-.978-2.633-4.109.974-.624 5.108 7.97-.974.624-2.369-3.7-1.479.948a35.907 35.907 0 0 0-.718 5.676l-.563.361c.185-1.675.536-3.324 1.083-5.959l-.083-.129-.927.594z" class="cls-1" transform="translate(-342.756 -2638.386)"/>
            <path id="Path_307" d="M399.6 2776.089l4.368-1.947a17.338 17.338 0 0 0-.341-2.305l.56-.25c.072 2.593.279 5.8.394 8.83l.058 1.638-.153.068-7.724-7.227 1.07-.477zm.156.145l4.571 4.3.051-.023c-.069-2.518-.224-4.647-.382-6.164z" class="cls-1" transform="translate(-311.432 -2655.412)"/>
            <path id="Path_308" d="M357.116 2795.222l.154.651a3.588 3.588 0 0 0-2.9-.391c-1.452.342-2.3 1.288-2.038 2.415.31 1.316 1.359 1.513 2.692 1.757l.87.167c1.413.283 2.406.665 2.748 2.116.381 1.615-.855 2.694-2.483 3.078a5.418 5.418 0 0 1-2.256.031l-.154-.651a2.907 2.907 0 0 0 2.378.428c1.153-.272 2.13-.989 1.839-2.224-.256-1.086-1.02-1.349-2.329-1.614l-.87-.167c-1.562-.3-2.731-.588-3.093-2.121-.413-1.75.859-2.981 2.677-3.41a7.016 7.016 0 0 1 2.765-.065z" class="cls-1" transform="translate(-275.012 -2674.385)"/>
            <path id="Path_309" d="M307.322 2804.557l4.759-.463a17.243 17.243 0 0 0 .407-2.294l.61-.06c-.753 2.483-1.571 5.587-2.422 8.5l-.463 1.572-.167.016-5.036-9.3 1.165-.113zm.1.186l2.975 5.523.055-.005c.732-2.41 1.259-4.478 1.59-5.967z" class="cls-1" transform="translate(-237.446 -2679.727)"/>
            <path id="Path_310" d="M270.44 2814.45l.018-.543a15.34 15.34 0 0 0 3.946.477h.042l.14-4.319a32.244 32.244 0 0 0-3.321.06l.017-.53a26.811 26.811 0 0 0 3.311.275l.154-4.751 1.157.038-.307 9.46z" class="cls-1" transform="translate(-209.569 -2682.452)"/>
            <path id="Path_311" d="M235.168 2801.36l4.73.7a17.244 17.244 0 0 0 .95-2.129l.607.09c-1.331 2.227-2.876 5.042-4.406 7.663l-.829 1.413-.166-.025-2.639-10.243 1.158.172zm.054.205l1.551 6.08.055.008c1.293-2.162 2.3-4.042 2.986-5.407z" class="cls-1" transform="translate(-179.713 -2677.381)"/>
            <path id="Path_312" d="M186.921 2787.049l1.069 5.193.24.073 1.64.5 1.358-4.454 1.107.338-2.76 9.053-3.174-.967c-2.147-.655-2.842-1.625-2.379-3.145.451-1.48 1.851-1.913 3.777-1.443l-.054-.206-1.014-.309-1-5zm1.252 5.453c-1.787-.545-2.638.143-3.036 1.45-.362 1.187-.159 2.2 1.574 2.724l1.813.553 1.289-4.227z" class="cls-1" transform="translate(-139.774 -2667.589)"/>
            <path id="Path_313" d="M161.969 2789.666l-1.064-.456 3.727-8.7 1.064.455z" class="cls-1" transform="translate(-121.243 -2662.608)"/>
            <path id="Path_314" d="M92.452 2753.534l-2.5-1.827c-1.643-1.2-2.088-2.459-1.232-3.629a2.219 2.219 0 0 1 3.044-.5l.025-.034c-1.488-1.3-1.62-2.532-.748-3.725.913-1.249 2.439-1.257 4-.113l2.993 2.189zm.175-5.294a2.03 2.03 0 0 0-3.009.407 1.881 1.881 0 0 0 .541 2.969l1.474 1.078 2.468-3.376zm2.663-4.115a2.141 2.141 0 0 0-3.324.437 2.2 2.2 0 0 0 .551 3.356l1.7 1.242 2.773-3.792z" class="cls-1" transform="translate(-62.693 -2632.25)"/>
            <path id="Path_315" d="M61.355 2709.287l3.4 3.357a17.311 17.311 0 0 0 2.023-1.158l.437.431c-2.389 1.012-5.3 2.373-8.078 3.586l-1.5.651-.119-.117 3.914-9.827.834.822zm-.077.2l-2.335 5.823.04.039c2.319-.982 4.245-1.9 5.6-2.6z" class="cls-1" transform="translate(-37.875 -2602.695)"/>
            <path id="Path_316" d="M19.063 2696.278l.425-.339a14.936 14.936 0 0 0 1.756 2.737l7.235-5.774.722.9-7.235 5.773a15.07 15.07 0 0 0 2.288 2.33l-.425.339z" class="cls-1" transform="translate(-6.866 -2591.963)"/>
            <path id="Path_317" d="M5.443 2655.019a4.66 4.66 0 0 1-6.665-1.672 4.7 4.7 0 0 1 1.854-6.657 4.669 4.669 0 0 1 6.7 1.714 4.649 4.649 0 0 1-1.889 6.615zm-4.17-7.219c-2.439 1.409-3.477 3.458-2.327 5.449s3.473 2.083 5.876.7c2.463-1.422 3.5-3.452 2.345-5.444s-3.43-2.128-5.893-.705z" class="cls-1" transform="translate(10.06 -2554.087)"/>
            <path id="Path_318" d="M-20.581 2592.786l.423 1.151-3.425 4.824.625 1.7 4.58-1.684.4 1.086-8.885 3.266-.4-1.086 4.122-1.515-.606-1.648a35.87 35.87 0 0 0-5.387-1.927l-.231-.628c1.6.542 3.13 1.241 5.585 2.344l.144-.053-.38-1.034z" class="cls-1" transform="translate(32.186 -2511.232)"/>
            <path id="Path_319" d="M-30.492 2553.655l.955 4.686a17.191 17.191 0 0 0 2.325.167l.123.6c-2.547-.491-5.721-.983-8.706-1.527l-1.612-.3-.033-.164 8.728-5.976.234 1.147zm-.175.121l-5.185 3.532.011.054c2.473.478 4.585.787 6.1.962z" class="cls-1" transform="translate(38.698 -2477.653)"/>
            <path id="Path_320" d="M-34.568 2508.08l-.669.01a3.586 3.586 0 0 0 1-2.749c-.024-1.492-.766-2.525-1.923-2.506-1.352.022-1.768 1-2.292 2.254l-.349.814c-.578 1.32-1.163 2.208-2.655 2.233-1.659.027-2.449-1.411-2.476-3.083a5.417 5.417 0 0 1 .452-2.21l.669-.011a2.907 2.907 0 0 0-.926 2.232c.019 1.185.511 2.292 1.78 2.271 1.115-.018 1.536-.708 2.074-1.93l.349-.814c.631-1.46 1.158-2.543 2.733-2.569 1.8-.029 2.729 1.476 2.76 3.343a7.017 7.017 0 0 1-.527 2.715z" class="cls-1" transform="translate(43.932 -2438.042)"/>
            <path id="Path_321" d="M-34.328 2459.63l-.56 4.749a17.264 17.264 0 0 0 2.156.886l-.072.609c-2.265-1.264-5.125-2.724-7.789-4.176l-1.437-.788.02-.166 10.16-2.942-.137 1.163zm-.2.06l-6.03 1.731-.007.055c2.2 1.229 4.108 2.184 5.492 2.824z" class="cls-1" transform="translate(42.399 -2402.384)"/>
            <path id="Path_322" d="M-33.732 2413.855l.527.134a15.319 15.319 0 0 0-1.314 3.751l-.01.041 4.188 1.065a32.293 32.293 0 0 0 .656-3.257l.513.13a26.9 26.9 0 0 0-.98 3.174l4.607 1.172-.285 1.121-9.17-2.332z" class="cls-1" transform="translate(36.732 -2366.947)"/>
            <path id="Path_323" d="M-14.328 2390.591l-1.709 4.466a17.274 17.274 0 0 0 1.872 1.388l-.219.573c-1.886-1.781-4.3-3.9-6.526-5.96l-1.2-1.116.06-.156 10.571-.359-.418 1.094zm-.212.009l-6.27.2-.02.052c1.831 1.73 3.447 3.125 4.631 4.085z" class="cls-1" transform="translate(26.335 -2347.249)"/>
            <path id="Path_324" d="M4.233 2339.386l-5.3-.08-.124.219-.843 1.493 4.055 2.289-.569 1.008-8.243-4.654 1.631-2.89c1.1-1.954 2.2-2.423 3.585-1.642 1.348.761 1.467 2.221.591 4l.213-.008.521-.923 5.095.107zm-5.6.043c.919-1.627.431-2.606-.759-3.278-1.08-.61-2.109-.631-3 .948l-.932 1.651 3.849 2.173z" class="cls-1" transform="translate(13.984 -2303.175)"/>
            <path id="Path_325" d="M18.968 2313.86l.674-.94 7.693 5.515-.674.94z" class="cls-1" transform="translate(-6.789 -2285.555)"/>
            <path id="Path_326" d="M60.219 2255.63l2.319-2.05c1.525-1.348 2.848-1.513 3.809-.427a2.219 2.219 0 0 1-.16 3.081l.027.031c1.583-1.176 2.82-1.041 3.8.066 1.025 1.159.706 2.651-.746 3.934l-2.778 2.456zm5.134 1.3a2.03 2.03 0 0 0 .246-3.026 1.881 1.881 0 0 0-3.016-.106l-1.368 1.209 2.77 3.133zm3.449 3.482a2.14 2.14 0 0 0 .285-3.34 2.2 2.2 0 0 0-3.4-.18l-1.577 1.394 3.112 3.52z" class="cls-1" transform="translate(-40.053 -2236.787)"/>
            <path id="Path_327" d="M116.647 2231.848l-4.008 2.607a17.26 17.26 0 0 0 .7 2.223l-.514.334c-.478-2.549-1.185-5.681-1.774-8.657l-.314-1.608.14-.091 8.761 5.926-.982.639zm-.176-.118l-5.188-3.526-.047.03c.463 2.476.95 4.554 1.343 6.028z" class="cls-1" transform="translate(-80.787 -2215.994)"/>
            <path id="Path_328" d="M136.763 2199.068l.24.488a14.941 14.941 0 0 0-3.05 1.126l4.082 8.308-1.038.51-4.082-8.308a15.093 15.093 0 0 0-2.768 1.733l-.24-.488z" class="cls-1" transform="translate(-96.246 -2193.748)"/>
            <path id="Path_329" d="M177.56 2192.851a4.812 4.812 0 1 1 6.051 3.28 4.661 4.661 0 0 1-6.051-3.28zm7.95-2.511c-.848-2.686-2.624-4.143-4.817-3.449s-2.785 2.941-1.95 5.586c.857 2.712 2.615 4.16 4.809 3.467s2.815-2.892 1.959-5.604z" class="cls-1" transform="translate(-134.454 -2183.573)"/>
            <path id="Path_330" d="M244.357 2182.588l-1.216.165-3.969-4.387-1.8.243.653 4.835-1.146.155-1.268-9.38 1.147-.155.588 4.352 1.741-.235a35.919 35.919 0 0 0 3.045-4.843l.663-.09c-.874 1.441-1.888 2.787-3.5 4.946l.021.152 1.091-.148z" class="cls-1" transform="translate(-181.487 -2172.927)"/>
            <path id="Path_331" d="M287.361 2179.127l-4.781-.077a17.3 17.3 0 0 0-.663 2.234l-.613-.01c1.028-2.382 2.192-5.375 3.366-8.172l.638-1.51h.167l3.955 9.81-1.171-.019zm-.081-.2l-2.332-5.824h-.056c-1 2.313-1.757 4.308-2.254 5.75z" class="cls-1" transform="translate(-218.329 -2171.593)"/>
        </g>
    </g>
</svg>
