<?xml version="1.0" encoding="utf-8"?>
<!-- Generator: Adobe Illustrator 23.0.1, SVG Export Plug-In . SVG Version: 6.00 Build 0)  -->
<svg version="1.1" id="Capa_1" xmlns="http://www.w3.org/2000/svg" xmlns:xlink="http://www.w3.org/1999/xlink" x="0px" y="0px"
	 viewBox="0 0 60 60" style="enable-background:new 0 0 60 60;" xml:space="preserve">
<style type="text/css">
	.st0{fill:#BBBDB2;}
</style>
<g>
	<path class="st0" d="M5.3,43.2c-0.3-0.5-0.9-0.7-1.4-0.4c-0.5,0.3-0.7,0.9-0.4,1.4C3.7,44.4,3.9,44.7,4,45c0.2,0.3,0.5,0.5,0.9,0.5
		c0.2,0,0.3,0,0.5-0.1C5.9,45.1,6,44.5,5.8,44C5.6,43.8,5.4,43.5,5.3,43.2z"/>
	<path class="st0" d="M7.7,10c-0.2,0.3-0.5,0.5-0.7,0.8c-0.4,0.4-0.3,1.1,0.1,1.4c0.2,0.2,0.4,0.2,0.6,0.2c0.3,0,0.6-0.1,0.8-0.4
		c0.2-0.2,0.4-0.5,0.6-0.7c0.4-0.4,0.3-1-0.1-1.4C8.7,9.5,8,9.6,7.7,10z"/>
	<path class="st0" d="M8,47.3c-0.3-0.4-1-0.5-1.4-0.2c-0.4,0.3-0.5,1-0.2,1.4C6.6,48.8,6.8,49,7,49.3c0.2,0.2,0.5,0.4,0.8,0.4
		c0.2,0,0.5-0.1,0.6-0.2c0.4-0.4,0.5-1,0.1-1.4C8.4,47.8,8.2,47.5,8,47.3z"/>
	<path class="st0" d="M11.5,6.4c-0.3,0.2-0.5,0.4-0.8,0.7c-0.4,0.4-0.5,1-0.1,1.4c0.2,0.2,0.5,0.4,0.8,0.4c0.2,0,0.5-0.1,0.6-0.2
		c0.2-0.2,0.5-0.4,0.8-0.6c0.4-0.3,0.5-1,0.2-1.4C12.5,6.1,11.9,6.1,11.5,6.4z"/>
	<path class="st0" d="M11.3,50.8c-0.4-0.4-1-0.3-1.4,0.1c-0.4,0.4-0.3,1,0.1,1.4c0.3,0.2,0.5,0.5,0.8,0.7c0.2,0.2,0.4,0.2,0.6,0.2
		c0.3,0,0.6-0.1,0.8-0.4c0.4-0.4,0.3-1.1-0.1-1.4C11.8,51.3,11.5,51,11.3,50.8z"/>
	<path class="st0" d="M20.4,56.3c-0.3-0.1-0.6-0.2-0.9-0.3c-0.5-0.2-1.1,0-1.3,0.6c-0.2,0.5,0,1.1,0.6,1.3c0.3,0.1,0.7,0.3,1,0.4
		c0.1,0,0.2,0.1,0.3,0.1c0.4,0,0.8-0.3,0.9-0.7C21.2,57.1,21,56.5,20.4,56.3z"/>
	<path class="st0" d="M15.9,3.5c-0.3,0.2-0.6,0.3-0.9,0.5c-0.5,0.3-0.6,0.9-0.4,1.4c0.2,0.3,0.5,0.5,0.9,0.5c0.2,0,0.3,0,0.5-0.1
		c0.3-0.2,0.6-0.3,0.9-0.5c0.5-0.3,0.7-0.9,0.4-1.4C16.9,3.5,16.3,3.3,15.9,3.5z"/>
	<path class="st0" d="M16,54.3c-0.3-0.2-0.6-0.3-0.8-0.5c-0.5-0.3-1.1-0.1-1.4,0.3c-0.3,0.5-0.1,1.1,0.3,1.4
		c0.3,0.2,0.6,0.4,0.9,0.5c0.2,0.1,0.3,0.1,0.5,0.1c0.3,0,0.7-0.2,0.9-0.5C16.7,55.2,16.5,54.5,16,54.3z"/>
	<path class="st0" d="M20.7,1.5c-0.3,0.1-0.7,0.2-1,0.3c-0.5,0.2-0.8,0.8-0.6,1.3c0.1,0.4,0.5,0.7,0.9,0.7c0.1,0,0.2,0,0.3-0.1
		c0.3-0.1,0.6-0.2,0.9-0.3c0.5-0.2,0.8-0.7,0.6-1.3C21.7,1.6,21.2,1.3,20.7,1.5z"/>
	<path class="st0" d="M3.7,39.6c-0.1-0.3-0.2-0.6-0.3-0.9c-0.2-0.5-0.7-0.8-1.3-0.6c-0.5,0.2-0.8,0.7-0.6,1.3c0.1,0.3,0.2,0.7,0.3,1
		C2,40.7,2.3,41,2.8,41c0.1,0,0.2,0,0.3-0.1C3.6,40.7,3.9,40.1,3.7,39.6z"/>
	<path class="st0" d="M2.4,21.1c0.1,0,0.2,0.1,0.3,0.1c0.4,0,0.8-0.3,0.9-0.7c0.1-0.3,0.2-0.6,0.3-0.9c0.2-0.5,0-1.1-0.6-1.3
		c-0.5-0.2-1.1,0-1.3,0.6c-0.1,0.3-0.3,0.7-0.4,1C1.6,20.3,1.9,20.9,2.4,21.1z"/>
	<path class="st0" d="M4.4,16.4c0.2,0.1,0.3,0.1,0.5,0.1c0.3,0,0.7-0.2,0.9-0.5c0.2-0.3,0.3-0.6,0.5-0.8c0.3-0.5,0.1-1.1-0.3-1.4
		c-0.5-0.3-1.1-0.1-1.4,0.3C4.3,14.4,4.2,14.7,4,15C3.7,15.5,3.9,16.1,4.4,16.4z"/>
	<path class="st0" d="M57.6,25c0.1,0.3,0.1,0.6,0.2,1c0.1,0.5,0.5,0.9,1,0.9c0,0,0.1,0,0.1,0c0.5-0.1,0.9-0.6,0.8-1.1
		c0-0.3-0.1-0.7-0.2-1c-0.1-0.5-0.6-0.9-1.2-0.8C57.8,24,57.5,24.5,57.6,25z"/>
	<path class="st0" d="M56.3,20.3c0.1,0.3,0.2,0.6,0.3,0.9c0.1,0.4,0.5,0.7,1,0.7c0.1,0,0.2,0,0.3,0c0.5-0.2,0.8-0.7,0.6-1.3
		c-0.1-0.3-0.2-0.7-0.3-1c-0.2-0.5-0.8-0.8-1.3-0.6C56.4,19.2,56.1,19.8,56.3,20.3z"/>
	<path class="st0" d="M1.3,26c0.1,0,0.1,0,0.2,0c0.5,0,0.9-0.3,1-0.8c0.1-0.3,0.1-0.6,0.2-1c0.1-0.5-0.2-1.1-0.8-1.2
		c-0.5-0.1-1.1,0.2-1.2,0.8c-0.1,0.3-0.1,0.7-0.2,1C0.3,25.4,0.7,25.9,1.3,26z"/>
	<path class="st0" d="M1.6,36.1c0.5-0.1,0.9-0.6,0.8-1.2c-0.1-0.3-0.1-0.6-0.2-1c-0.1-0.5-0.6-0.9-1.1-0.8c-0.5,0.1-0.9,0.6-0.8,1.1
		c0.1,0.3,0.1,0.7,0.2,1c0.1,0.5,0.5,0.8,1,0.8C1.5,36.1,1.6,36.1,1.6,36.1z"/>
	<path class="st0" d="M2,30c0-0.3,0-0.6,0-0.9c0-0.6-0.4-1-1-1c-0.5,0-1,0.4-1,1c0,0.3,0,0.7,0,1v0c0,0.6,0.4,1,1,1S2,30.6,2,30z"/>
	<path class="st0" d="M54.7,16.8c0.2,0.3,0.5,0.5,0.9,0.5c0.2,0,0.3,0,0.5-0.1c0.5-0.3,0.7-0.9,0.4-1.4c-0.2-0.3-0.3-0.6-0.5-0.9
		c-0.3-0.5-0.9-0.6-1.4-0.4c-0.5,0.3-0.6,0.9-0.4,1.4C54.4,16.2,54.5,16.5,54.7,16.8z"/>
	<path class="st0" d="M49.2,7c-0.4-0.4-1.1-0.3-1.4,0.1c-0.4,0.4-0.3,1.1,0.1,1.4c0.3,0.2,0.5,0.4,0.7,0.6c0.2,0.2,0.4,0.3,0.7,0.3
		c0.3,0,0.5-0.1,0.7-0.3c0.4-0.4,0.3-1-0.1-1.4C49.8,7.4,49.5,7.2,49.2,7z"/>
	<path class="st0" d="M53.6,11.5c-0.2-0.3-0.4-0.5-0.7-0.8c-0.4-0.4-1-0.5-1.4-0.1c-0.4,0.4-0.5,1-0.1,1.4c0.2,0.2,0.4,0.5,0.6,0.8
		c0.2,0.3,0.5,0.4,0.8,0.4c0.2,0,0.4-0.1,0.6-0.2C53.9,12.5,53.9,11.9,53.6,11.5z"/>
	<path class="st0" d="M51.5,48c-0.2,0.2-0.4,0.5-0.6,0.7c-0.4,0.4-0.3,1,0.1,1.4c0.2,0.2,0.4,0.3,0.7,0.3c0.3,0,0.5-0.1,0.7-0.3
		c0.2-0.3,0.5-0.5,0.7-0.8c0.4-0.4,0.3-1.1-0.1-1.4C52.4,47.5,51.8,47.6,51.5,48z"/>
	<path class="st0" d="M48,51.4c-0.2,0.2-0.5,0.4-0.8,0.6c-0.4,0.3-0.5,1-0.2,1.4c0.2,0.3,0.5,0.4,0.8,0.4c0.2,0,0.4-0.1,0.6-0.2
		c0.3-0.2,0.5-0.4,0.8-0.7c0.4-0.4,0.5-1,0.1-1.4C49.1,51.1,48.4,51.1,48,51.4z"/>
	<path class="st0" d="M55.6,43.6c-0.5-0.3-1.1-0.1-1.4,0.4c-0.2,0.3-0.3,0.6-0.5,0.8c-0.3,0.5-0.2,1.1,0.3,1.4
		c0.2,0.1,0.3,0.2,0.5,0.2c0.3,0,0.7-0.2,0.8-0.5c0.2-0.3,0.4-0.6,0.5-0.9C56.3,44.5,56.1,43.9,55.6,43.6z"/>
	<path class="st0" d="M58.7,34c-0.5-0.1-1.1,0.3-1.2,0.8c-0.1,0.3-0.1,0.6-0.2,1c-0.1,0.5,0.2,1.1,0.8,1.2c0.1,0,0.1,0,0.2,0
		c0.5,0,0.9-0.3,1-0.8c0.1-0.3,0.1-0.7,0.2-1C59.6,34.7,59.3,34.1,58.7,34z"/>
	<path class="st0" d="M60,29.9c0-0.6-0.4-1-1-1s-1,0.4-1,1l0,0.1c0,0.3,0,0.7,0,1c0,0.6,0.4,1,1,1c0,0,0,0,0,0c0.5,0,1-0.4,1-1
		C60,30.7,60,30.4,60,29.9L60,29.9z"/>
	<path class="st0" d="M25.2,57.6c-0.3-0.1-0.6-0.1-1-0.2c-0.5-0.1-1.1,0.2-1.2,0.8c-0.1,0.5,0.2,1.1,0.8,1.2c0.3,0.1,0.7,0.1,1,0.2
		c0.1,0,0.1,0,0.2,0c0.5,0,0.9-0.3,1-0.8C26.1,58.2,25.7,57.7,25.2,57.6z"/>
	<path class="st0" d="M45.8,4.5c-0.3-0.2-0.6-0.4-0.9-0.5c-0.5-0.3-1.1-0.1-1.4,0.4c-0.3,0.5-0.1,1.1,0.4,1.4
		c0.3,0.2,0.6,0.3,0.8,0.5c0.2,0.1,0.3,0.1,0.5,0.1c0.3,0,0.7-0.2,0.9-0.5C46.4,5.4,46.3,4.8,45.8,4.5z"/>
	<path class="st0" d="M57.6,39c-0.5-0.2-1.1,0.1-1.3,0.6c-0.1,0.3-0.2,0.6-0.4,0.9c-0.2,0.5,0,1.1,0.6,1.3c0.1,0,0.3,0.1,0.4,0.1
		c0.4,0,0.8-0.2,0.9-0.6c0.1-0.3,0.3-0.6,0.4-1C58.4,39.7,58.1,39.2,57.6,39z"/>
	<path class="st0" d="M31,0c-0.3,0-0.6,0-1,0l0,1V0c-0.6,0-1,0.4-1,1c0,0.6,0.5,1,1,1c0.3,0,0.6,0,0.9,0c0,0,0,0,0,0
		c0.5,0,1-0.4,1-1C32,0.5,31.5,0,31,0z"/>
	<path class="st0" d="M34.9,57.6c-0.3,0.1-0.6,0.1-1,0.2c-0.5,0.1-0.9,0.6-0.9,1.1c0.1,0.5,0.5,0.9,1,0.9c0,0,0.1,0,0.1,0
		c0.3,0,0.7-0.1,1-0.2c0.5-0.1,0.9-0.6,0.8-1.2C35.9,57.8,35.4,57.5,34.9,57.6z"/>
	<path class="st0" d="M30.1,58L30,58c-0.3,0-0.6,0-1,0c-0.6,0-1,0.4-1,1c0,0.6,0.4,1,1,1c0.3,0,0.7,0,1,0c0,0,0,0,0,0
		c0.6,0,1-0.4,1-1C31.1,58.5,30.7,58,30.1,58z"/>
	<path class="st0" d="M25.7,0.3c-0.3,0-0.7,0.1-1,0.2c-0.5,0.1-0.9,0.6-0.8,1.2c0.1,0.5,0.5,0.8,1,0.8c0.1,0,0.1,0,0.2,0
		c0.3-0.1,0.6-0.1,1-0.2c0.5-0.1,0.9-0.6,0.8-1.1S26.3,0.2,25.7,0.3z"/>
	<path class="st0" d="M36.2,0.6c-0.3-0.1-0.7-0.1-1-0.2c-0.6-0.1-1.1,0.3-1.2,0.8c-0.1,0.5,0.3,1.1,0.8,1.2c0.3,0.1,0.6,0.1,1,0.2
		c0.1,0,0.1,0,0.2,0c0.5,0,0.9-0.3,1-0.8C37,1.3,36.7,0.7,36.2,0.6z"/>
	<path class="st0" d="M41.2,2.1c-0.3-0.1-0.7-0.3-1-0.4c-0.5-0.2-1.1,0.1-1.3,0.6c-0.2,0.5,0.1,1.1,0.6,1.3c0.3,0.1,0.6,0.2,0.9,0.3
		c0.1,0,0.2,0.1,0.4,0.1c0.4,0,0.8-0.2,0.9-0.6C41.9,2.9,41.7,2.4,41.2,2.1z"/>
	<path class="st0" d="M39.6,56.3c-0.3,0.1-0.6,0.2-0.9,0.3c-0.5,0.2-0.8,0.7-0.6,1.3c0.1,0.4,0.5,0.7,1,0.7c0.1,0,0.2,0,0.3,0
		c0.3-0.1,0.7-0.2,1-0.3c0.5-0.2,0.8-0.8,0.6-1.3C40.7,56.4,40.1,56.1,39.6,56.3z"/>
	<path class="st0" d="M44,54.2c-0.3,0.2-0.6,0.3-0.8,0.5c-0.5,0.3-0.7,0.9-0.4,1.4c0.2,0.3,0.5,0.5,0.9,0.5c0.2,0,0.3,0,0.5-0.1
		c0.3-0.2,0.6-0.3,0.9-0.5c0.5-0.3,0.6-0.9,0.4-1.4C45.1,54.1,44.5,54,44,54.2z"/>
</g>
</svg>
