<?xml version="1.0" encoding="utf-8"?>
<!-- Generator: Adobe Illustrator 23.0.1, SVG Export Plug-In . SVG Version: 6.00 Build 0)  -->
<svg version="1.1" id="Layer_1" xmlns="http://www.w3.org/2000/svg" xmlns:xlink="http://www.w3.org/1999/xlink" x="0px" y="0px"
	 viewBox="0 0 140 42" style="enable-background:new 0 0 140 42;" xml:space="preserve">
<style type="text/css">
	.st0{fill:#004F76;}
</style>
<g>
	<g>
		<g>
			<g>
				<path class="st0" d="M12.6,13.2c-0.5-1.9-1.8-3.4-3.7-4C7,8.4,4.8,8.7,3.1,9.9c-0.2,0.2-0.3,0.4-0.3,0.7c0,0.3,0.2,0.5,0.5,0.6
					l8.4,2.8c0.1,0,0.1,0,0.2,0c0.2,0,0.3-0.1,0.5-0.2C12.6,13.7,12.6,13.4,12.6,13.2z M5.3,10.4c1-0.3,2.1-0.3,3.1,0.1
					c0.9,0.3,1.7,0.9,2.2,1.7L5.3,10.4z"/>
			</g>
		</g>
		<g>
			<g>
				<path class="st0" d="M12.3,12.7c-1.7-1-3.9-1-5.8,0.1c-1.8,1-3,2.8-3,4.7c0,0.2,0.1,0.5,0.3,0.6c0.1,0.1,0.2,0.1,0.4,0.1
					c0.1,0,0.2,0,0.3-0.1l7.7-4.2c0.2-0.1,0.4-0.3,0.4-0.6C12.6,13.1,12.5,12.9,12.3,12.7z M5.2,16.2c0.4-0.9,1.1-1.6,2-2.2
					c0.8-0.4,1.6-0.6,2.3-0.6c0.3,0,0.5,0,0.7,0.1L5.2,16.2z"/>
			</g>
		</g>
		<g>
			<g>
				<path class="st0" d="M12.2,14l-0.6-1.3c-2.1,0.9-3.4,2.2-3.9,3.9c-0.8,2.7,0.8,5.3,0.8,5.4c0.1,0.2,0.4,0.3,0.6,0.3
					c0,0,0.1,0,0.1,0c0.3,0,0.5-0.2,0.6-0.5l2.3-6.8l-1.2-0.4C11.2,14.4,11.7,14.2,12.2,14z M9,19.7C8.8,18.9,8.7,18,9,17
					c0.3-0.8,0.8-1.6,1.6-2.2L9,19.7z"/>
			</g>
		</g>
		<g>
			<g>
				<path class="st0" d="M15.9,4.4c-0.2-0.2-0.4-0.3-0.7-0.2c-0.1,0-2.8,0.7-4.1,3.1c-0.9,1.7-0.8,3.8,0.2,6.3
					c0.1,0.3,0.4,0.4,0.6,0.4c0,0,0,0,0,0c0.3,0,0.5-0.2,0.6-0.4L16,5.2C16.1,4.9,16.1,4.6,15.9,4.4z M12,11.2
					C11.8,10,11.9,8.9,12.4,8c0.4-0.8,1.1-1.4,1.7-1.8L12,11.2z"/>
			</g>
		</g>
		<g>
			<g>
				<path class="st0" d="M19.9,9.2c-1.8-1-3.9-1.1-5.6-0.2c-1.6,0.8-2.7,2.3-3,4.2c0,0.3,0.1,0.5,0.3,0.7c0.1,0.1,0.3,0.1,0.4,0.1
					c0.1,0,0.2,0,0.3-0.1l7.7-3.5c0.2-0.1,0.4-0.3,0.4-0.6C20.3,9.6,20.2,9.3,19.9,9.2z M13.1,12c0.4-0.8,1-1.4,1.8-1.8
					c0.6-0.3,1.3-0.4,1.9-0.4c0.3,0,0.6,0,0.9,0.1L13.1,12z"/>
			</g>
		</g>
		<g>
			<g>
				<path class="st0" d="M21,15.9c-0.5-1.9-1.8-3.3-3.6-4c-1.9-0.7-4.1-0.4-5.9,0.8l0.8,1.1c1.4-1,3.1-1.2,4.6-0.6
					c0.9,0.3,1.7,0.9,2.2,1.7l-5.2-1.6l-0.4,1.3l6.7,2.1c0.1,0,0.1,0,0.2,0c0.2,0,0.3-0.1,0.5-0.2C21,16.4,21,16.2,21,15.9z"/>
			</g>
		</g>
		<g>
			<g>
				<path class="st0" d="M11.8,13.6l-1.2,0.8c0,0.1,4.1,6.2,3.4,15.7l1.4,0.1C16.1,20.2,12,13.9,11.8,13.6z"/>
			</g>
		</g>
		<g>
			<g>
				<path class="st0" d="M13.9,12.9l-1.1,0.8c0,0.1,4.1,5.5,4.1,15.7h1.4C18.2,18.8,14,13.1,13.9,12.9z"/>
			</g>
		</g>
		<g>
			<g>
				<path class="st0" d="M34.6,4.3c-0.6-0.4-1.3-0.6-2.1-0.7c-3.3-0.5-6.5,1.8-7,5.1c0,0.3,0.1,0.5,0.3,0.7c0.1,0.1,0.3,0.1,0.4,0.1
					c0.1,0,0.2,0,0.3-0.1l8-3.9C34.8,5.4,35,5.2,35,4.9C35,4.7,34.9,4.4,34.6,4.3z M27.5,7.5c0.8-1.6,2.4-2.6,4.2-2.6
					c0.2,0,0.5,0,0.7,0.1c0,0,0.1,0,0.1,0L27.5,7.5z"/>
			</g>
		</g>
		<g>
			<g>
				<path class="st0" d="M35,11.8c-0.2-1.9-1.5-3.4-3.4-4.2c-2-0.8-4.2-0.5-5.7,0.7c-0.2,0.2-0.3,0.4-0.3,0.7c0,0.2,0.2,0.5,0.4,0.5
					l8,3.1c0.1,0,0.2,0,0.2,0c0.2,0,0.3-0.1,0.4-0.1C34.9,12.3,35,12.1,35,11.8z M28,8.7c1-0.3,2.1-0.3,3.1,0.2
					c1,0.4,1.7,1.1,2.1,1.9L28,8.7z"/>
			</g>
		</g>
		<g>
			<g>
				<path class="st0" d="M30.9,11.6c-0.7-1.6-2.2-2.8-4.4-3.4l-0.4,1.3c1.8,0.5,2.9,1.4,3.5,2.6c0.4,0.9,0.4,2,0.3,2.8l-2.4-4.6
					L26.2,11l3.2,6.1c0.1,0.2,0.4,0.4,0.6,0.4c0,0,0,0,0,0c0.3,0,0.5-0.2,0.6-0.4C30.8,17,32.1,14.2,30.9,11.6z"/>
			</g>
		</g>
		<g>
			<g>
				<path class="st0" d="M26.3,2.7C24.7,0.4,21.9,0,21.8,0c-0.3,0-0.5,0.1-0.7,0.3C21,0.5,21,0.8,21.1,1l4.5,8.1
					c0.1,0.2,0.4,0.4,0.6,0.4c0,0,0.1,0,0.1,0c0.3,0,0.5-0.2,0.6-0.5C27.6,6.5,27.4,4.4,26.3,2.7z M25.9,6.8l-2.7-4.9
					c0.7,0.3,1.4,0.8,2,1.6C25.7,4.4,26,5.5,25.9,6.8z"/>
			</g>
		</g>
		<g>
			<g>
				<path class="st0" d="M26.9,8.6c-0.5-1.8-1.8-3.2-3.5-3.8c-1.8-0.6-3.9-0.3-5.6,0.9c-0.2,0.2-0.3,0.4-0.3,0.7
					c0,0.3,0.2,0.5,0.5,0.6l8,2.6c0.1,0,0.1,0,0.2,0c0.2,0,0.4-0.1,0.5-0.2C26.9,9.1,27,8.9,26.9,8.6z M20,6.1
					c0.9-0.3,1.9-0.3,2.9,0c0.8,0.3,1.5,0.8,2,1.6L20,6.1z"/>
			</g>
		</g>
		<g>
			<g>
				<path class="st0" d="M21.8,9.3c1.2-0.6,2.7-0.6,4.1,0.2l0.7-1.2c-1.8-1-3.8-1-5.4-0.2c-1.6,0.8-2.7,2.5-3,4.5
					c0,0.2,0.1,0.5,0.3,0.6c0.1,0.1,0.3,0.1,0.4,0.1c0.1,0,0.2,0,0.3-0.1l6-2.5l-0.5-1.3l-4.7,1.9C20.3,10.5,21,9.7,21.8,9.3z"/>
			</g>
		</g>
		<g>
			<g>
				<path class="st0" d="M28.1,9.9l-1.3-0.6c-2.4,5.4-3.5,11.4-3,17.4l1.4-0.1C24.8,20.9,25.8,15.1,28.1,9.9z"/>
			</g>
		</g>
		<g>
			<g>
				<path class="st0" d="M26.2,8.8L25,8.2c-3,5.7-4.4,12.1-4,18.5l1.4-0.1C22,20.4,23.3,14.3,26.2,8.8z"/>
			</g>
		</g>
		<g>
			<g>
				<rect y="32.2" class="st0" width="42" height="1.4"/>
			</g>
		</g>
		<g>
			<g>
				<rect x="15.4" y="35" class="st0" width="19.6" height="1.4"/>
			</g>
		</g>
		<g>
			<g>
				<rect x="6.3" y="35" class="st0" width="7.7" height="1.4"/>
			</g>
		</g>
		<g>
			<g>
				<rect x="23.1" y="28.7" class="st0" width="1.4" height="1.4"/>
			</g>
		</g>
		<g>
			<g>
				<rect x="26.6" y="29.4" class="st0" width="1.4" height="1.4"/>
			</g>
		</g>
		<g>
			<g>
				<rect x="19.6" y="29.4" class="st0" width="1.4" height="1.4"/>
			</g>
		</g>
		<g>
			<g>
				<rect x="20.3" y="37.8" class="st0" width="11.2" height="1.4"/>
			</g>
		</g>
		<g>
			<g>
				<rect x="9.8" y="37.8" class="st0" width="9.1" height="1.4"/>
			</g>
		</g>
		<g>
			<g>
				<rect x="16.8" y="40.6" class="st0" width="7.7" height="1.4"/>
			</g>
		</g>
		<g>
			<g>
				<path class="st0" d="M21,25.9c-1.2,0-2.4,0.1-3.6,0.3l0.2,1.4c1.1-0.2,2.3-0.2,3.4-0.2c6.1,0,11.6,2.4,13.8,6l1.2-0.7
					C33.6,28.5,27.7,25.9,21,25.9z"/>
			</g>
		</g>
		<g>
			<g>
				<path class="st0" d="M14.5,26.8c-3.9,1.1-7,3.2-8.5,5.8l1.2,0.7c1.4-2.3,4.2-4.1,7.7-5.1L14.5,26.8z"/>
			</g>
		</g>
	</g>
	<g>
		<path class="st0" d="M44.5,27c0-0.5,0-0.9,0.1-1.3c0-0.4,0.1-0.6,0.1-0.8c0-0.2,0-0.3-0.1-0.5c0-0.2,0-0.5,0.1-1
			c0-0.4,0.1-1,0.2-1.8C45,21,45,20.4,45.1,20c0.1-0.4,0.1-0.6,0.1-0.7c0-0.2,0-0.3-0.1-0.5c0-0.2-0.1-0.4-0.1-0.6L44.8,18l-0.1-0.2
			c0-0.3,0-0.5,0-0.8c0-0.3,0-0.5,0.1-0.8c0-0.3,0.1-0.6,0.1-0.9s0.1-0.5,0.2-0.6c0,0,0.1-0.1,0.1-0.2s0.1-0.2,0.1-0.3
			c0.1-0.3,0.2-0.7,0.2-1s0.2-0.7,0.3-1c0.1-0.3,0.3-0.6,0.6-0.8c0.3-0.2,0.6-0.3,0.9-0.4c0.3-0.1,0.5-0.2,0.7-0.3s0.3-0.1,0.4-0.1
			c0.1,0,0.2,0.1,0.3,0.2c0.1,0.1,0.1,0.2,0.1,0.4c0,0.1,0,0.3-0.1,0.8c-0.1,0.4-0.2,1-0.3,1.8c0,0.3-0.1,0.6-0.1,0.9
			c-0.1,0.4-0.2,0.8-0.3,1.3c-0.1,0.5-0.3,1.1-0.4,1.8c-0.1,0.6-0.3,1.4-0.4,2.1c0,0.3-0.1,0.7-0.2,1s-0.1,0.6-0.2,1
			c-0.1,0.4-0.1,0.7-0.1,1.1s-0.1,0.6-0.1,0.9c0,0.1,0,0.2,0,0.3c0,0.1,0,0.2,0,0.3c0,0.1,0,0.2,0,0.4c0,0.2,0,0.4-0.1,0.6
			c0,0.2-0.1,0.4-0.1,0.6c0,0.2,0,0.3,0,0.4c0,0.5,0,0.8,0,1.1s0,0.5,0.1,0.6c0.1,0.2,0.1,0.5,0.2,0.8c0,0.2-0.2,0.4-0.6,0.7
			s-0.7,0.5-0.9,0.5c-0.1,0-0.2,0-0.3-0.1c-0.1-0.1-0.2-0.2-0.3-0.4c-0.1-0.1-0.1-0.3-0.2-0.4s-0.1-0.2-0.1-0.3c0-0.1,0-0.1,0.1-0.3
			c0-0.1,0.1-0.2,0.1-0.3c-0.1-0.3-0.2-0.5-0.2-0.7c0,0.1,0,0.1,0-0.1C44.5,27.6,44.5,27.4,44.5,27z"/>
		<path class="st0" d="M58.3,25.9l0.6,1.3c-0.1,0.1-0.4,0.2-0.8,0.3c-0.4,0.1-1,0.1-1.7,0.2c-0.8,0.8-1.6,1.4-2.4,2
			c-0.8,0.5-1.6,0.9-2.4,1.2c-0.2,0.1-0.4,0.1-0.6,0.2c-0.1,0-0.3,0-0.5-0.1s-0.4-0.1-0.6-0.3c-0.2-0.1-0.4-0.3-0.5-0.4
			c-0.1-0.1-0.2-0.3-0.2-0.4c0-0.3,0.1-0.5,0.4-0.8c0.3-0.3,0.7-0.5,1.2-0.7c1-0.5,2-1,3-1.4c0.1,0,0.3,0,0.3,0.1
			c0.1,0.1,0.1,0.1,0.1,0.2c0,0.2-0.2,0.5-0.5,0.6c-0.4,0.2-0.5,0.3-0.5,0.4c0.1,0.1,0.1,0.1,0.2,0.1c0.1,0,0.4-0.2,0.8-0.5
			c0.4-0.4,0.6-0.6,0.6-0.7l-0.1-0.3l0-0.1c0.2-0.2,0.4-0.4,0.5-0.6s0.2-0.3,0.2-0.4c0-0.2-0.1-0.5-0.3-0.9c-0.2-0.4-0.6-0.8-1-1.4
			c-0.3-0.4-0.7-0.8-1-1.1c-0.3-0.3-0.7-0.6-1-0.9c-0.1-0.1-0.2-0.2-0.3-0.3c-0.1-0.1-0.2-0.2-0.2-0.3c-0.1-0.2-0.2-0.3-0.2-0.5
			c-0.1-0.1-0.1-0.2-0.2-0.2c0-0.1-0.1-0.1-0.2-0.2c-0.1-0.1-0.2-0.2-0.3-0.3c-0.2-0.2-0.3-0.5-0.4-0.8c-0.1-0.4-0.2-0.8-0.2-1.3
			c0-0.3,0-0.7,0.1-1c0.1-0.3,0.2-0.6,0.4-0.9c0-0.1,0.1-0.1,0.1-0.2c0-0.1,0.1-0.2,0.1-0.2c0.2-0.4,0.6-0.9,1.1-1.4
			c0.5-0.5,1.2-1,2-1.6c0.1-0.1,0.2-0.1,0.4-0.2c0.2-0.1,0.3-0.2,0.5-0.4c0.1-0.1,0.2-0.2,0.4-0.2c0.1-0.1,0.3-0.1,0.5-0.2
			c0.2-0.1,0.5-0.2,0.8-0.3c0.5-0.2,0.8-0.4,1.1-0.5c0.3-0.1,0.5-0.2,0.7-0.2c0.3,0,0.5,0.1,0.7,0.3c0.2,0.2,0.2,0.4,0.2,0.8
			c0,0.4,0,0.7-0.1,0.9s-0.1,0.4-0.2,0.5c-1.1,0.9-2,1.5-2.6,1.9c-0.7,0.4-1.1,0.7-1.4,0.7c-0.1,0-0.2,0-0.3-0.1
			c-0.1-0.1-0.1-0.2-0.1-0.3c0-0.2,0.2-0.5,0.6-0.8c0.4-0.3,0.6-0.5,0.6-0.7l-0.1-0.1c0,0-0.1,0-0.2,0c-0.1,0-0.1,0.1-0.2,0.1
			c-0.8,0.7-1.4,1.2-1.8,1.8c-0.4,0.5-0.6,1-0.6,1.4c0,0.3,0.1,0.6,0.2,0.9c0.1,0.3,0.3,0.6,0.5,1c0.1,0.2,0.4,0.5,0.6,0.9
			c0.3,0.4,0.6,0.8,1.1,1.3c0.6,0.7,1.1,1.2,1.4,1.6c0.3,0.4,0.5,0.6,0.5,0.6c0.2,0.2,0.3,0.5,0.5,0.7c0.1,0.2,0.2,0.5,0.3,0.7
			c0,0.2,0.1,0.4,0.1,0.6s0,0.6,0,0.9c0,0.2,0,0.3,0.1,0.4c0.1,0,0.2,0,0.3,0c0.1,0,0.1,0,0.1,0C58.3,26,58.3,26,58.3,25.9z"/>
		<path class="st0" d="M67.2,25.9c0.4,0.8,0.6,1.2,0.6,1.3c-0.1,0.2-0.2,0.3-0.3,0.5c-0.1,0.2-0.2,0.4-0.3,0.6
			c-0.1,0.2-0.3,0.3-0.4,0.4c-0.2,0.1-0.4,0.2-0.6,0.3c-0.3,0.1-0.6,0.3-0.9,0.4c-0.3,0.1-0.6,0.2-0.8,0.4C64,29.9,63.7,30,63.4,30
			s-0.6,0.1-0.9,0.1c-0.2,0.1-0.4,0.1-0.6,0.1c-0.2,0-0.4,0-0.5,0c-0.1,0-0.3,0-0.3,0c-0.1,0-0.2,0-0.2-0.1
			c-0.1-0.1-0.2-0.1-0.2-0.2c-0.1-0.1-0.2-0.1-0.2-0.2c-0.2-0.1-0.3-0.2-0.4-0.2c-0.1-0.1-0.2-0.2-0.2-0.6c-0.1-0.3-0.1-0.7-0.1-1.3
			c0-0.4,0.1-1,0.3-1.9s0.3-1.5,0.3-1.8c0-0.1,0-0.2,0-0.3c0-0.1,0-0.2,0-0.3c0-0.3,0.1-0.8,0.3-1.8c0.2-0.9,0.3-1.5,0.3-1.9
			c0-0.2-0.1-0.3-0.2-0.4c-0.1-0.1-0.2-0.2-0.2-0.4c0-0.2,0-0.5,0.1-0.7c0-0.3,0.1-0.6,0.2-0.9c0.1-0.3,0.1-0.5,0.2-0.8
			c0.1-0.3,0.1-0.5,0.2-0.8c0.1-0.3,0.1-0.6,0.2-0.9s0.1-0.6,0.2-0.9c0.1-0.2,0.1-0.4,0.3-0.7c0.1-0.3,0.3-0.6,0.4-1
			c0.1-0.2,0.2-0.4,0.2-0.5c0.1-0.2,0.1-0.3,0.2-0.5c0.1-0.1,0.2-0.3,0.3-0.4s0.3-0.2,0.5-0.3c0.2-0.1,0.3-0.1,0.4-0.1s0.2,0,0.3,0
			c0.2,0,0.4,0.1,0.5,0.3s0.2,0.4,0.2,0.8c0,0.1,0,0.2,0,0.4c0,0.1,0,0.3-0.1,0.5c0,0.2-0.1,0.4-0.1,0.5c0,0.1-0.1,0.2-0.1,0.3
			c0,0.2,0,0.4,0,0.6s0,0.4-0.1,0.5c-0.1,0.1-0.1,0.2-0.2,0.4c-0.1,0.4-0.1,0.8-0.2,1.1c0,0.3-0.1,0.5-0.1,0.6
			c0,0.4-0.1,0.9-0.3,1.5c-0.2,0.6-0.3,1-0.3,1.3c0,0.1,0,0.3-0.1,0.5c0,0.2-0.1,0.5-0.2,0.7c-0.1,0.4-0.2,0.7-0.2,0.9
			c-0.1,0.2-0.1,0.3-0.1,0.4c0,0.1,0,0.3-0.1,0.5c0,0.2-0.1,0.4-0.1,0.6c-0.2,1-0.4,1.8-0.5,2.5S62,26.4,62,26.7
			c0,0.3,0,0.5,0.1,0.7c0.1,0.2,0.2,0.2,0.3,0.2c0.6,0,1.2-0.1,1.8-0.2c0.6-0.1,1.2-0.3,1.9-0.6c0.1,0,0.1,0,0.2-0.1
			s0.1-0.1,0.2-0.1c0.1-0.1,0.2-0.2,0.2-0.4c0.1-0.1,0.2-0.1,0.3-0.2C67,26.1,67.1,26,67.2,25.9z"/>
		<path class="st0" d="M67.3,24.7c0-0.1,0-0.2,0-0.2c0-0.1,0-0.1,0-0.2c0-0.3,0-0.6,0.1-0.8c0.1-0.2,0.2-0.4,0.3-0.5
			c0,0,0.1-0.1,0.3-0.2c0.2-0.1,0.4-0.2,0.6-0.3c0.2-0.1,0.3-0.2,0.4-0.3s0.2-0.3,0.2-0.4c0-0.1,0.1-0.3,0.2-0.4
			c0.1-0.2,0.2-0.3,0.3-0.5c0-0.1,0.1-0.4,0.3-1c0.2-0.6,0.4-1.4,0.8-2.5c0.1-0.3,0.2-0.6,0.3-0.9s0.2-0.5,0.2-0.6
			c0.3-0.8,0.5-1.3,0.7-1.5c0.2-0.2,0.3-0.4,0.4-0.6v-0.1l-0.4-0.7l0.5-0.6l0.7-0.1c0.1,0,0.3-0.1,0.4-0.4c0.1-0.2,0.3-0.5,0.6-0.8
			c0.1,0,0.2-0.1,0.3-0.2c0.1-0.1,0.3-0.2,0.5-0.4c0.2-0.2,0.4-0.3,0.5-0.3c0.1-0.1,0.2-0.1,0.3-0.1c0.2,0,0.4,0.1,0.5,0.2
			c0.1,0.1,0.2,0.2,0.2,0.4c0,0.2-0.1,0.5-0.3,0.9s-0.3,0.7-0.3,0.9c0,0.1,0,0.2,0.1,0.2c0,0.1,0.1,0.1,0.1,0.1l1.6,0.9
			c0.1,0,0.2,0.2,0.2,0.4c0.1,0.3,0.1,0.6,0.2,1c0.1,0.4,0.1,0.7,0.1,0.9c0,0.2,0,0.4,0,0.6c-0.1,0.4-0.1,0.8-0.2,1.2
			c0.1,0.5,0.2,1.1,0.3,1.6c-0.1,0.5-0.1,1.1-0.2,1.7c0,0.1,0,0.1,0,0.1c0,0,0.1,0.1,0.1,0.1c0.2,0,0.3,0.1,0.4,0.1
			c0.1,0.1,0.1,0.2,0.1,0.3c0,0.2,0,0.3-0.1,0.4c-0.1,0.1-0.1,0.2-0.2,0.2c-0.1,0.1-0.2,0.1-0.3,0.2c-0.1,0.1-0.1,0.1-0.1,0.1
			l0.2,0.9l-0.2,2c0,0.2,0,0.4,0,0.6c0,0.3-0.1,0.6-0.1,0.9c-0.1,0.2-0.2,0.5-0.2,0.6c0,0.2-0.1,0.3-0.1,0.3c0,0.2,0.1,0.3,0.1,0.5
			c-0.1,0.2-0.1,0.5-0.2,0.7s-0.1,0.5-0.2,0.7c-0.1,0.3-0.2,0.6-0.4,0.7s-0.4,0.2-0.6,0.2c-0.1,0-0.2-0.1-0.3-0.2
			c-0.1-0.1-0.1-0.3-0.1-0.5c0-0.1,0-0.2,0-0.4c0-0.2,0-0.3,0-0.4c0-0.1,0-0.2,0-0.3c0-0.1,0-0.2,0-0.3c0-0.3,0-0.7,0.1-1.2
			c0-0.6,0.1-1,0.1-1.3c0-0.2-0.1-0.3-0.1-0.5c0-0.2,0-0.4,0.1-0.5c0-0.2,0-0.3,0-0.5l0.2-0.4l-0.2-1.3l-0.1,0c-0.1,0-0.1,0-0.2,0.1
			s-0.2,0.1-0.4,0.2c-0.1,0-0.3,0.1-0.5,0.1c-0.2,0-0.5,0.1-0.9,0.1c-0.2,0.1-0.3,0.2-0.5,0.2c-0.2,0-0.5,0.1-0.8,0.2
			c-0.3,0.1-0.7,0.3-1.1,0.4c-0.2,0.1-0.5,0.2-0.7,0.3c-0.2,0.1-0.4,0.1-0.5,0.1c-0.1,0-0.2,0-0.3,0.1C70.1,25,70,25.1,70,25.3
			c0,0.1-0.1,0.3-0.2,0.6c-0.1,0.3-0.2,0.6-0.4,1c0,0.1-0.1,0.3-0.2,0.5s-0.1,0.5-0.2,0.8c-0.1,0.1-0.1,0.3-0.2,0.4
			c-0.1,0.2-0.2,0.4-0.2,0.6c0,0.1,0,0.2,0,0.4c0,0.2-0.1,0.3-0.1,0.6c0,0.1-0.1,0.3-0.2,0.5c-0.1,0.2-0.2,0.4-0.3,0.7
			c-0.1,0.1-0.2,0.3-0.3,0.3c-0.1,0.1-0.3,0.1-0.5,0.1c-0.2,0-0.3-0.1-0.4-0.2c-0.1-0.1-0.1-0.3-0.1-0.5c0-0.2,0-0.5,0.1-0.8
			c0.1-0.3,0.1-0.6,0.3-1c0.1-0.5,0.2-0.9,0.3-1.2c0.1-0.3,0.1-0.5,0.2-0.7c0-0.1,0.1-0.2,0.1-0.3c0.1-0.2,0.1-0.4,0.2-0.6
			c0.1-0.2,0.2-0.5,0.2-0.8l-0.1-0.1l-0.4,0.1c-0.1,0-0.2-0.1-0.2-0.1s-0.1-0.2-0.1-0.3c0-0.1,0-0.1,0-0.2
			C67.2,24.9,67.2,24.8,67.3,24.7z M72.3,22.1c0.2,0,0.5-0.1,0.9-0.2s0.7-0.2,0.9-0.2c0.1,0,0.3,0.1,0.4,0.1c0.2,0,0.5-0.1,0.7-0.2
			c0.2-0.1,0.4-0.1,0.7-0.2c0.1,0,0.2-0.1,0.2-0.1s0.1-0.1,0.1-0.2c0-0.3,0-0.5,0-0.6c0-0.2,0-0.4,0-0.6c0-0.2,0.1-0.4,0.1-0.7
			l-0.2-0.6l0.1-0.6c0-0.2-0.1-0.4-0.1-0.6c0-0.2,0-0.3,0-0.4c0,0-0.1-0.1-0.1-0.2s-0.1-0.2-0.2-0.3c-0.1-0.2-0.2-0.3-0.3-0.4
			c-0.1-0.1-0.2-0.3-0.3-0.4c-0.1-0.2-0.3-0.3-0.4-0.4c-0.1-0.1-0.3-0.1-0.5-0.1c-0.2,0-0.4,0.1-0.6,0.4c-0.2,0.3-0.4,0.7-0.5,1.3
			c0,0.1-0.1,0.2-0.2,0.5s-0.3,0.5-0.5,0.9c0,0.3-0.2,0.8-0.4,1.3c-0.2,0.5-0.5,1.1-0.9,1.8c0,0.1-0.1,0.1-0.1,0.2c0,0,0,0.1,0,0.2
			c0,0.1,0,0.1,0,0.1c0,0,0.1,0,0.1,0c0.1,0,0.2,0,0.4,0C72,22.2,72.2,22.1,72.3,22.1z"/>
		<path class="st0" d="M82.8,14.8l-0.2-0.9c0.1-0.2,0.1-0.4,0.2-0.6c0.1-0.2,0.1-0.4,0.2-0.6c0.1-0.1,0.1-0.2,0.3-0.3
			c0.1-0.1,0.3-0.1,0.5-0.1c0.1,0,0.2,0,0.4-0.1c0.2,0,0.3-0.1,0.4-0.1c0.1,0,0.2,0.1,0.3,0.2c0.1,0.1,0.2,0.2,0.3,0.2
			c0.1,0,0.1-0.1,0.2-0.2c0.1-0.1,0.2-0.3,0.4-0.4c0.1-0.1,0.2-0.3,0.3-0.4s0.2-0.2,0.4-0.2c0.1,0.1,0.3,0.1,0.4,0.2
			c0.1,0,0.1,0.1,0.1,0.1c0,0,0,0.1,0,0.2c0,0,0,0.1-0.1,0.3c0,0.2-0.1,0.4-0.2,0.6c-0.1,0.3-0.2,0.5-0.2,0.7
			c-0.1,0.2-0.1,0.3-0.1,0.4c-0.1,0.2-0.2,0.4-0.3,0.6s-0.1,0.3-0.1,0.5c0,0.2,0.1,0.5,0.2,0.8c0.1,0.4,0.3,0.8,0.5,1.4
			c0.3,0.7,0.6,1.5,0.9,2.3c0.3,0.9,0.6,1.7,0.9,2.6c0.3,0.8,0.6,1.6,0.9,2.4c0.3,0.8,0.6,1.4,0.8,1.8c0.2,0.4,0.4,0.6,0.5,0.6
			c0.1,0,0.2-0.1,0.2-0.2c0-0.1,0.1-0.3,0.1-0.5c0-0.1,0-0.2,0-0.4c0-0.1,0.1-0.3,0.1-0.5c0.1-0.2,0.2-0.5,0.2-0.8
			c0.1-0.5,0.2-0.9,0.3-1.3c0.1-0.4,0.1-0.7,0.2-0.9c0-0.2,0.1-0.5,0.1-1c0-0.5,0.1-1.3,0.1-2.2c0-0.1,0-0.2,0-0.4
			c0-0.2,0.1-0.4,0.1-0.6c0-0.2,0.1-0.4,0.1-0.5c0-0.2,0-0.3,0-0.4c0-0.2,0-0.5-0.1-0.9c0-0.4-0.1-0.7-0.1-0.9
			c0.1-0.6,0.3-1.1,0.4-1.7c0.1-0.5,0.2-0.9,0.3-1.2c0.1-0.3,0.2-0.6,0.2-0.7c0.1-0.3,0.3-0.6,0.5-0.9s0.4-0.4,0.7-0.6h0.1
			c0.1,0,0.2,0,0.2,0.1c0,0,0,0.1,0,0.2c0,0.2-0.1,0.3-0.1,0.4c0,0.2,0.1,0.3,0.1,0.5c0,0.2-0.1,0.4-0.1,0.6c0,0.1,0,0.3-0.1,0.5
			c0,0.2,0,0.5,0,0.8c0,0.1,0,0.3,0,0.7c0,0.4-0.1,0.8-0.2,1.5c-0.1,0.9-0.1,1.7-0.2,2.6s-0.2,1.7-0.2,2.6c-0.1,1-0.2,2-0.3,2.8
			s-0.3,1.6-0.5,2.3c0,0.4-0.1,0.9-0.3,1.3c-0.1,0.5-0.3,1-0.5,1.6l-0.4,0.7c0,0-0.3,0.2-0.9,0.4s-0.9,0.3-0.9,0.3
			c-0.1,0-0.3-0.2-0.6-0.5s-0.6-0.9-1-1.7C88,27,87.7,26.4,87.5,26c-0.2-0.4-0.3-0.8-0.4-1c0-0.1,0-0.2-0.1-0.3
			c0-0.1-0.1-0.3-0.1-0.4c-0.2-0.4-0.4-0.9-0.7-1.5c-0.3-0.6-0.6-1.3-1-2.1c-0.1-0.2-0.1-0.4-0.2-0.6s-0.2-0.4-0.4-0.6l-0.1,0
			c-0.1,0.2-0.1,0.4-0.2,0.7s-0.1,0.6-0.2,1c-0.1,0.2-0.2,0.5-0.3,0.7c-0.1,0.5-0.3,1.1-0.5,1.7c-0.2,0.6-0.4,1.3-0.6,2
			c-0.1,0.2-0.1,0.5-0.2,0.7c-0.1,0.3-0.1,0.5-0.2,0.8l-0.2,0.5c0,0.3-0.1,0.5-0.1,0.8c-0.1,0.2-0.1,0.5-0.2,0.8
			c-0.1,0.3-0.2,0.7-0.4,1.1c0,0.2-0.1,0.4-0.2,0.5s-0.3,0.2-0.4,0.2c0,0-0.1,0.1-0.1,0.1c-0.1,0-0.1,0.1-0.3,0.1
			c-0.1,0-0.2,0-0.2-0.1c0-0.1-0.1-0.3-0.1-0.5c0-0.1,0-0.3,0.1-0.6s0.1-0.6,0.2-1c0.1-0.5,0.2-0.9,0.2-1.1c0.1-0.3,0.1-0.4,0.1-0.5
			c0-0.2,0.1-0.5,0.1-0.9c0-0.4,0.1-0.8,0.2-1.2c0-0.1,0-0.3,0.1-0.4s0.1-0.4,0.2-0.6c0-0.2,0.1-0.7,0.3-1.5s0.3-1.9,0.5-3.4
			C82.4,17.7,82.6,16.3,82.8,14.8z"/>
		<path class="st0" d="M108,25.9c0.2,0.5,0.4,0.9,0.5,1.3c-0.2,0.2-0.4,0.4-0.7,0.5c-0.3,0.2-0.7,0.3-1.1,0.4
			c-0.1,0-0.2,0.1-0.4,0.1s-0.3,0.1-0.5,0.1c-0.3,0-0.6,0-1,0.1c-0.4,0-0.8,0.1-1.3,0.2c-0.7,0.6-1.4,1-1.9,1.3
			c-0.6,0.3-1,0.5-1.4,0.6l-0.2,0.2c-0.3,0.1-0.7,0.3-1.1,0.3c-0.4,0.1-1,0.2-1.6,0.2c-0.1,0-0.2-0.1-0.3-0.2
			c-0.1-0.1-0.2-0.3-0.4-0.4c0.1-0.1,0.2-0.2,0.3-0.4c0.1-0.2,0.3-0.4,0.5-0.6c0.1-0.2,0.3-0.4,0.5-0.5s0.4-0.2,0.7-0.3
			c0.3-0.1,0.6-0.2,1-0.3c0.1-0.1,0.2-0.1,0.3-0.2s0.3-0.2,0.4-0.3c0.2-0.1,0.4-0.2,0.7-0.4s0.5-0.4,0.8-0.7
			c0.4-0.4,0.7-0.6,0.9-0.9c0.2-0.2,0.4-0.4,0.4-0.4c0.1-0.1,0.2-0.2,0.2-0.4c0.1-0.1,0.2-0.2,0.3-0.3c0.1-0.2,0.3-0.5,0.5-0.8
			s0.4-0.7,0.7-1.2c0,0,0.1-0.1,0.2-0.2c0.1-0.1,0.1-0.2,0.2-0.3c0.2-0.2,0.3-0.5,0.4-1c0.1-0.4,0.1-1,0.1-1.6
			c0-0.4-0.1-0.9-0.3-1.3c-0.2-0.5-0.5-0.9-1-1.5c-0.4-0.4-0.8-0.8-1.2-1.1c-0.4-0.3-0.8-0.6-1.3-0.8c-0.3-0.2-0.6-0.3-0.9-0.5
			c-0.3-0.2-0.6-0.3-0.8-0.4c-0.1,0.5-0.3,1.1-0.5,1.9c-0.2,0.8-0.4,1.8-0.7,2.9c-0.3,1.3-0.5,2.4-0.6,3.2c-0.1,0.8-0.2,1.3-0.2,1.6
			c-0.1,0.2-0.1,0.5-0.1,0.7l-0.6,2.7c-0.3,0.6-0.6,1.1-0.8,1.4c-0.2,0.3-0.4,0.5-0.5,0.5c-0.1,0-0.1-0.1-0.2-0.2
			c-0.1-0.1-0.1-0.3-0.2-0.5l0.2-0.8c0-0.1-0.1-0.1-0.1-0.2c0.1-0.6,0.1-1.2,0.2-1.8s0.1-1.2,0.2-1.8c0-0.7,0.1-1.3,0.2-1.9
			s0.2-1.1,0.3-1.7l-0.2-0.7c0.1-0.2,0.1-0.4,0.2-0.6s0.1-0.6,0.1-0.9c0-0.4,0.1-0.8,0.1-1s0.1-0.4,0.1-0.5c0-0.1,0.1-0.3,0.1-0.5
			c0-0.2,0.1-0.4,0.1-0.7c0-0.1,0.2-0.3,0.5-0.6c0.3-0.3,0.5-0.5,0.6-0.7c0.2,0,0.3-0.1,0.4-0.1c0.1-0.1,0.1-0.1,0.1-0.2
			c0-0.1-0.1-0.1-0.2-0.2s-0.3-0.1-0.5-0.1c-0.1,0-0.2,0-0.4,0c-0.1,0-0.3-0.1-0.4-0.1L96.5,13c-0.2-0.1-0.4-0.2-0.5-0.3
			c-0.1-0.1-0.2-0.2-0.2-0.3c0.1-0.2,0.1-0.4,0.1-0.6c-0.1-0.2-0.1-0.3-0.2-0.5c0-0.1-0.1-0.2-0.1-0.3c0-0.1,0-0.1,0.1-0.2
			c0,0,0.1-0.1,0.2-0.1c0.3,0,0.5,0.1,0.7,0.1c0.1,0,0.2-0.1,0.3-0.1s0.2-0.1,0.3-0.1c0.2,0,0.4,0,0.6,0c0.2,0,0.3,0.1,0.4,0.1
			c0.1,0.1,0.3,0.1,0.4,0.2c0.1,0.1,0.3,0.1,0.4,0.2c0.1,0,0.3,0,0.4-0.1c0.1,0,0.1,0,0.2,0c0.1,0.1,0.2,0.1,0.4,0.2
			c0.2,0.1,0.3,0.1,0.5,0.2c0.2,0,0.4,0.1,0.6,0.1c0.2,0,0.3,0.1,0.4,0.1c1,0.5,1.8,1,2.6,1.4s1.3,0.9,1.8,1.3
			c0.8,0.7,1.3,1.4,1.7,2.1c0.4,0.7,0.5,1.5,0.5,2.3c0,1.3-0.4,2.6-1.1,4.1c-0.8,1.4-1.9,3-3.4,4.5c0.1-0.1,0.3-0.1,0.5-0.2
			s0.5-0.1,0.7-0.2c0.6-0.1,1.2-0.3,1.8-0.4c0.4-0.1,0.7-0.2,1-0.4S107.9,26.1,108,25.9z"/>
	</g>
	<g>
		<g>
			<path class="st0" d="M113.7,18.8c-0.6,0-1.2-0.2-1.6-0.6c-0.4-0.4-0.8-0.9-1.1-1.5c-0.2-0.3-0.3-0.6-0.4-0.9
				c-0.1-0.3-0.3-0.6-0.4-0.9c-0.1-0.1-0.1-0.3-0.2-0.4c0.3-0.5,0.7-1.4,1-1.8c0.3-0.5,0.7-0.9,1.1-1.4c0.4-0.4,0.8-0.8,1.3-1.2
				c0.2-0.2,0.4-0.3,0.6-0.4c0,0,0.1,0,0.1,0.1c0,0,0,0,0,0c0,0,0,0,0,0c0,0,0.1,0,0.1,0c0.1,0.1,0.1,0.2,0.1,0.4c0,0.2,0,0.3,0,0.5
				c0,0.2-0.1,0.3-0.2,0.5c-0.1,0.2-0.2,0.3-0.4,0.5c0.2,0,0.4-0.1,0.6-0.3c0.2-0.1,0.3-0.3,0.4-0.6c0.1-0.2,0-0.5-0.1-0.7
				c0,0,0-0.1-0.1-0.1c0.2,0.1,0.4,0.2,0.6,0.3c0.3,0.2,0.6,0.5,0.7,0.8c0.2,0.3,0.3,0.7,0.4,1.1c0.1,0.4,0.1,0.8,0.2,1.3
				c0.3-0.4,0.4-0.9,0.4-1.3c0-0.5,0-1-0.3-1.5c-0.3-0.5-0.7-0.8-1.2-1c-0.4-0.1-0.8-0.1-1.2,0c0,0,0,0,0,0c0,0,0,0,0,0c0,0,0,0,0,0
				c0,0,0,0,0,0c0,0,0.1,0,0.1,0c0.4-0.1,0.9-0.1,1.2-0.1c0.4,0,0.7,0.1,1,0.3c0.3,0.2,0.6,0.4,0.9,0.7c0.3,0.3,0.5,0.7,0.9,1
				c0-0.5-0.1-0.9-0.3-1.4c-0.2-0.4-0.5-0.8-1-1.1c-0.5-0.3-1-0.3-1.5-0.2c-0.2,0-0.3,0.1-0.4,0.2c0.1-0.1,0.1-0.1,0.1-0.2
				c0.3-0.4,0.4-1,0.3-1.5c-0.1-0.5-0.4-1-0.7-1.3c-0.3-0.3-0.7-0.6-1.2-0.8c0.2,0.4,0.5,0.8,0.7,1.1c0.2,0.4,0.3,0.7,0.4,1.1
				c0.1,0.4,0,0.7-0.1,1.1c-0.1,0.3-0.2,0.6-0.4,0.9c0.1-0.3,0.2-0.7,0.1-1.1c-0.1-0.5-0.4-1-0.8-1.3c-0.4-0.3-0.9-0.5-1.4-0.5
				c-0.5,0-1,0-1.4,0.2c0.4,0.2,0.9,0.3,1.3,0.4c0.4,0.1,0.7,0.3,1,0.5c0.3,0.2,0.5,0.5,0.7,0.9c0.1,0.2,0.2,0.4,0.2,0.6
				c-0.1-0.1-0.3-0.2-0.5-0.2c-0.2,0-0.5,0-0.7,0.1c-0.2,0.1-0.4,0.2-0.5,0.4c0.2,0,0.4-0.1,0.6-0.1c0.2,0,0.4-0.1,0.5,0
				c0.2,0,0.3,0.1,0.5,0.2c0.1,0,0.1,0.1,0.2,0.1c-0.2,0.1-0.5,0.2-0.7,0.3c-0.5,0.3-1.1,0.6-1.6,1c-0.5,0.4-1,0.8-1.4,1.2
				c-0.3,0.3-0.7,0.8-1,1.3c-0.1-0.1-0.2-0.2-0.3-0.3c-0.5-0.6-1.1-1-1.8-1.4s-1.4-0.6-2.1-0.7c-0.7-0.1-1.4-0.1-2.1,0
				c1.4,0.3,2.6,0.9,3.6,1.6c1,0.8,1.8,1.8,2.4,2.9c0.1,0.3,0.3,0.6,0.4,1c0.2,0.3,0.3,0.6,0.6,1c0.4,0.6,0.9,1.2,1.6,1.7
				c0.3,0.2,0.7,0.4,1.1,0.5c0.4,0.1,0.8,0.1,1.2,0c0.7-0.2,1.4-0.5,2-0.9C115,18.7,114.3,18.9,113.7,18.8z"/>
		</g>
		<g>
			<path class="st0" d="M105,7.2c0.3-0.3,0.7-0.5,1.1-0.4c0.3,0.1,0.6,0.2,0.9,0.5c0,0,0,0,0,0c0,0,0,0,0,0c0,0,0,0,0,0c0,0,0,0,0,0
				c0,0,0-0.1-0.1-0.1c-0.3-0.3-0.6-0.5-0.9-0.6c-0.3-0.1-0.6-0.2-0.8-0.2c-0.3,0-0.5,0.2-0.8,0.3c-0.3,0.2-0.6,0.4-0.9,0.6
				c0.1-0.4,0.3-0.8,0.6-1.1c0.3-0.3,0.6-0.6,1-0.6c0.4-0.1,0.9,0.1,1.2,0.4c0.1,0.1,0.2,0.2,0.3,0.3c0-0.1,0-0.2-0.1-0.2
				c-0.1-0.5-0.1-1.1,0.1-1.5c0.2-0.4,0.5-0.8,0.8-0.9c0.3-0.2,0.7-0.2,1.1-0.2c-0.3,0.3-0.5,0.5-0.8,0.8c-0.2,0.3-0.4,0.5-0.6,0.8
				c-0.1,0.3-0.2,0.6-0.2,1c0,0.3,0,0.7,0.1,1c0-0.4,0-0.8,0.2-1.1c0.2-0.4,0.5-0.8,0.9-0.9c0.4-0.1,0.8-0.1,1.2,0.1
				c0.4,0.2,0.7,0.4,1,0.8c-0.4,0-0.7-0.1-1-0.1c-0.3,0-0.6,0-0.9,0.1c-0.3,0.1-0.5,0.3-0.7,0.5c-0.1,0.1-0.2,0.3-0.3,0.5
				c0.1,0,0.3,0,0.4,0c0.2,0.1,0.3,0.2,0.5,0.4c0.1,0.2,0.2,0.4,0.3,0.6c-0.1-0.1-0.3-0.3-0.4-0.4c-0.1-0.1-0.3-0.2-0.4-0.3
				c-0.1-0.1-0.3-0.1-0.4,0c-0.1,0-0.1,0-0.2,0.1c0.2,0.2,0.3,0.4,0.5,0.6c0.3,0.5,0.7,1,0.9,1.6s0.5,1.1,0.8,1.7
				c0.2,0.6,0.5,1.7,0.7,2.4l-1,0.2c-0.1-0.6-0.3-1.7-0.4-2.3c-0.1-0.6-0.3-1.2-0.5-1.7c-0.2-0.6-0.4-1.1-0.7-1.7
				c-0.1-0.2-0.2-0.5-0.4-0.7c0,0-0.1,0-0.1,0c0,0,0,0,0,0c0,0,0,0,0,0c0,0,0,0-0.1,0c-0.1,0.1-0.1,0.2-0.2,0.3
				c-0.1,0.1-0.1,0.3-0.1,0.5c0,0.2,0,0.3,0.1,0.5c0,0.2,0.1,0.4,0.2,0.6c-0.1-0.1-0.3-0.3-0.4-0.5c-0.1-0.2-0.2-0.4-0.2-0.7
				c0-0.2,0.1-0.5,0.2-0.6c0,0,0.1-0.1,0.1-0.1c-0.2,0-0.3,0-0.5,0.1c-0.3,0.1-0.5,0.2-0.7,0.4c-0.2,0.2-0.4,0.5-0.5,0.9
				c-0.2,0.3-0.3,0.7-0.5,1.1c-0.1-0.5-0.1-1,0-1.4C104.5,7.9,104.7,7.5,105,7.2z"/>
		</g>
	</g>
</g>
</svg>
