<?xml version="1.0" encoding="utf-8"?>
<!-- Generator: Adobe Illustrator 23.0.1, SVG Export Plug-In . SVG Version: 6.00 Build 0)  -->
<svg version="1.1" id="Layer_1" xmlns="http://www.w3.org/2000/svg" xmlns:xlink="http://www.w3.org/1999/xlink" x="0px" y="0px"
	 viewBox="0 0 25 25" style="enable-background:new 0 0 25 25;" xml:space="preserve">
<style type="text/css">
	.st0{fill:#004F76;}
</style>
<g>
	<g>
		<g>
			<path class="st0" d="M7.4,7.9c-0.3-1.1-1.1-2-2.2-2.4C4.1,5.1,2.8,5.2,1.8,5.9C1.7,6.1,1.7,6.2,1.7,6.4S1.8,6.6,2,6.7l5,1.7
				c0.1,0,0.1,0,0.1,0c0.1,0,0.2-0.1,0.3-0.1C7.4,8.2,7.4,8,7.4,7.9z M3.1,6.2C3.7,6.1,4.4,6.1,5,6.3c0.5,0.2,1,0.5,1.3,1L3.1,6.2z"
				/>
		</g>
	</g>
	<g>
		<g>
			<path class="st0" d="M7.3,7.6C6.3,7,5,7,3.8,7.7c-1.1,0.6-1.8,1.7-1.8,2.8c0,0.1,0.1,0.3,0.2,0.4c0.1,0.1,0.1,0.1,0.2,0.1
				c0.1,0,0.1,0,0.2-0.1l4.6-2.5c0.1-0.1,0.2-0.2,0.2-0.4C7.4,7.8,7.4,7.7,7.3,7.6z M3.1,9.7c0.2-0.5,0.7-0.9,1.2-1.3
				C4.7,8.1,5.2,8,5.6,8C5.8,8,5.9,8,6,8.1L3.1,9.7z"/>
		</g>
	</g>
	<g>
		<g>
			<path class="st0" d="M7.2,8.4L6.9,7.6c-1.2,0.5-2,1.3-2.3,2.3C4.1,11.5,5,13,5,13.1c0.1,0.1,0.2,0.2,0.4,0.2h0.1
				c0.2,0,0.3-0.1,0.4-0.3l1.4-4L6.4,8.7C6.6,8.6,6.9,8.5,7.2,8.4z M5.3,11.7c-0.1-0.5-0.2-1,0-1.6c0.2-0.5,0.5-0.9,0.9-1.3
				L5.3,11.7z"/>
		</g>
	</g>
	<g>
		<g>
			<path class="st0" d="M9.4,2.7C9.3,2.6,9.2,2.5,9,2.6C8.9,2.6,7.3,3,6.6,4.4C6,5.4,6.1,6.6,6.7,8.1C6.7,8.3,6.9,8.4,7,8.4l0,0
				c0.2,0,0.3-0.1,0.4-0.2l2.1-5C9.5,3,9.5,2.8,9.4,2.7z M7.1,6.7C7,6,7,5.3,7.3,4.8C7.6,4.3,8,4,8.3,3.8L7.1,6.7z"/>
		</g>
	</g>
	<g>
		<g>
			<path class="st0" d="M11.8,5.5c-1.1-0.6-2.3-0.7-3.3-0.1C7.5,5.9,6.9,6.8,6.7,7.9c0,0.2,0.1,0.3,0.2,0.4C6.9,8.4,7,8.4,7.1,8.4
				c0.1,0,0.1,0,0.2-0.1l4.6-2.1c0.1-0.1,0.2-0.2,0.2-0.4C12,5.8,11.9,5.6,11.8,5.5z M7.7,7.2C8,6.7,8.3,6.4,8.8,6.1
				c0.4-0.2,0.8-0.2,1.1-0.2c0.2,0,0.4,0,0.5,0.1L7.7,7.2z"/>
		</g>
	</g>
	<g>
		<g>
			<path class="st0" d="M12.4,9.5c-0.3-1.1-1.1-2-2.1-2.4C9.2,6.7,7.9,6.9,6.8,7.6l0.5,0.7C8.1,7.7,9.1,7.5,10,7.9
				c0.5,0.2,1,0.5,1.3,1L8.2,7.9L8,8.7l4,1.2c0.1,0,0.1,0,0.1,0c0.1,0,0.2-0.1,0.3-0.1C12.4,9.8,12.4,9.7,12.4,9.5z"/>
		</g>
	</g>
	<g>
		<g>
			<path class="st0" d="M7,8.1L6.3,8.6c0,0.1,2.4,3.7,2,9.3l0.8,0.1C9.5,12,7.1,8.3,7,8.1z"/>
		</g>
	</g>
	<g>
		<g>
			<path class="st0" d="M8.2,7.7L7.6,8.2c0,0.1,2.4,3.3,2.4,9.3h0.8C10.8,11.2,8.3,7.8,8.2,7.7z"/>
		</g>
	</g>
	<g>
		<g>
			<path class="st0" d="M20.5,2.6c-0.4-0.2-0.8-0.4-1.2-0.4c-2-0.3-3.8,1.1-4.1,3c0,0.2,0.1,0.3,0.2,0.4c0.1,0.1,0.2,0.1,0.2,0.1
				c0.1,0,0.1,0,0.2-0.1l4.7-2.3c0.2-0.1,0.3-0.2,0.3-0.4C20.7,2.9,20.6,2.7,20.5,2.6z M16.3,4.5C16.7,3.6,17.7,3,18.7,3
				C18.9,3,19,3,19.2,3h0.1L16.3,4.5z"/>
		</g>
	</g>
	<g>
		<g>
			<path class="st0" d="M20.7,7.1c-0.1-1.1-0.9-2-2-2.5c-1.2-0.5-2.5-0.3-3.4,0.4c-0.1,0.1-0.2,0.2-0.2,0.4c0,0.1,0.1,0.3,0.2,0.3
				l4.7,1.8c0.1,0,0.1,0,0.1,0c0.1,0,0.2-0.1,0.2-0.1C20.6,7.4,20.7,7.2,20.7,7.1z M16.6,5.2c0.6-0.2,1.2-0.2,1.8,0.1
				c0.6,0.2,1,0.7,1.2,1.1L16.6,5.2z"/>
		</g>
	</g>
	<g>
		<g>
			<path class="st0" d="M18.3,6.9c-0.4-0.9-1.3-1.7-2.6-2l-0.2,0.8c1.1,0.3,1.7,0.8,2.1,1.5c0.2,0.5,0.2,1.2,0.2,1.7l-1.4-2.7
				l-0.8,0.4l1.9,3.6c0.1,0.1,0.2,0.2,0.4,0.2l0,0c0.2,0,0.3-0.1,0.4-0.2C18.2,10.1,19,8.5,18.3,6.9z"/>
		</g>
	</g>
	<g>
		<g>
			<path class="st0" d="M15.5,1.7c-0.9-1.4-2.6-1.6-2.7-1.6c-0.2,0-0.3,0.1-0.4,0.2c-0.1,0.1-0.1,0.3,0,0.4l2.7,4.8
				c0.1,0.1,0.2,0.2,0.4,0.2h0.1c0.2,0,0.3-0.1,0.4-0.3C16.3,3.9,16.2,2.7,15.5,1.7z M15.3,4.1l-1.6-2.9c0.4,0.2,0.8,0.5,1.2,0.9
				C15.2,2.7,15.4,3.3,15.3,4.1z"/>
		</g>
	</g>
	<g>
		<g>
			<path class="st0" d="M15.9,5.2c-0.3-1.1-1.1-1.9-2.1-2.2c-1.1-0.4-2.3-0.2-3.3,0.5c-0.1,0.1-0.2,0.2-0.2,0.4
				c0,0.2,0.1,0.3,0.3,0.4l4.7,1.5c0.1,0,0.1,0,0.1,0c0.1,0,0.2-0.1,0.3-0.1C15.9,5.5,16,5.3,15.9,5.2z M11.8,3.7
				c0.5-0.2,1.1-0.2,1.7,0c0.5,0.2,0.9,0.5,1.2,0.9L11.8,3.7z"/>
		</g>
	</g>
	<g>
		<g>
			<path class="st0" d="M12.9,5.6c0.7-0.4,1.6-0.4,2.4,0.1L15.7,5c-1.1-0.6-2.2-0.6-3.2-0.1s-1.6,1.5-1.8,2.7c0,0.1,0.1,0.3,0.2,0.4
				c0.1,0.1,0.2,0.1,0.2,0.1c0.1,0,0.1,0,0.2-0.1l3.5-1.5l-0.3-0.8l-2.8,1.1C12,6.3,12.4,5.8,12.9,5.6z"/>
		</g>
	</g>
	<g>
		<g>
			<path class="st0" d="M16.6,5.9l-0.8-0.4c-1.4,3.2-2.1,6.7-1.8,10.3l0.8-0.1C14.7,12.4,15.3,9,16.6,5.9z"/>
		</g>
	</g>
	<g>
		<g>
			<path class="st0" d="M15.5,5.3l-0.7-0.4c-1.8,3.4-2.6,7.2-2.4,10.9l0.8-0.1C13,12.1,13.8,8.5,15.5,5.3z"/>
		</g>
	</g>
	<g>
		<g>
			<rect x="0" y="19.1" class="st0" width="24.8" height="0.8"/>
		</g>
	</g>
	<g>
		<g>
			<rect x="9.1" y="20.8" class="st0" width="11.6" height="0.8"/>
		</g>
	</g>
	<g>
		<g>
			<rect x="3.7" y="20.8" class="st0" width="4.6" height="0.8"/>
		</g>
	</g>
	<g>
		<g>
			<rect x="13.7" y="17.1" class="st0" width="0.8" height="0.8"/>
		</g>
	</g>
	<g>
		<g>
			<rect x="15.7" y="17.5" class="st0" width="0.8" height="0.8"/>
		</g>
	</g>
	<g>
		<g>
			<rect x="11.6" y="17.5" class="st0" width="0.8" height="0.8"/>
		</g>
	</g>
	<g>
		<g>
			<rect x="12" y="22.4" class="st0" width="6.6" height="0.8"/>
		</g>
	</g>
	<g>
		<g>
			<rect x="5.8" y="22.4" class="st0" width="5.4" height="0.8"/>
		</g>
	</g>
	<g>
		<g>
			<rect x="9.9" y="24.1" class="st0" width="4.6" height="0.8"/>
		</g>
	</g>
	<g>
		<g>
			<path class="st0" d="M12.4,15.4c-0.7,0-1.4,0.1-2.1,0.2l0.1,0.8c0.7-0.1,1.4-0.1,2-0.1c3.6,0,6.9,1.4,8.2,3.5l0.7-0.4
				C19.9,16.9,16.4,15.4,12.4,15.4z"/>
		</g>
	</g>
	<g>
		<g>
			<path class="st0" d="M8.6,15.9c-2.3,0.7-4.1,1.9-5,3.4l0.7,0.4c0.8-1.4,2.5-2.4,4.6-3L8.6,15.9z"/>
		</g>
	</g>
</g>
</svg>
