<?xml version="1.0" standalone="no"?>
<!DOCTYPE svg PUBLIC "-//W3C//DTD SVG 1.1//EN" "http://www.w3.org/Graphics/SVG/1.1/DTD/svg11.dtd" >
<svg xmlns="http://www.w3.org/2000/svg" xmlns:xlink="http://www.w3.org/1999/xlink" version="1.1">
<metadata>
Created by FontForge 20190801 at Fri Mar 27 10:09:03 2020
 By www-data
Copyright (c) 2020 by Sofia Mohr. All rights reserved.
</metadata>
<defs>
<font id="latinotypeaguilathin" horiz-adv-x="0" >
  <font-face 
    font-family="latinotypeaguilathin"
    font-weight="250"
    font-stretch="normal"
    units-per-em="1000"
    panose-1="0 0 3 0 0 0 0 0 0 0"
    ascent="800"
    descent="-200"
    x-height="500"
    cap-height="679"
    bbox="-744 -263 2207 967"
    underline-thickness="50"
    underline-position="-100"
    unicode-range="U+0020-FB02"
  />
<missing-glyph horiz-adv-x="530" 
d="M50 730h430v-730h-430v730zM115 695l150 -287l150 287h-300zM243 365l-153 292v-584zM288 365l152 -292v584zM265 322l-150 -287h300z" />
    <glyph glyph-name="fi" unicode="fi" horiz-adv-x="535" 
d="M441 500v-500h-34v486h-262v-486h-34v486h-84v14h84q3 256 192 256q70 0 111 -18v-36q-47 40 -109 40q-81 0 -120.5 -57t-39.5 -185h296z" />
    <glyph glyph-name="fl" unicode="fl" horiz-adv-x="543" 
d="M415 720h34v-720h-34v701q-40 20 -93 20q-79 0 -128 -48t-49 -144v-29h184v-14h-184v-486h-34v486h-84v14h84q0 121 60 178t153 57q41 0 91 -15z" />
    <glyph glyph-name="f_f_i" unicode="ffi" horiz-adv-x="818" 
d="M724 500v-500h-34v486h-262v-486h-34v486h-249v-486h-34v486h-84v14h84q0 120 52.5 177.5t130.5 57.5q42 0 79 -18.5t53 -54.5q46 94 160 94q70 0 111 -18v-36q-47 40 -109 40q-81 0 -120.5 -57t-39.5 -185h296zM394 500q2 85 22 141q-30 80 -124 80q-64 0 -105.5 -48.5
t-41.5 -143.5v-29h249z" />
    <glyph glyph-name="f_f_l" unicode="ffl" horiz-adv-x="818" 
d="M690 720h34v-720h-34v701q-40 20 -93 20q-79 0 -128 -48t-49 -144v-29h184v-14h-184v-486h-34v486h-241v-486h-34v486h-84v14h84q0 120 52.5 177.5t130.5 57.5q44 0 81 -20t53 -59q56 79 171 79q41 0 91 -15zM386 500q0 85 31 139q-30 82 -125 82q-64 0 -105.5 -48.5
t-41.5 -143.5v-29h241z" />
    <glyph glyph-name=".notdef" horiz-adv-x="530" 
d="M50 730h430v-730h-430v730zM115 695l150 -287l150 287h-300zM243 365l-153 292v-584zM288 365l152 -292v584zM265 322l-150 -287h300z" />
    <glyph glyph-name=".null" 
 />
    <glyph glyph-name="nonmarkingreturn" horiz-adv-x="333" 
 />
    <glyph glyph-name="space" unicode=" " horiz-adv-x="266" 
 />
    <glyph glyph-name="exclam" unicode="!" horiz-adv-x="224" 
d="M103 145l-9 535h36l-11 -535h-16zM112 -14q-15 0 -25.5 10.5t-10.5 25.5t10.5 25.5t25.5 10.5t25.5 -10.5t10.5 -25.5t-10.5 -25.5t-25.5 -10.5z" />
    <glyph glyph-name="quotedbl" unicode="&#x22;" horiz-adv-x="331" 
d="M82 506l-19 214h48l-19 -214h-10zM239 506l-19 214h48l-19 -214h-10z" />
    <glyph glyph-name="numbersign" unicode="#" horiz-adv-x="689" 
d="M654 450h-158l-38 -205h155v-14h-158l-43 -231h-14l43 231h-240l-43 -231h-14l43 231h-152v14h155l38 205h-152v14h155l44 235h14l-44 -235h240l44 235h14l-44 -235h155v-14zM444 245l38 205h-240l-38 -205h240z" />
    <glyph glyph-name="dollar" unicode="$" horiz-adv-x="515" 
d="M472 158q0 -75 -58.5 -120.5t-146.5 -51.5v-59h-16v58h-5q-57 0 -113.5 13.5t-83.5 26.5v33q68 -59 199 -59h3v320l-35 14q-79 32 -116.5 68.5t-37.5 104.5q0 69 54.5 106t134.5 42v61h16v-60h7q41 0 85 -10.5t67 -22.5v-33q-56 52 -153 52h-6v-292l32 -13
q43 -17 67.5 -29.5t52.5 -33.5t40.5 -49t12.5 -66zM234 362l17 -7v285q-69 -3 -114.5 -33.5t-45.5 -91.5q0 -57 34.5 -89.5t108.5 -63.5zM267 0q75 4 124.5 41t49.5 96q0 68 -39 103t-120 67l-15 6v-313z" />
    <glyph glyph-name="percent" unicode="%" horiz-adv-x="813" 
d="M190 325q-64 0 -109.5 46t-45.5 118t45 119t110 47t110 -47t45 -119t-45.5 -118t-109.5 -46zM243 0l321 655h15l-320 -655h-16zM190 338q55 0 89 42t34 109q0 71 -34 112t-89 41t-89 -41t-34 -112q0 -67 34 -109t89 -42zM624 -15q-64 0 -109.5 46t-45.5 118t45 119
t110 47t110 -47t45 -119t-45.5 -118t-109.5 -46zM624 -2q55 0 89 42t34 109q0 71 -34 112t-89 41t-89 -41t-34 -112q0 -67 34 -109t89 -42z" />
    <glyph glyph-name="ampersand" unicode="&#x26;" horiz-adv-x="599" 
d="M562 296q-17 -137 -78 -213l60 -83h-39l-42 59q-78 -75 -211 -75q-98 0 -153 49.5t-55 123.5q0 17 3 33t11.5 31t15 26.5t21.5 26t23 23t28 22.5t27.5 19.5t30.5 21t29 19.5q-59 82 -77 118t-18 75q0 51 38.5 86.5t104.5 35.5q64 0 103 -30t39 -87q0 -51 -39.5 -94.5
t-116.5 -95.5l209 -291q52 74 52 200h34zM281 680q-52 0 -79.5 -29t-27.5 -70q0 -42 15.5 -74t69.5 -109q67 44 97.5 82.5t30.5 89.5q0 110 -106 110zM262 -1q125 0 193 71l-214 299q-85 -60 -113 -92q-48 -54 -48 -120q0 -72 50 -115t132 -43z" />
    <glyph glyph-name="quotesingle" unicode="'" horiz-adv-x="174" 
d="M80 506l-15 214h44l-15 -214h-14z" />
    <glyph glyph-name="parenleft" unicode="(" horiz-adv-x="259" 
d="M220 -121q-74 78 -118 186t-44 233q0 126 44 235t118 187h14q-140 -177 -140 -422q0 -242 140 -419h-14z" />
    <glyph glyph-name="parenright" unicode=")" horiz-adv-x="259" 
d="M25 -121q140 177 140 419q0 245 -140 422h14q74 -78 118 -187t44 -235q0 -125 -44 -233t-118 -186h-14z" />
    <glyph glyph-name="asterisk" unicode="*" horiz-adv-x="452" 
d="M390 622l-149 -93l143 -89l-9 -13l-141 88v-164h-16v164l-141 -88l-9 13l143 89l-149 93l9 14l147 -92v176h16v-176l147 92z" />
    <glyph glyph-name="plus" unicode="+" horiz-adv-x="540" 
d="M505 341v-14h-228v-228h-16v228h-226v14h226v228h16v-228h228z" />
    <glyph glyph-name="comma" unicode="," horiz-adv-x="183" 
d="M34 -146q36 52 72 136q-6 -3 -16 -3q-15 0 -24.5 10.5t-9.5 25.5t10.5 25.5t25.5 10.5q16 0 26 -10t10 -27t-19 -60l-50 -108h-25z" />
    <glyph glyph-name="hyphen" unicode="-" horiz-adv-x="460" 
d="M47 228v14h366v-14h-366z" />
    <glyph glyph-name="period" unicode="." horiz-adv-x="204" 
d="M102 -15q-15 0 -25.5 10.5t-10.5 25.5t10.5 25.5t25.5 10.5t25.5 -10.5t10.5 -25.5t-10.5 -25.5t-25.5 -10.5z" />
    <glyph glyph-name="slash" unicode="/" horiz-adv-x="354" 
d="M36 -105l268 872h15l-267 -872h-16z" />
    <glyph glyph-name="zero" unicode="0" horiz-adv-x="657" 
d="M329 -15q-68 0 -120.5 29.5t-83.5 78t-46.5 106.5t-15.5 121q0 62 15.5 120t46.5 107t83.5 78.5t120.5 29.5t120.5 -29.5t83 -78.5t46 -106.5t15.5 -120.5t-15.5 -121t-46 -106.5t-83 -78t-120.5 -29.5zM329 -1q106 0 167.5 91t61.5 230t-61.5 230t-167.5 91t-168 -91
t-62 -230t62 -230t168 -91z" />
    <glyph glyph-name="one" unicode="1" horiz-adv-x="332" 
d="M190 0v627l-164 -101v18l187 116h11v-660h-34z" />
    <glyph glyph-name="two" unicode="2" horiz-adv-x="508" 
d="M41 0v13q187 129 275.5 237t88.5 225q0 80 -40 123t-138 43q-100 0 -172 -69v34q27 17 75 33t97 16q214 0 214 -174q0 -109 -85.5 -214.5t-262.5 -234.5h359v-32h-411z" />
    <glyph glyph-name="three" unicode="3" horiz-adv-x="522" 
d="M232 -15q-99 0 -184 49v34q88 -68 184 -68q97 0 143.5 46t46.5 122q0 86 -55 123t-172 37h-19v16h19q94 0 151.5 44.5t57.5 124.5q0 66 -39 96.5t-120 30.5q-41 0 -76 -11t-53.5 -23t-47.5 -34v34q85 49 177 49q195 0 195 -143q0 -73 -52 -120.5t-143 -52.5v-4
q91 2 152 -37.5t61 -128.5q0 -87 -60 -135.5t-166 -48.5z" />
    <glyph glyph-name="four" unicode="4" horiz-adv-x="563" 
d="M532 188v-14h-115v-174h-36v174h-358v12l383 474h11v-472h115zM44 188h337v417z" />
    <glyph glyph-name="five" unicode="5" horiz-adv-x="532" 
d="M240 -15q-94 0 -180 47v34q85 -67 180 -67q99 0 151.5 53t52.5 149q0 78 -48 133.5t-143 55.5q-44 0 -89 -16.5t-66 -43.5h-13l5 310h346v-32h-329l-3 -250q25 21 70 33.5t87 12.5q107 0 163 -59t56 -145q0 -97 -63.5 -156t-176.5 -59z" />
    <glyph glyph-name="six" unicode="6" horiz-adv-x="565" 
d="M306 419q104 0 159.5 -62.5t55.5 -152.5q0 -91 -59.5 -152t-156.5 -61q-113 0 -178 77.5t-65 195.5q0 173 101.5 282t247.5 109v-12q-123 0 -210 -91t-101 -237q32 43 88 73.5t118 30.5zM305 7q81 0 130.5 54t49.5 142q0 83 -47.5 141.5t-132.5 58.5q-67 0 -120 -29.5
t-86 -79.5q-1 -10 -1 -30q0 -106 56.5 -181.5t150.5 -75.5z" />
    <glyph glyph-name="seven" unicode="7" horiz-adv-x="457" 
d="M130 0v14l274 594h-376v32h401v-14l-264 -626h-35z" />
    <glyph glyph-name="eight" unicode="8" horiz-adv-x="567" 
d="M312 336q37 -16 54.5 -24t50 -27t48 -36t29 -44t13.5 -58q0 -68 -61 -115t-162 -47t-162 45t-61 120q0 122 177 186q-70 33 -112 73t-42 101q0 62 54 103.5t147 41.5q89 0 142 -40.5t53 -107.5q0 -50 -42 -95.5t-126 -75.5zM118 518q0 -28 11.5 -52t24.5 -39t40.5 -32.5
t40.5 -23.5t45 -21q5 -2 17 -8q74 27 111 61t37 103q0 62 -46.5 98.5t-119.5 36.5q-69 0 -115 -33.5t-46 -89.5zM284 -1q82 0 135 40.5t53 100.5q0 19 -5.5 36.5t-13.5 31t-23 26.5t-27 22t-33 19.5t-33.5 16t-35.5 16t-33 14.5t-15 7q-81 -33 -119 -72.5t-38 -103.5
q0 -76 51 -115t137 -39z" />
    <glyph glyph-name="nine" unicode="9" horiz-adv-x="565" 
d="M275 655q112 0 170 -76.5t58 -196.5q0 -173 -101.5 -282t-247.5 -109v12q123 0 210 91t101 237q-32 -43 -88 -73.5t-118 -30.5q-104 0 -159.5 62.5t-55.5 152.5t64.5 151.5t166.5 61.5zM260 243q67 0 120 29.5t86 79.5q1 10 1 30q0 109 -49.5 183t-142.5 74
q-86 0 -140.5 -54.5t-54.5 -141.5q0 -83 47.5 -141.5t132.5 -58.5z" />
    <glyph glyph-name="colon" unicode=":" horiz-adv-x="226" 
d="M113 299q-15 0 -25.5 10.5t-10.5 25.5t10.5 25.5t25.5 10.5t25.5 -10.5t10.5 -25.5t-10.5 -25.5t-25.5 -10.5zM113 -15q-15 0 -25.5 10.5t-10.5 25.5t10.5 25.5t25.5 10.5t25.5 -10.5t10.5 -25.5t-10.5 -25.5t-25.5 -10.5z" />
    <glyph glyph-name="semicolon" unicode=";" horiz-adv-x="262" 
d="M136 299q-15 0 -25.5 10.5t-10.5 25.5t10.5 25.5t25.5 10.5t25.5 -10.5t10.5 -25.5t-10.5 -25.5t-25.5 -10.5zM78 -146q36 52 72 136q-6 -3 -16 -3q-15 0 -24.5 10.5t-9.5 25.5t10.5 25.5t25.5 10.5q16 0 26 -10t10 -27t-19 -60l-50 -108h-25z" />
    <glyph glyph-name="less" unicode="&#x3c;" horiz-adv-x="540" 
d="M411 98l-290 227v15l290 228v-16l-278 -219l278 -219v-16z" />
    <glyph glyph-name="equal" unicode="=" horiz-adv-x="540" 
d="M37 412v14h466v-14h-466zM37 243v14h466v-14h-466z" />
    <glyph glyph-name="greater" unicode="&#x3e;" horiz-adv-x="540" 
d="M129 98v16l278 219l-278 219v16l290 -228v-15z" />
    <glyph glyph-name="question" unicode="?" horiz-adv-x="440" 
d="M198 145v169q28 14 45.5 23.5t42.5 28t39.5 38.5t25 50.5t10.5 67.5q0 71 -36 114.5t-115 43.5q-105 0 -180 -72v34q28 18 78 35t102 17q84 0 135.5 -45t51.5 -127q0 -42 -18 -78.5t-47.5 -62t-58 -42t-59.5 -28.5v-166h-16zM210 -15q-15 0 -25.5 10.5t-10.5 25.5
t10.5 25.5t25.5 10.5t25.5 -10.5t10.5 -25.5t-10.5 -25.5t-25.5 -10.5z" />
    <glyph glyph-name="at" unicode="@" horiz-adv-x="783" 
d="M615 128q39 0 72.5 59.5t33.5 172.5q0 133 -86 218.5t-224 85.5q-149 0 -243.5 -99t-94.5 -254t96 -251.5t250 -96.5q124 0 194 63v-34q-83 -43 -197 -43q-160 0 -259.5 101.5t-99.5 260.5q0 158 100 262.5t254 104.5q143 0 234.5 -90t91.5 -232q0 -114 -38 -178t-90 -64
q-43 0 -59.5 31t-18.5 90q-13 -43 -51.5 -82t-102.5 -39q-77 0 -125.5 53.5t-48.5 137.5q0 88 50 146t126 58q46 0 87 -26.5t65 -79.5l15 111h16l1 -294q0 -49 11.5 -70.5t40.5 -21.5zM380 132q112 0 151 131v117q-44 111 -151 111q-67 0 -104 -50t-37 -130q0 -81 37 -130
t104 -49z" />
    <glyph glyph-name="A" unicode="A" horiz-adv-x="622" 
d="M568 0l-67 161h-389q-47 -138 -50 -161h-34q42 104 125.5 322.5t125.5 322.5l21 54h11l293 -699h-36zM116 175h379l-197 470h-3q-103 -249 -179 -470z" />
    <glyph glyph-name="B" unicode="B" horiz-adv-x="623" 
d="M108 0v679h189q225 0 225 -157q0 -62 -39 -101t-99 -54v-3q182 -23 182 -188q0 -85 -61 -130.5t-163 -45.5h-234zM144 368h161q77 0 130 39t53 112q0 146 -183 146h-161v-297zM144 14h188q94 0 146 42t52 120q0 86 -53 132t-145 46h-188v-340z" />
    <glyph glyph-name="C" unicode="C" horiz-adv-x="627" 
d="M410 -15q-156 0 -253 97t-97 257q0 155 99 255t255 100q56 0 106 -9t71 -22v-34q-55 51 -177 51q-144 0 -230 -98t-86 -243q0 -150 84.5 -245t227.5 -95q108 0 181 43v-19q-79 -38 -181 -38z" />
    <glyph glyph-name="D" unicode="D" horiz-adv-x="730" 
d="M108 0v679h212q166 0 257.5 -89.5t91.5 -249.5q0 -161 -91.5 -250.5t-257.5 -89.5h-212zM144 14h176q143 0 227 84.5t84 241.5q0 156 -84.5 240.5t-226.5 84.5h-176v-651z" />
    <glyph glyph-name="E" unicode="E" horiz-adv-x="517" 
d="M144 14q157 0 219.5 3t115.5 13v-30h-371v679h351v-30q-90 16 -315 16v-318q209 4 266 8v-30q-119 8 -266 8v-319z" />
    <glyph glyph-name="F" unicode="F" horiz-adv-x="486" 
d="M108 679h351v-30q-90 16 -315 16v-310q209 4 266 8v-30q-119 8 -266 8v-341h-36v679z" />
    <glyph glyph-name="G" unicode="G" horiz-adv-x="696" 
d="M393 -15q-146 0 -240 103t-94 255t99 251.5t255 99.5q56 0 106 -9t71 -22v-34q-55 51 -177 51q-143 0 -229.5 -97.5t-86.5 -239.5q0 -148 83.5 -246t212.5 -98q116 0 205 55v285h35v-280q-55 -39 -109.5 -56.5t-130.5 -17.5z" />
    <glyph glyph-name="H" unicode="H" horiz-adv-x="751" 
d="M108 0v679h36v-343h463v343h36v-679h-36v322h-463v-322h-36z" />
    <glyph glyph-name="I" unicode="I" horiz-adv-x="252" 
d="M108 0v679h36v-679h-36z" />
    <glyph glyph-name="J" unicode="J" horiz-adv-x="403" 
d="M138 -15q-73 0 -121 21v36q17 -15 29.5 -22.5t35.5 -14t54 -6.5q130 0 130 177v503h36v-499q0 -91 -40 -143t-124 -52z" />
    <glyph glyph-name="K" unicode="K" horiz-adv-x="632" 
d="M347 350l272 -350h-41l-272 350h-162v-350h-36v679h36v-315h158q136 144 266 315h37q-35 -45 -86.5 -102.5t-82 -90t-120.5 -126.5v-10h31z" />
    <glyph glyph-name="L" unicode="L" horiz-adv-x="472" 
d="M144 14q142 0 202 3t113 13v-30h-351v679h36v-665z" />
    <glyph glyph-name="M" unicode="M" horiz-adv-x="837" 
d="M101 0q8 192 8 287v412h11l292 -584h3l303 584h11v-699h-36v611h-3l-278 -537h-11l-274 546h-3v-334q0 -70 9 -286h-32z" />
    <glyph glyph-name="N" unicode="N" horiz-adv-x="719" 
d="M599 -20l-472 654h-3v-368q0 -50 9 -266h-32q8 192 8 267v432h11l472 -654h3v368q0 74 -8 266h32q-9 -216 -9 -266v-433h-11z" />
    <glyph glyph-name="O" unicode="O" horiz-adv-x="792" 
d="M396 -15q-152 0 -244 100t-92 255q0 154 92 254t244 100t244 -100.5t92 -253.5q0 -155 -91 -255t-245 -100zM396 -1q137 0 217.5 98t80.5 243q0 144 -81 242t-217 98q-137 0 -217.5 -99t-80.5 -241q0 -145 80.5 -243t217.5 -98z" />
    <glyph glyph-name="P" unicode="P" horiz-adv-x="594" 
d="M108 0v679h226q101 0 160.5 -54.5t59.5 -141.5q0 -102 -66 -155.5t-186 -53.5h-158v-274h-36zM144 288h153q118 0 168.5 54t50.5 139q0 35 -9 65.5t-30 58.5t-62 44t-99 16h-172v-377z" />
    <glyph glyph-name="Q" unicode="Q" horiz-adv-x="792" 
d="M732 340q0 -152 -88 -251.5t-237 -103.5q79 -43 152 -73.5t111.5 -41.5t52.5 -11v-40q-36 7 -93 32.5t-106 52t-147 81.5q-144 7 -230.5 105.5t-86.5 249.5q0 154 92 254t244 100t244 -100.5t92 -253.5zM98 340q0 -145 80.5 -243t217.5 -98t217.5 98t80.5 243
q0 144 -81 242t-217 98q-137 0 -217.5 -99t-80.5 -241z" />
    <glyph glyph-name="R" unicode="R" horiz-adv-x="606" 
d="M554 0h-39l-194 334h-23h-154v-334h-36v679h216q111 0 164.5 -39t53.5 -124q0 -82 -54.5 -127.5t-152.5 -53.5l8 -12h23zM297 348q113 0 160 43t47 121q0 72 -41.5 112.5t-146.5 40.5h-172v-317h153z" />
    <glyph glyph-name="S" unicode="S" horiz-adv-x="519" 
d="M248 -15q-57 0 -113.5 14.5t-83.5 28.5v34q70 -63 199 -63q82 0 137.5 40t55.5 107q0 72 -38.5 108t-120.5 70l-66 28q-79 34 -116.5 73t-37.5 111q0 78 62 118t150 40q87 0 152 -36v-34q-58 56 -153 56q-76 0 -129 -32t-53 -103q0 -60 34 -95t109 -68l65 -27
q43 -18 67.5 -31t52.5 -35.5t40.5 -52.5t12.5 -71q0 -84 -65.5 -132t-160.5 -48z" />
    <glyph glyph-name="T" unicode="T" horiz-adv-x="572" 
d="M12 679h548v-30q-77 13 -255 16v-665h-36v665q-179 -1 -257 -16v30z" />
    <glyph glyph-name="U" unicode="U" horiz-adv-x="702" 
d="M350 -15q-135 0 -193 75.5t-58 214.5v404h36v-419q0 -130 49.5 -193.5t180.5 -63.5q109 0 165 69t56 200v141q0 74 -8 266h32q-9 -216 -9 -266v-141q0 -287 -251 -287z" />
    <glyph glyph-name="V" unicode="V" horiz-adv-x="619" 
d="M309 -20l-293 699h36l270 -645h3q67 161 123.5 316t82.5 235.5t27 93.5h34q-42 -104 -125.5 -322.5t-125.5 -322.5l-21 -54h-11z" />
    <glyph glyph-name="W" unicode="W" horiz-adv-x="997" 
d="M936 679h36q-36 -103 -108.5 -318.5t-109.5 -317.5l-21 -63h-11l-229 658l-211 -658h-11l-251 699h36l227 -635h3l210 655h11l228 -657h3q179 519 198 637z" />
    <glyph glyph-name="X" unicode="X" horiz-adv-x="565" 
d="M557 0h-39l-247 344q-112 -159 -215 -344h-36q79 123 242 357l-231 322h39l216 -302q120 170 192 302h36q-19 -30 -51.5 -77t-82.5 -118t-84 -120z" />
    <glyph glyph-name="Y" unicode="Y" horiz-adv-x="559" 
d="M260 0v302l-224 377h36l211 -357h3q165 258 215 357h36q-214 -323 -241 -364v-315h-36z" />
    <glyph glyph-name="Z" unicode="Z" horiz-adv-x="549" 
d="M201 14q225 0 315 16v-30h-472v14l422 651h-120q-225 0 -315 -16v30h476v-14l-423 -651h117z" />
    <glyph glyph-name="bracketleft" unicode="[" horiz-adv-x="282" 
d="M98 -121v841h162v-14h-126v-813h126v-14h-162z" />
    <glyph glyph-name="backslash" unicode="\" horiz-adv-x="354" 
d="M302 -105l-267 872h15l268 -872h-16z" />
    <glyph glyph-name="bracketright" unicode="]" horiz-adv-x="282" 
d="M22 -121v14h126v813h-126v14h162v-841h-162z" />
    <glyph glyph-name="asciicircum" unicode="^" horiz-adv-x="540" 
d="M96 565l-6 13l161 165h38l161 -165l-6 -13l-174 150z" />
    <glyph glyph-name="underscore" unicode="_" horiz-adv-x="464" 
d="M4 -58v14h456v-14h-456z" />
    <glyph glyph-name="grave" unicode="`" horiz-adv-x="274" 
d="M177 586l-151 166v5h45l120 -171h-14z" />
    <glyph glyph-name="a" unicode="a" horiz-adv-x="527" 
d="M267 514q54 0 90 -16t53.5 -48t23.5 -68t6 -89v-313h-16l-13 164q-32 -66 -92.5 -113t-136.5 -47q-64 0 -100.5 31.5t-36.5 85.5q0 46 23.5 79.5t58.5 52t87 29t95 14t97 3.5v27q0 103 -27 148.5t-115 45.5q-102 0 -187 -72v34q106 52 190 52zM194 3q65 0 121 44t91 120
v99q-39 -1 -61 -2.5t-61 -5.5t-63 -10t-53.5 -17t-46 -26t-28.5 -37.5t-12 -50.5q0 -114 113 -114z" />
    <glyph glyph-name="b" unicode="b" horiz-adv-x="612" 
d="M332 514q103 0 163.5 -68t60.5 -186q0 -121 -60 -198t-162 -77q-46 0 -85.5 17t-64 44t-40 52.5t-21.5 49.5l-13 -168h-16v740h34v-351q30 71 86 108t118 37zM331 3q89 0 139 68.5t50 176.5q0 109 -50 178.5t-139 69.5q-142 0 -203 -154v-172q53 -167 203 -167z" />
    <glyph glyph-name="c" unicode="c" horiz-adv-x="498" 
d="M303 -16q-115 0 -181.5 72t-66.5 194q0 120 72.5 192.5t197.5 72.5q90 0 134 -28v-34q-50 48 -134 48q-105 0 -169.5 -65.5t-64.5 -185.5q0 -112 57.5 -182t156.5 -70t154 44v-14q-25 -20 -69 -32t-87 -12z" />
    <glyph glyph-name="d" unicode="d" horiz-adv-x="613" 
d="M484 720h35v-740h-16l-16 181q-7 -25 -21 -52t-38 -56.5t-63.5 -48.5t-86.5 -19q-102 0 -162 71t-60 184q0 120 61.5 197t162.5 77q62 0 118 -36t86 -106v348zM281 3q147 0 203 180v158q-61 155 -203 155q-89 0 -139 -69.5t-50 -178.5q0 -108 50 -176.5t139 -68.5z" />
    <glyph glyph-name="e" unicode="e" horiz-adv-x="559" 
d="M90 255v-2q0 -113 60.5 -184t165.5 -71q44 0 80 10.5t51.5 19.5t39.5 27v-16q-68 -55 -171 -55q-116 0 -189 75.5t-73 193.5q0 124 75 193t175 69q88 0 146.5 -62t58.5 -157q0 -19 -2 -41h-417zM304 501q-90 0 -150 -59.5t-64 -172.5h382q1 8 1 27q0 92 -45 148.5
t-124 56.5z" />
    <glyph glyph-name="f" unicode="f" horiz-adv-x="290" 
d="M265 721q-54 0 -87 -35.5t-33 -138.5v-47h134v-14h-134v-486h-34v486h-84v14h84v40q0 90 39 142.5t113 52.5q50 0 91 -18v-36q-47 40 -89 40z" />
    <glyph glyph-name="g" unicode="g" horiz-adv-x="534" 
d="M363 71q145 0 145 -100q0 -66 -60 -108.5t-167 -42.5q-140 0 -220 40v36q66 -62 222 -62q96 0 150.5 37t54.5 91q0 79 -121 79h-289l-9 30l84 120q-92 45 -92 149q0 76 55.5 125t144.5 49q48 0 91 -16l118 36v-44l-99 -2q42 -22 66.5 -61t24.5 -87q0 -77 -53.5 -124.5
t-148.5 -47.5q-51 0 -93 17l-79 -114h275zM97 340q0 -73 45 -115.5t119 -42.5t119.5 42.5t45.5 115.5q0 74 -45.5 117t-119.5 43t-119 -43.5t-45 -116.5z" />
    <glyph glyph-name="h" unicode="h" horiz-adv-x="605" 
d="M324 514q94 0 144 -52.5t50 -148.5v-313h-34v313q0 92 -40.5 137.5t-125.5 45.5q-71 0 -115 -39.5t-75 -115.5v-341h-34v720h34v-349q65 143 196 143z" />
    <glyph glyph-name="i" unicode="i" horiz-adv-x="222" 
d="M111 595q-15 0 -25.5 10.5t-10.5 25.5t10.5 25.5t25.5 10.5t25.5 -10.5t10.5 -25.5t-10.5 -25.5t-25.5 -10.5zM94 0v500h34v-500h-34z" />
    <glyph glyph-name="j" unicode="j" horiz-adv-x="220" 
d="M109 595q-15 0 -25.5 10.5t-10.5 25.5t10.5 25.5t25.5 10.5t25.5 -10.5t10.5 -25.5t-10.5 -25.5t-25.5 -10.5zM-26 -180q-50 0 -91 18v36q47 -40 89 -40q124 0 124 177l-4 489h34v-485q0 -195 -152 -195z" />
    <glyph glyph-name="k" unicode="k" horiz-adv-x="509" 
d="M94 0v720h34v-454h104q34 34 69 74t55.5 66.5t44 57.5t27.5 36h39q-38 -34 -113 -120t-105 -116v-6h21l237 -258h-41l-230 252h-108v-252h-34z" />
    <glyph glyph-name="l" unicode="l" horiz-adv-x="222" 
d="M94 0v720h34v-720h-34z" />
    <glyph glyph-name="m" unicode="m" horiz-adv-x="957" 
d="M690 514q90 0 135 -53t45 -148v-313h-34v313q0 92 -35.5 137.5t-116.5 45.5q-127 0 -187 -149q2 -22 2 -34v-313h-34v313q0 92 -35.5 137.5t-116.5 45.5q-73 0 -113 -38.5t-72 -116.5v-341h-34v520h16l18 -149q31 72 76.5 107.5t114.5 35.5q150 0 175 -143
q64 143 196 143z" />
    <glyph glyph-name="n" unicode="n" horiz-adv-x="605" 
d="M327 514q93 0 142 -51.5t49 -149.5v-313h-34v313q0 92 -39.5 137.5t-123.5 45.5q-130 0 -193 -155v-341h-34v520h16l18 -149q65 143 199 143z" />
    <glyph glyph-name="o" unicode="o" horiz-adv-x="626" 
d="M313 -15q-118 0 -188.5 75.5t-70.5 189.5t70.5 189t188.5 75q119 0 189 -75t70 -189q0 -109 -71 -187t-188 -78zM313 -1q101 0 162 71t61 180t-61 179.5t-162 70.5t-162 -70.5t-61 -179.5t61 -180t162 -71z" />
    <glyph glyph-name="p" unicode="p" horiz-adv-x="613" 
d="M333 514q103 0 163.5 -68t60.5 -186q0 -121 -60 -198t-162 -77q-45 0 -83.5 16t-63 41t-38.5 47.5t-21 43.5v-298h-35v685h16l19 -150q29 66 84 105t120 39zM332 3q89 0 139 68.5t50 176.5q0 109 -50 178.5t-139 69.5q-142 0 -203 -154v-172q25 -83 74 -125t129 -42z" />
    <glyph glyph-name="q" unicode="q" horiz-adv-x="615" 
d="M505 520h16v-694h-37v330q-7 -24 -21 -50t-38 -55t-62.5 -47.5t-84.5 -18.5q-102 0 -162 71t-60 184q0 120 61.5 197t162.5 77q66 0 120.5 -39.5t83.5 -104.5zM484 185v157q-61 154 -203 154q-89 0 -139 -69.5t-50 -178.5q0 -108 50 -176.5t139 -68.5q147 0 203 182z" />
    <glyph glyph-name="r" unicode="r" horiz-adv-x="315" 
d="M128 415q19 45 64 72.5t97 27.5v-33q-61 0 -100.5 -18t-60.5 -72v-392h-34v520h16z" />
    <glyph glyph-name="s" unicode="s" horiz-adv-x="453" 
d="M239 -15q-104 0 -190 47v34q85 -67 186 -67q66 0 106.5 28t40.5 79q0 25 -11.5 46.5t-24 34t-40.5 26t-38.5 17.5t-41.5 14q-42 14 -61.5 22.5t-49 26t-42.5 42t-13 57.5q0 52 41 87t111 35q43 0 91.5 -11.5t71.5 -24.5v-34q-58 56 -160 56q-60 0 -93 -27t-33 -76
q0 -22 10.5 -40.5t20 -28.5t37.5 -23.5t36.5 -16.5t43.5 -15q29 -10 42 -15t38 -15.5t37.5 -21t27 -25t21 -33.5t6.5 -41q0 -57 -43 -97t-127 -40z" />
    <glyph glyph-name="t" unicode="t" horiz-adv-x="310" 
d="M138 0v486h-127v14h127l18 132h16v-132h127v-14h-127v-486h-34z" />
    <glyph glyph-name="u" unicode="u" horiz-adv-x="604" 
d="M476 500h34v-520h-16l-18 157q-16 -64 -64 -107.5t-121 -43.5q-205 0 -205 225v289h34v-289q0 -111 37.5 -161t133.5 -50q140 0 185 172v328z" />
    <glyph glyph-name="v" unicode="v" horiz-adv-x="506" 
d="M244 -20l-217 519h34l198 -475h3q128 290 190 476h30q-25 -56 -97 -224.5t-110 -251.5l-20 -44h-11z" />
    <glyph glyph-name="w" unicode="w" horiz-adv-x="800" 
d="M746 500h30q-23 -60 -76.5 -204.5t-102.5 -268.5l-18 -48h-11l-167 489l-175 -488h-11l-187 520h34l166 -461h3l173 481h11l166 -492h3q132 351 162 472z" />
    <glyph glyph-name="x" unicode="x" horiz-adv-x="464" 
d="M442 0h-41l-178 236q-128 -175 -160 -236h-32q89 123 183 248l-190 252h40l178 -236q117 165 156 236h32q-30 -41 -89.5 -123.5t-89.5 -123.5z" />
    <glyph glyph-name="y" unicode="y" horiz-adv-x="504" 
d="M451 500h30l-207 -456l-20 -44l-81 -180l-35 21l105 159l-217 499h34l198 -455h3q155 351 190 456z" />
    <glyph glyph-name="z" unicode="z" horiz-adv-x="423" 
d="M196 14q138 0 201 16v-30h-363v14l309 472h-96q-138 0 -201 -16v30h332v-14l-309 -472h127z" />
    <glyph glyph-name="braceleft" unicode="{" horiz-adv-x="304" 
d="M257 -137q-78 0 -103 28.5t-25 94.5v220q0 85 -107 85h-11v16h11q107 0 107 85v220q0 66 25 94.5t103 28.5h25v-14h-25q-48 0 -70 -21t-22 -82v-209q0 -51 -26 -76.5t-78 -32.5v-2q52 -7 78 -32.5t26 -76.5v-209q0 -61 22 -82t70 -21h25v-14h-25z" />
    <glyph glyph-name="bar" unicode="|" horiz-adv-x="212" 
d="M98 -105v851h16v-851h-16z" />
    <glyph glyph-name="braceright" unicode="}" horiz-adv-x="304" 
d="M22 -137v14h25q48 0 70 21t22 82v209q0 51 26 76.5t78 32.5v2q-52 7 -78 32.5t-26 76.5v209q0 61 -22 82t-70 21h-25v14h25q78 0 103 -28.5t25 -94.5v-220q0 -85 107 -85h11v-16h-11q-107 0 -107 -85v-220q0 -66 -25 -94.5t-103 -28.5h-25z" />
    <glyph glyph-name="asciitilde" unicode="~" horiz-adv-x="540" 
d="M41 251q0 59 35 88t82 29q44 0 119 -43t120 -43t67 29t22 73h16q0 -50 -27 -83t-78 -33q-48 0 -123 43t-118 43q-41 0 -70 -24.5t-29 -78.5h-16z" />
    <glyph glyph-name="uni00A0" unicode="&#xa0;" horiz-adv-x="266" 
 />
    <glyph glyph-name="exclamdown" unicode="&#xa1;" horiz-adv-x="213" 
d="M107 554q15 0 25.5 -10.5t10.5 -25.5t-10.5 -25.5t-25.5 -10.5t-25.5 10.5t-10.5 25.5t10.5 25.5t25.5 10.5zM98 395h16l11 -535h-36z" />
    <glyph glyph-name="cent" unicode="&#xa2;" horiz-adv-x="523" 
d="M331 572q-20 0 -29 -1v-501q9 -1 29 -1q84 0 134 48v-34q-44 -28 -134 -28q-20 0 -29 1v-95h-16v97q-105 13 -165 84t-60 179t59.5 178.5t165.5 83.5v97h16v-95q9 1 29 1q90 0 134 -28v-34q-50 48 -134 48zM286 72v497q-86 -14 -137.5 -78.5t-51.5 -170.5t51 -170
t138 -78z" />
    <glyph glyph-name="sterling" unicode="&#xa3;" horiz-adv-x="547" 
d="M90 31h415v-31h-464v13q84 32 84 176q0 13 -2 133h-69v14h69v61q0 258 240 258q70 0 131 -36v-33q-18 17 -30.5 26t-40 19t-60.5 10q-101 0 -149 -60.5t-55 -196.5l-3 -48h214v-14h-215q-7 -104 -17.5 -164.5t-19.5 -81t-28 -45.5z" />
    <glyph glyph-name="currency" unicode="&#xa4;" horiz-adv-x="560" 
d="M83 77l-11 10l85 101q-55 52 -55 132t56 134l-87 104l10 9l88 -105q48 42 111 42t111 -42l88 105l10 -9l-87 -104q56 -54 56 -134t-55 -132l85 -101l-11 -10l-86 101q-48 -40 -111 -40t-111 40zM280 151q67 0 115.5 50t48.5 119t-48.5 119.5t-115.5 50.5t-115.5 -50.5
t-48.5 -119.5t48.5 -119t115.5 -50z" />
    <glyph glyph-name="yen" unicode="&#xa5;" horiz-adv-x="600" 
d="M311 297v-17h216v-14h-216v-110h216v-14h-216v-142h-36v142h-204v14h204v110h-204v14h204v4l-224 355h36l209 -335h3q178 264 217 335h36q-43 -60 -123.5 -175t-117.5 -167z" />
    <glyph glyph-name="brokenbar" unicode="&#xa6;" horiz-adv-x="212" 
d="M98 373v373h16v-373h-16zM98 -105v373h16v-373h-16z" />
    <glyph glyph-name="section" unicode="&#xa7;" horiz-adv-x="547" 
d="M506 135q0 -86 -79 -123q14 -30 14 -63q0 -64 -50 -106.5t-127 -42.5q-114 0 -197 43v34q70 -63 199 -63q69 0 110 35.5t41 89.5q0 42 -27.5 74.5t-83.5 74.5l-149 114q-57 43 -83 79t-26 83q0 78 86 116q-17 34 -17 75q0 59 40 99t116 40q87 0 152 -36v-34
q-58 56 -153 56q-67 0 -99.5 -34.5t-32.5 -90.5q0 -42 27.5 -74t84.5 -75l149 -114q57 -44 81 -77t24 -80zM420 25q27 11 46 37.5t19 59.5q0 39 -25.5 69t-87.5 78l-136 105q-69 51 -95 94q-29 -10 -48.5 -36t-19.5 -60q0 -39 25.5 -69t87.5 -78l136 -105q76 -58 98 -95z
" />
    <glyph glyph-name="dieresis" unicode="&#xa8;" horiz-adv-x="385" 
d="M98 579q-15 0 -25.5 10.5t-10.5 25.5t10.5 25.5t25.5 10.5t25.5 -10.5t10.5 -25.5t-10.5 -25.5t-25.5 -10.5zM283 579q-15 0 -25.5 10.5t-10.5 25.5t10.5 25.5t25.5 10.5t25.5 -10.5t10.5 -25.5t-10.5 -25.5t-25.5 -10.5z" />
    <glyph glyph-name="copyright" unicode="&#xa9;" horiz-adv-x="854" 
d="M426 -15q-152 0 -258 106.5t-106 257.5t106 257.5t258 106.5t259 -106.5t107 -257.5t-107 -257.5t-259 -106.5zM426 -1q146 0 248 102t102 248t-102 248t-248 102q-145 0 -246.5 -102t-101.5 -248t101.5 -248t246.5 -102zM432 150q-87 0 -141 54.5t-54 144.5q0 89 58 144
t153 55q64 0 101 -23v-32q-43 41 -101 41q-77 0 -126 -50.5t-49 -134.5q0 -78 43.5 -131.5t116.5 -53.5q74 0 116 34v-15q-42 -33 -117 -33z" />
    <glyph glyph-name="ordfeminine" unicode="&#xaa;" horiz-adv-x="433" 
d="M345 766h10v-349h-8l-15 111q-12 -37 -45 -71t-88 -34q-66 0 -105.5 45.5t-39.5 117.5q0 77 40.5 126.5t106.5 49.5q42 0 77 -24t53 -65zM201 436q93 0 130 118v91q-40 103 -130 103q-57 0 -87.5 -43.5t-30.5 -113.5q0 -69 30.5 -112t87.5 -43z" />
    <glyph glyph-name="guillemotleft" unicode="&#xab;" horiz-adv-x="578" 
d="M300 25l-244 211v17l244 210v-13l-203 -205l203 -207v-13zM521 25l-244 211v17l244 210v-13l-203 -205l203 -207v-13z" />
    <glyph glyph-name="registered" unicode="&#xae;" horiz-adv-x="849" 
d="M428 694q151 0 255 -103t104 -253q0 -148 -107 -251t-257 -103q-152 0 -256.5 102t-104.5 252t106.5 253t259.5 103zM423 -2q145 0 246.5 99t101.5 241q0 145 -99 243.5t-244 98.5q-148 0 -249 -99t-101 -243t99.5 -242t245.5 -98zM472 329h2t2.5 -0.5t2 -1.5t1.5 -2
t2 -2.5t2.5 -4t2.5 -4.5t3 -5.5t4 -6.5l88 -152h-36l-110 188h-11h-87v-188h-34v384h135q139 0 139 -92q0 -43 -33 -69.5t-87 -32.5l6 -11h8zM338 352h87q117 0 117 87q0 40 -23 60t-83 21h-98v-168z" />
    <glyph glyph-name="macron" unicode="&#xaf;" horiz-adv-x="363" 
d="M40 639v16h284v-16h-284z" />
    <glyph glyph-name="degree" unicode="&#xb0;" horiz-adv-x="389" 
d="M195 400q-59 0 -99.5 41t-40.5 98q0 59 40.5 99.5t99.5 40.5q58 0 98.5 -40.5t40.5 -99.5q0 -58 -40 -98.5t-99 -40.5zM195 414q52 0 87.5 36t35.5 89t-35.5 89.5t-87.5 36.5t-88 -36.5t-36 -89.5q0 -52 36 -88.5t88 -36.5z" />
    <glyph glyph-name="plusminus" unicode="&#xb1;" horiz-adv-x="540" 
d="M259 230v167h-224v14h224v232h14v-232h232v-14h-232v-167h-14zM35 155v15h470v-15h-470z" />
    <glyph glyph-name="acute" unicode="&#xb4;" horiz-adv-x="274" 
d="M76 586l120 171h45v-4l-151 -167h-14z" />
    <glyph glyph-name="paragraph" unicode="&#xb6;" horiz-adv-x="636" 
d="M341 -180v396h-73q-103 0 -167 65t-64 168q0 101 64.5 165.5t166.5 64.5h299v-14h-43v-845h-16v845h-151v-845h-16z" />
    <glyph glyph-name="periodcentered" unicode="&#xb7;" horiz-adv-x="224" 
d="M112 276q-15 0 -25.5 10.5t-10.5 25.5t10.5 25.5t25.5 10.5t25.5 -10.5t10.5 -25.5t-10.5 -25.5t-25.5 -10.5z" />
    <glyph glyph-name="cedilla" unicode="&#xb8;" horiz-adv-x="332" 
d="M142 -165q-52 0 -90 29v30q24 -25 43 -36t47 -11q33 0 50 17t17 46q0 33 -23 49t-68 25l36 62h14l-29 -49q104 -20 104 -84q0 -34 -28.5 -56t-72.5 -22z" />
    <glyph glyph-name="ordmasculine" unicode="&#xba;" horiz-adv-x="432" 
d="M216 426q-75 0 -119.5 48t-44.5 120q0 71 45 119t119 48q75 0 119.5 -48t44.5 -119q0 -69 -45 -118.5t-119 -49.5zM216 440q63 0 97 42t34 112q0 69 -34 111t-97 42t-97 -42t-34 -111q0 -70 33.5 -112t97.5 -42z" />
    <glyph glyph-name="guillemotright" unicode="&#xbb;" horiz-adv-x="578" 
d="M57 25v13l203 207l-203 205v13l244 -210v-17zM278 25v13l203 207l-203 205v13l244 -210v-17z" />
    <glyph glyph-name="onequarter" unicode="&#xbc;" horiz-adv-x="683" 
d="M31 594l113 66h11v-387h-34v358l-90 -52v15zM477 655h15l-320 -655h-16zM645 121v-12h-44v-109h-34v109h-214v6l237 272h11v-266h44zM374 121h193v221z" />
    <glyph glyph-name="onehalf" unicode="&#xbd;" horiz-adv-x="739" 
d="M120 277v354l-90 -52v15l113 66h11v-383h-34zM151 0l321 655h15l-320 -655h-16zM444 0v9q8 7 23 20q44 38 64.5 56.5t48.5 47.5t39.5 48.5t20.5 45t9 52.5q0 45 -17.5 68.5t-71.5 23.5q-58 0 -106 -46v30q17 11 50 19.5t56 8.5q62 0 93 -24.5t31 -83.5q0 -53 -51.5 -110
t-145.5 -133h203v-32h-246z" />
    <glyph glyph-name="threequarters" unicode="&#xbe;" horiz-adv-x="748" 
d="M285 362q0 -47 -36.5 -75.5t-95.5 -28.5q-64 0 -103 24v30q43 -41 103 -41q97 0 97 95q0 46 -28 69t-92 23h-21v14h21q110 0 110 90q0 39 -18.5 59.5t-64.5 20.5q-53 0 -100 -45v30q46 28 100 28q118 0 118 -90q0 -40 -31 -67t-82 -31v-2q53 2 88 -25t35 -78zM554 655h15
l-320 -655h-16zM713 121v-12h-44v-109h-34v109h-214v6l237 272h11v-266h44zM442 121h193v221z" />
    <glyph glyph-name="questiondown" unicode="&#xbf;" horiz-adv-x="436" 
d="M228 529q15 0 25.5 -10.5t10.5 -25.5t-10.5 -25.5t-25.5 -10.5t-25.5 10.5t-10.5 25.5t10.5 25.5t25.5 10.5zM240 369v-169q-28 -14 -45.5 -23.5t-42.5 -28t-39.5 -38.5t-25 -50.5t-10.5 -67.5q0 -71 36 -114.5t115 -43.5q105 0 180 72v-34q-28 -18 -78 -35t-102 -17
q-84 0 -135.5 45t-51.5 127q0 42 18 78.5t47.5 62t58 42t59.5 28.5v166h16z" />
    <glyph glyph-name="Agrave" unicode="&#xc0;" horiz-adv-x="622" 
d="M353 772h-14l-151 166v5h45zM568 0l-67 161h-389q-47 -138 -50 -161h-34q42 104 125.5 322.5t125.5 322.5l21 54h11l293 -699h-36zM116 175h379l-197 470h-3q-103 -249 -179 -470z" />
    <glyph glyph-name="Aacute" unicode="&#xc1;" horiz-adv-x="622" 
d="M444 942l-151 -167h-14l120 171h45v-4zM568 0l-67 161h-389q-47 -138 -50 -161h-34q42 104 125.5 322.5t125.5 322.5l21 54h11l293 -699h-36zM116 175h379l-197 470h-3q-103 -249 -179 -470z" />
    <glyph glyph-name="Acircumflex" unicode="&#xc2;" horiz-adv-x="622" 
d="M313 906l-154 -145h-16l151 168h38l151 -168h-16zM568 0l-67 161h-389q-47 -138 -50 -161h-34q42 104 125.5 322.5t125.5 322.5l21 54h11l293 -699h-36zM116 175h379l-197 470h-3q-103 -249 -179 -470z" />
    <glyph glyph-name="Atilde" unicode="&#xc3;" horiz-adv-x="622" 
d="M207 861q-53 0 -53 -80h-14q0 106 79 106q29 0 87.5 -42t97.5 -42q53 0 53 83h14q0 -55 -18.5 -81.5t-62.5 -26.5q-41 0 -98 41.5t-85 41.5zM568 0l-67 161h-389q-47 -138 -50 -161h-34q42 104 125.5 322.5t125.5 322.5l21 54h11l293 -699h-36zM116 175h379l-197 470h-3
q-103 -249 -179 -470z" />
    <glyph glyph-name="Adieresis" unicode="&#xc4;" horiz-adv-x="622" 
d="M214 802q-15 0 -25.5 10.5t-10.5 25.5t10.5 25.5t25.5 10.5t25.5 -10.5t10.5 -25.5t-10.5 -25.5t-25.5 -10.5zM399 802q-15 0 -25.5 10.5t-10.5 25.5t10.5 25.5t25.5 10.5t25.5 -10.5t10.5 -25.5t-10.5 -25.5t-25.5 -10.5zM568 0l-67 161h-389q-47 -138 -50 -161h-34
q42 104 125.5 322.5t125.5 322.5l21 54h11l293 -699h-36zM116 175h379l-197 470h-3q-103 -249 -179 -470z" />
    <glyph glyph-name="Aring" unicode="&#xc5;" horiz-adv-x="622" 
d="M306 755q-42 0 -70.5 28.5t-28.5 70.5q0 41 28.5 69.5t70.5 28.5t70 -28.5t28 -69.5q0 -42 -28 -70.5t-70 -28.5zM306 936q-36 0 -58.5 -23t-22.5 -59t22.5 -59.5t58.5 -23.5q35 0 57.5 23.5t22.5 59.5q0 35 -22.5 58.5t-57.5 23.5zM568 0l-67 161h-389
q-47 -138 -50 -161h-34q42 104 125.5 322.5t125.5 322.5l21 54h11l293 -699h-36zM116 175h379l-197 470h-3q-103 -249 -179 -470z" />
    <glyph glyph-name="AE" unicode="&#xc6;" horiz-adv-x="818" 
d="M445 14q157 0 219.5 3t115.5 13v-30h-371v194h-272q-57 -101 -102 -194h-37l411 679h351v-30q-90 16 -315 16v-318q209 4 266 8v-30q-119 8 -266 8v-319zM145 208h264v443q-196 -323 -264 -443z" />
    <glyph glyph-name="Ccedilla" unicode="&#xc7;" horiz-adv-x="627" 
d="M414 680q-144 0 -230 -98t-86 -243q0 -150 84.5 -245t227.5 -95q108 0 181 43v-19q-79 -38 -181 -38h-19l-26 -44q104 -20 104 -84q0 -34 -28.5 -56t-72.5 -22q-52 0 -90 29v30q24 -25 43 -36t47 -11q33 0 50 17t17 46q0 33 -23 49t-68 25l34 58q-143 11 -230.5 106
t-87.5 247q0 155 99 255t255 100q56 0 106 -9t71 -22v-34q-55 51 -177 51z" />
    <glyph glyph-name="Egrave" unicode="&#xc8;" horiz-adv-x="517" 
d="M333 767h-14l-151 166v5h45zM144 14q157 0 219.5 3t115.5 13v-30h-371v679h351v-30q-90 16 -315 16v-318q209 4 266 8v-30q-119 8 -266 8v-319z" />
    <glyph glyph-name="Eacute" unicode="&#xc9;" horiz-adv-x="517" 
d="M424 937l-151 -167h-14l120 171h45v-4zM144 14q157 0 219.5 3t115.5 13v-30h-371v679h351v-30q-90 16 -315 16v-318q209 4 266 8v-30q-119 8 -266 8v-319z" />
    <glyph glyph-name="Ecircumflex" unicode="&#xca;" horiz-adv-x="517" 
d="M293 901l-154 -145h-16l151 168h38l151 -168h-16zM144 14q157 0 219.5 3t115.5 13v-30h-371v679h351v-30q-90 16 -315 16v-318q209 4 266 8v-30q-119 8 -266 8v-319z" />
    <glyph glyph-name="Edieresis" unicode="&#xcb;" horiz-adv-x="517" 
d="M194 797q-15 0 -25.5 10.5t-10.5 25.5t10.5 25.5t25.5 10.5t25.5 -10.5t10.5 -25.5t-10.5 -25.5t-25.5 -10.5zM379 797q-15 0 -25.5 10.5t-10.5 25.5t10.5 25.5t25.5 10.5t25.5 -10.5t10.5 -25.5t-10.5 -25.5t-25.5 -10.5zM144 14q157 0 219.5 3t115.5 13v-30h-371v679
h351v-30q-90 16 -315 16v-318q209 4 266 8v-30q-119 8 -266 8v-319z" />
    <glyph glyph-name="Igrave" unicode="&#xcc;" horiz-adv-x="252" 
d="M159 769l-151 166v5h45l120 -171h-14zM108 0v679h36v-679h-36z" />
    <glyph glyph-name="Iacute" unicode="&#xcd;" horiz-adv-x="252" 
d="M99 772l120 171h45v-4l-151 -167h-14zM108 0v679h36v-679h-36z" />
    <glyph glyph-name="Icircumflex" unicode="&#xce;" horiz-adv-x="252" 
d="M-37 758l151 168h38l151 -168h-16l-154 145l-154 -145h-16zM108 0v679h36v-679h-36z" />
    <glyph glyph-name="Idieresis" unicode="&#xcf;" horiz-adv-x="252" 
d="M34 799q-15 0 -25.5 10.5t-10.5 25.5t10.5 25.5t25.5 10.5t25.5 -10.5t10.5 -25.5t-10.5 -25.5t-25.5 -10.5zM219 799q-15 0 -25.5 10.5t-10.5 25.5t10.5 25.5t25.5 10.5t25.5 -10.5t10.5 -25.5t-10.5 -25.5t-25.5 -10.5zM108 0v679h36v-679h-36z" />
    <glyph glyph-name="Eth" unicode="&#xd0;" horiz-adv-x="733" 
d="M323 679q166 0 257.5 -89.5t91.5 -249.5q0 -161 -91.5 -250.5t-257.5 -89.5h-212v332h-72v14h72v333h212zM323 14q143 0 227 84.5t84 241.5q0 156 -84.5 240.5t-226.5 84.5h-176v-319h161v-14h-161v-318h176z" />
    <glyph glyph-name="Ntilde" unicode="&#xd1;" horiz-adv-x="719" 
d="M466 758q-41 0 -98 41.5t-85 41.5q-53 0 -53 -80h-14q0 106 79 106q29 0 87.5 -42t97.5 -42q53 0 53 83h14q0 -55 -18.5 -81.5t-62.5 -26.5zM599 -20l-472 654h-3v-368q0 -50 9 -266h-32q8 192 8 267v432h11l472 -654h3v368q0 74 -8 266h32q-9 -216 -9 -266v-433h-11z
" />
    <glyph glyph-name="Ograve" unicode="&#xd2;" horiz-adv-x="792" 
d="M429 767l-151 166v5h45l120 -171h-14zM396 -15q-152 0 -244 100t-92 255q0 154 92 254t244 100t244 -100.5t92 -253.5q0 -155 -91 -255t-245 -100zM396 -1q137 0 217.5 98t80.5 243q0 144 -81 242t-217 98q-137 0 -217.5 -99t-80.5 -241q0 -145 80.5 -243t217.5 -98z" />
    <glyph glyph-name="Oacute" unicode="&#xd3;" horiz-adv-x="792" 
d="M369 770l120 171h45v-4l-151 -167h-14zM396 -15q-152 0 -244 100t-92 255q0 154 92 254t244 100t244 -100.5t92 -253.5q0 -155 -91 -255t-245 -100zM396 -1q137 0 217.5 98t80.5 243q0 144 -81 242t-217 98q-137 0 -217.5 -99t-80.5 -241q0 -145 80.5 -243t217.5 -98z
" />
    <glyph glyph-name="Ocircumflex" unicode="&#xd4;" horiz-adv-x="792" 
d="M233 756l151 168h38l151 -168h-16l-154 145l-154 -145h-16zM396 -15q-152 0 -244 100t-92 255q0 154 92 254t244 100t244 -100.5t92 -253.5q0 -155 -91 -255t-245 -100zM396 -1q137 0 217.5 98t80.5 243q0 144 -81 242t-217 98q-137 0 -217.5 -99t-80.5 -241
q0 -145 80.5 -243t217.5 -98z" />
    <glyph glyph-name="Otilde" unicode="&#xd5;" horiz-adv-x="792" 
d="M480 773q-41 0 -98 41.5t-85 41.5q-53 0 -53 -80h-14q0 106 79 106q29 0 87.5 -42t97.5 -42q53 0 53 83h14q0 -55 -18.5 -81.5t-62.5 -26.5zM396 -15q-152 0 -244 100t-92 255q0 154 92 254t244 100t244 -100.5t92 -253.5q0 -155 -91 -255t-245 -100zM396 -1
q137 0 217.5 98t80.5 243q0 144 -81 242t-217 98q-137 0 -217.5 -99t-80.5 -241q0 -145 80.5 -243t217.5 -98z" />
    <glyph glyph-name="Odieresis" unicode="&#xd6;" horiz-adv-x="792" 
d="M304 797q-15 0 -25.5 10.5t-10.5 25.5t10.5 25.5t25.5 10.5t25.5 -10.5t10.5 -25.5t-10.5 -25.5t-25.5 -10.5zM489 797q-15 0 -25.5 10.5t-10.5 25.5t10.5 25.5t25.5 10.5t25.5 -10.5t10.5 -25.5t-10.5 -25.5t-25.5 -10.5zM396 -15q-152 0 -244 100t-92 255q0 154 92 254
t244 100t244 -100.5t92 -253.5q0 -155 -91 -255t-245 -100zM396 -1q137 0 217.5 98t80.5 243q0 144 -81 242t-217 98q-137 0 -217.5 -99t-80.5 -241q0 -145 80.5 -243t217.5 -98z" />
    <glyph glyph-name="multiply" unicode="&#xd7;" horiz-adv-x="540" 
d="M461 515l-181 -181l181 -181l-10 -10l-181 181l-181 -181l-11 11l181 181l-180 180l10 10l180 -180l181 181z" />
    <glyph glyph-name="Oslash" unicode="&#xd8;" horiz-adv-x="807" 
d="M765 679l-104 -103q77 -95 77 -236q0 -155 -91 -255t-245 -100q-147 0 -239 94l-79 -79h-22l91 90q-87 98 -87 250q0 154 92 254t244 100q156 0 249 -106l92 91h22zM104 340q0 -136 70 -229l457 456q-84 113 -229 113q-137 0 -217.5 -99t-80.5 -241zM700 340
q0 123 -60 214l-457 -455q82 -100 219 -100t217.5 98t80.5 243z" />
    <glyph glyph-name="Ugrave" unicode="&#xd9;" horiz-adv-x="702" 
d="M383 753l-151 166v5h45l120 -171h-14zM350 -15q-135 0 -193 75.5t-58 214.5v404h36v-419q0 -130 49.5 -193.5t180.5 -63.5q109 0 165 69t56 200v141q0 74 -8 266h32q-9 -216 -9 -266v-141q0 -287 -251 -287z" />
    <glyph glyph-name="Uacute" unicode="&#xda;" horiz-adv-x="702" 
d="M323 756l120 171h45v-4l-151 -167h-14zM350 -15q-135 0 -193 75.5t-58 214.5v404h36v-419q0 -130 49.5 -193.5t180.5 -63.5q109 0 165 69t56 200v141q0 74 -8 266h32q-9 -216 -9 -266v-141q0 -287 -251 -287z" />
    <glyph glyph-name="Ucircumflex" unicode="&#xdb;" horiz-adv-x="702" 
d="M187 742l151 168h38l151 -168h-16l-154 145l-154 -145h-16zM350 -15q-135 0 -193 75.5t-58 214.5v404h36v-419q0 -130 49.5 -193.5t180.5 -63.5q109 0 165 69t56 200v141q0 74 -8 266h32q-9 -216 -9 -266v-141q0 -287 -251 -287z" />
    <glyph glyph-name="Udieresis" unicode="&#xdc;" horiz-adv-x="702" 
d="M258 783q-15 0 -25.5 10.5t-10.5 25.5t10.5 25.5t25.5 10.5t25.5 -10.5t10.5 -25.5t-10.5 -25.5t-25.5 -10.5zM443 783q-15 0 -25.5 10.5t-10.5 25.5t10.5 25.5t25.5 10.5t25.5 -10.5t10.5 -25.5t-10.5 -25.5t-25.5 -10.5zM350 -15q-135 0 -193 75.5t-58 214.5v404h36
v-419q0 -130 49.5 -193.5t180.5 -63.5q109 0 165 69t56 200v141q0 74 -8 266h32q-9 -216 -9 -266v-141q0 -287 -251 -287z" />
    <glyph glyph-name="Yacute" unicode="&#xdd;" horiz-adv-x="559" 
d="M252 755l120 171h45v-4l-151 -167h-14zM260 0v302l-224 377h36l211 -357h3q165 258 215 357h36q-214 -323 -241 -364v-315h-36z" />
    <glyph glyph-name="Thorn" unicode="&#xde;" horiz-adv-x="567" 
d="M294 544q101 0 159.5 -53t58.5 -142q0 -205 -250 -212h-118v-137h-36v679h36v-135h150zM257 151q61 0 105.5 15.5t68.5 43t34.5 59.5t10.5 70q0 36 -9 67.5t-30 60.5t-62 46t-99 17h-132v-379h113z" />
    <glyph glyph-name="germandbls" unicode="&#xdf;" horiz-adv-x="594" 
d="M314 399q0 -33 24.5 -58.5t59.5 -43t70.5 -36.5t60 -51.5t24.5 -76.5q0 -66 -45.5 -107t-121.5 -41q-89 0 -164 47v34l8 -8l9 -9t10 -8.5t12.5 -9t13.5 -8t16.5 -8t18.5 -6.5t22 -5.5t25 -3t29 -1.5q57 0 94 32.5t37 95.5q0 39 -23 66.5t-56 44.5t-66.5 33.5t-56.5 43.5
t-23 64q0 34 24 64.5t52 51.5t52 54.5t24 72.5q0 52 -38.5 75.5t-97.5 23.5q-82 0 -120.5 -50t-38.5 -161v-510h-36v486h-97v14h97v10q0 35 4 64t17 60t34 52t58 35t87 14q66 0 115.5 -28.5t49.5 -84.5q0 -37 -25.5 -70t-56.5 -53.5t-56.5 -47.5t-25.5 -52z" />
    <glyph glyph-name="agrave" unicode="&#xe0;" horiz-adv-x="527" 
d="M288 570h-14l-151 166v5h45zM267 514q54 0 90 -16t53.5 -48t23.5 -68t6 -89v-313h-16l-13 164q-32 -66 -92.5 -113t-136.5 -47q-64 0 -100.5 31.5t-36.5 85.5q0 46 23.5 79.5t58.5 52t87 29t95 14t97 3.5v27q0 103 -27 148.5t-115 45.5q-102 0 -187 -72v34q106 52 190 52
zM194 3q65 0 121 44t91 120v99q-39 -1 -61 -2.5t-61 -5.5t-63 -10t-53.5 -17t-46 -26t-28.5 -37.5t-12 -50.5q0 -114 113 -114z" />
    <glyph glyph-name="aacute" unicode="&#xe1;" horiz-adv-x="527" 
d="M392 747l-151 -167h-14l120 171h45v-4zM267 514q54 0 90 -16t53.5 -48t23.5 -68t6 -89v-313h-16l-13 164q-32 -66 -92.5 -113t-136.5 -47q-64 0 -100.5 31.5t-36.5 85.5q0 46 23.5 79.5t58.5 52t87 29t95 14t97 3.5v27q0 103 -27 148.5t-115 45.5q-102 0 -187 -72v34
q106 52 190 52zM194 3q65 0 121 44t91 120v99q-39 -1 -61 -2.5t-61 -5.5t-63 -10t-53.5 -17t-46 -26t-28.5 -37.5t-12 -50.5q0 -114 113 -114z" />
    <glyph glyph-name="acircumflex" unicode="&#xe2;" horiz-adv-x="527" 
d="M254 717l-154 -145h-16l151 168h38l151 -168h-16zM267 514q54 0 90 -16t53.5 -48t23.5 -68t6 -89v-313h-16l-13 164q-32 -66 -92.5 -113t-136.5 -47q-64 0 -100.5 31.5t-36.5 85.5q0 46 23.5 79.5t58.5 52t87 29t95 14t97 3.5v27q0 103 -27 148.5t-115 45.5
q-102 0 -187 -72v34q106 52 190 52zM194 3q65 0 121 44t91 120v99q-39 -1 -61 -2.5t-61 -5.5t-63 -10t-53.5 -17t-46 -26t-28.5 -37.5t-12 -50.5q0 -114 113 -114z" />
    <glyph glyph-name="atilde" unicode="&#xe3;" horiz-adv-x="527" 
d="M155 676q-53 0 -53 -80h-14q0 106 79 106q29 0 87.5 -42t97.5 -42q53 0 53 83h14q0 -55 -18.5 -81.5t-62.5 -26.5q-41 0 -98 41.5t-85 41.5zM267 514q54 0 90 -16t53.5 -48t23.5 -68t6 -89v-313h-16l-13 164q-32 -66 -92.5 -113t-136.5 -47q-64 0 -100.5 31.5t-36.5 85.5
q0 46 23.5 79.5t58.5 52t87 29t95 14t97 3.5v27q0 103 -27 148.5t-115 45.5q-102 0 -187 -72v34q106 52 190 52zM194 3q65 0 121 44t91 120v99q-39 -1 -61 -2.5t-61 -5.5t-63 -10t-53.5 -17t-46 -26t-28.5 -37.5t-12 -50.5q0 -114 113 -114z" />
    <glyph glyph-name="adieresis" unicode="&#xe4;" horiz-adv-x="527" 
d="M161 613q-15 0 -25.5 10.5t-10.5 25.5t10.5 25.5t25.5 10.5t25.5 -10.5t10.5 -25.5t-10.5 -25.5t-25.5 -10.5zM346 613q-15 0 -25.5 10.5t-10.5 25.5t10.5 25.5t25.5 10.5t25.5 -10.5t10.5 -25.5t-10.5 -25.5t-25.5 -10.5zM267 514q54 0 90 -16t53.5 -48t23.5 -68t6 -89
v-313h-16l-13 164q-32 -66 -92.5 -113t-136.5 -47q-64 0 -100.5 31.5t-36.5 85.5q0 46 23.5 79.5t58.5 52t87 29t95 14t97 3.5v27q0 103 -27 148.5t-115 45.5q-102 0 -187 -72v34q106 52 190 52zM194 3q65 0 121 44t91 120v99q-39 -1 -61 -2.5t-61 -5.5t-63 -10t-53.5 -17
t-46 -26t-28.5 -37.5t-12 -50.5q0 -114 113 -114z" />
    <glyph glyph-name="aring" unicode="&#xe5;" horiz-adv-x="527" 
d="M252 556q-42 0 -70.5 28.5t-28.5 70.5q0 41 28.5 69.5t70.5 28.5t70 -28.5t28 -69.5q0 -42 -28 -70.5t-70 -28.5zM252 737q-36 0 -58.5 -23t-22.5 -59t22.5 -59.5t58.5 -23.5q35 0 57.5 23.5t22.5 59.5q0 35 -22.5 58.5t-57.5 23.5zM267 514q54 0 90 -16t53.5 -48
t23.5 -68t6 -89v-313h-16l-13 164q-32 -66 -92.5 -113t-136.5 -47q-64 0 -100.5 31.5t-36.5 85.5q0 46 23.5 79.5t58.5 52t87 29t95 14t97 3.5v27q0 103 -27 148.5t-115 45.5q-102 0 -187 -72v34q106 52 190 52zM194 3q65 0 121 44t91 120v99q-39 -1 -61 -2.5t-61 -5.5
t-63 -10t-53.5 -17t-46 -26t-28.5 -37.5t-12 -50.5q0 -114 113 -114z" />
    <glyph glyph-name="ae" unicode="&#xe6;" horiz-adv-x="911" 
d="M442 255v-2q0 -113 60.5 -184t165.5 -71q44 0 80 10.5t51.5 19.5t39.5 27v-16q-68 -55 -171 -55q-129 0 -202 91q-38 42 -52 105q-27 -96 -89 -146t-144 -50q-64 0 -100.5 31.5t-36.5 85.5q0 46 24 80t59 52t87 29t95.5 14t97.5 3l-1 46q0 90 -31.5 133t-114.5 43
q-92 0 -178 -72v34q106 52 191 52q75 0 112.5 -33.5t48.5 -99.5q32 64 93 98.5t129 34.5q88 0 146.5 -62t58.5 -157q0 -19 -2 -41h-417zM656 501q-90 0 -150 -59.5t-64 -172.5h382q1 8 1 27q0 92 -45 148.5t-124 56.5zM193 3q157 0 217 200q-4 21 -4 50v13q-152 -6 -213 -24
q-112 -35 -113 -125q0 -114 113 -114z" />
    <glyph glyph-name="ccedilla" unicode="&#xe7;" horiz-adv-x="498" 
d="M325 501q-105 0 -169.5 -65.5t-64.5 -185.5q0 -112 57.5 -182t156.5 -70t154 44v-14q-25 -20 -69 -32t-87 -12l-27 -46q104 -20 104 -84q0 -34 -28.5 -56t-72.5 -22q-52 0 -90 29v30q24 -25 43 -36t47 -11q33 0 50 17t17 46q0 33 -23 49t-68 25l34 59q-109 4 -171.5 76
t-62.5 190q0 120 72.5 192.5t197.5 72.5q90 0 134 -28v-34q-50 48 -134 48z" />
    <glyph glyph-name="egrave" unicode="&#xe8;" horiz-adv-x="559" 
d="M339 573h-14l-151 166v5h45zM90 255v-2q0 -113 60.5 -184t165.5 -71q44 0 80 10.5t51.5 19.5t39.5 27v-16q-68 -55 -171 -55q-116 0 -189 75.5t-73 193.5q0 124 75 193t175 69q88 0 146.5 -62t58.5 -157q0 -19 -2 -41h-417zM304 501q-90 0 -150 -59.5t-64 -172.5h382
q1 8 1 27q0 92 -45 148.5t-124 56.5z" />
    <glyph glyph-name="eacute" unicode="&#xe9;" horiz-adv-x="559" 
d="M443 750l-151 -167h-14l120 171h45v-4zM90 255v-2q0 -113 60.5 -184t165.5 -71q44 0 80 10.5t51.5 19.5t39.5 27v-16q-68 -55 -171 -55q-116 0 -189 75.5t-73 193.5q0 124 75 193t175 69q88 0 146.5 -62t58.5 -157q0 -19 -2 -41h-417zM304 501q-90 0 -150 -59.5
t-64 -172.5h382q1 8 1 27q0 92 -45 148.5t-124 56.5z" />
    <glyph glyph-name="ecircumflex" unicode="&#xea;" horiz-adv-x="559" 
d="M305 720l-154 -145h-16l151 168h38l151 -168h-16zM90 255v-2q0 -113 60.5 -184t165.5 -71q44 0 80 10.5t51.5 19.5t39.5 27v-16q-68 -55 -171 -55q-116 0 -189 75.5t-73 193.5q0 124 75 193t175 69q88 0 146.5 -62t58.5 -157q0 -19 -2 -41h-417zM304 501
q-90 0 -150 -59.5t-64 -172.5h382q1 8 1 27q0 92 -45 148.5t-124 56.5z" />
    <glyph glyph-name="edieresis" unicode="&#xeb;" horiz-adv-x="559" 
d="M212 616q-15 0 -25.5 10.5t-10.5 25.5t10.5 25.5t25.5 10.5t25.5 -10.5t10.5 -25.5t-10.5 -25.5t-25.5 -10.5zM397 616q-15 0 -25.5 10.5t-10.5 25.5t10.5 25.5t25.5 10.5t25.5 -10.5t10.5 -25.5t-10.5 -25.5t-25.5 -10.5zM90 255v-2q0 -113 60.5 -184t165.5 -71
q44 0 80 10.5t51.5 19.5t39.5 27v-16q-68 -55 -171 -55q-116 0 -189 75.5t-73 193.5q0 124 75 193t175 69q88 0 146.5 -62t58.5 -157q0 -19 -2 -41h-417zM304 501q-90 0 -150 -59.5t-64 -172.5h382q1 8 1 27q0 92 -45 148.5t-124 56.5z" />
    <glyph glyph-name="igrave" unicode="&#xec;" horiz-adv-x="222" 
d="M131 572l-151 166v5h45l120 -171h-14zM94 0v500h34v-500h-34z" />
    <glyph glyph-name="iacute" unicode="&#xed;" horiz-adv-x="222" 
d="M84 582l120 171h45v-4l-151 -167h-14zM94 0v500h34v-500h-34z" />
    <glyph glyph-name="icircumflex" unicode="&#xee;" horiz-adv-x="222" 
d="M-59 574l151 168h38l151 -168h-16l-154 145l-154 -145h-16zM94 0v500h34v-500h-34z" />
    <glyph glyph-name="idieresis" unicode="&#xef;" horiz-adv-x="222" 
d="M18 615q-15 0 -25.5 10.5t-10.5 25.5t10.5 25.5t25.5 10.5t25.5 -10.5t10.5 -25.5t-10.5 -25.5t-25.5 -10.5zM203 615q-15 0 -25.5 10.5t-10.5 25.5t10.5 25.5t25.5 10.5t25.5 -10.5t10.5 -25.5t-10.5 -25.5t-25.5 -10.5zM94 0v500h34v-500h-34z" />
    <glyph glyph-name="eth" unicode="&#xf0;" horiz-adv-x="603" 
d="M380 630q163 -131 163 -373q0 -114 -68 -193t-176 -79t-176 75.5t-68 188.5t68 189t176 76q120 0 187 -85q-33 122 -122 195l-121 -49v15l108 43q-63 48 -155 76l5 9q94 -24 166 -78l130 52v-15zM299 -1q91 0 149.5 71t58.5 179q0 107 -58.5 179t-149.5 72t-149.5 -72
t-58.5 -179q0 -108 58.5 -179t149.5 -71z" />
    <glyph glyph-name="ntilde" unicode="&#xf1;" horiz-adv-x="605" 
d="M216 676q-53 0 -53 -80h-14q0 106 79 106q29 0 87.5 -42t97.5 -42q53 0 53 83h14q0 -55 -18.5 -81.5t-62.5 -26.5q-41 0 -98 41.5t-85 41.5zM327 514q93 0 142 -51.5t49 -149.5v-313h-34v313q0 92 -39.5 137.5t-123.5 45.5q-130 0 -193 -155v-341h-34v520h16l18 -149
q65 143 199 143z" />
    <glyph glyph-name="ograve" unicode="&#xf2;" horiz-adv-x="626" 
d="M333 570l-151 166v5h45l120 -171h-14zM313 -15q-118 0 -188.5 75.5t-70.5 189.5t70.5 189t188.5 75q119 0 189 -75t70 -189q0 -109 -71 -187t-188 -78zM313 -1q101 0 162 71t61 180t-61 179.5t-162 70.5t-162 -70.5t-61 -179.5t61 -180t162 -71z" />
    <glyph glyph-name="oacute" unicode="&#xf3;" horiz-adv-x="626" 
d="M286 580l120 171h45v-4l-151 -167h-14zM313 -15q-118 0 -188.5 75.5t-70.5 189.5t70.5 189t188.5 75q119 0 189 -75t70 -189q0 -109 -71 -187t-188 -78zM313 -1q101 0 162 71t61 180t-61 179.5t-162 70.5t-162 -70.5t-61 -179.5t61 -180t162 -71z" />
    <glyph glyph-name="ocircumflex" unicode="&#xf4;" horiz-adv-x="626" 
d="M143 572l151 168h38l151 -168h-16l-154 145l-154 -145h-16zM313 -15q-118 0 -188.5 75.5t-70.5 189.5t70.5 189t188.5 75q119 0 189 -75t70 -189q0 -109 -71 -187t-188 -78zM313 -1q101 0 162 71t61 180t-61 179.5t-162 70.5t-162 -70.5t-61 -179.5t61 -180t162 -71z" />
    <glyph glyph-name="otilde" unicode="&#xf5;" horiz-adv-x="626" 
d="M397 593q-41 0 -98 41.5t-85 41.5q-53 0 -53 -80h-14q0 106 79 106q29 0 87.5 -42t97.5 -42q53 0 53 83h14q0 -55 -18.5 -81.5t-62.5 -26.5zM313 -15q-118 0 -188.5 75.5t-70.5 189.5t70.5 189t188.5 75q119 0 189 -75t70 -189q0 -109 -71 -187t-188 -78zM313 -1
q101 0 162 71t61 180t-61 179.5t-162 70.5t-162 -70.5t-61 -179.5t61 -180t162 -71z" />
    <glyph glyph-name="odieresis" unicode="&#xf6;" horiz-adv-x="626" 
d="M220 613q-15 0 -25.5 10.5t-10.5 25.5t10.5 25.5t25.5 10.5t25.5 -10.5t10.5 -25.5t-10.5 -25.5t-25.5 -10.5zM405 613q-15 0 -25.5 10.5t-10.5 25.5t10.5 25.5t25.5 10.5t25.5 -10.5t10.5 -25.5t-10.5 -25.5t-25.5 -10.5zM313 -15q-118 0 -188.5 75.5t-70.5 189.5
t70.5 189t188.5 75q119 0 189 -75t70 -189q0 -109 -71 -187t-188 -78zM313 -1q101 0 162 71t61 180t-61 179.5t-162 70.5t-162 -70.5t-61 -179.5t61 -180t162 -71z" />
    <glyph glyph-name="divide" unicode="&#xf7;" horiz-adv-x="540" 
d="M271 457q-15 0 -25.5 10.5t-10.5 25.5t10.5 25.5t25.5 10.5t25.5 -10.5t10.5 -25.5t-10.5 -25.5t-25.5 -10.5zM35 327v14h470v-14h-470zM271 136q-15 0 -25.5 10.5t-10.5 25.5t10.5 25.5t25.5 10.5t25.5 -10.5t10.5 -25.5t-10.5 -25.5t-25.5 -10.5z" />
    <glyph glyph-name="oslash" unicode="&#xf8;" horiz-adv-x="638" 
d="M578 500l-66 -66q66 -72 66 -184q0 -109 -71 -187t-188 -78q-112 0 -184 70l-55 -55h-21l66 66q-65 74 -65 184q0 114 70.5 189t188.5 75q112 0 183 -69l55 55h21zM96 250q0 -97 48 -164l340 340q-63 74 -165 74q-101 0 -162 -70.5t-61 -179.5zM542 250q0 98 -49 164
l-339 -340q61 -75 165 -75q101 0 162 71t61 180z" />
    <glyph glyph-name="ugrave" unicode="&#xf9;" horiz-adv-x="604" 
d="M336 571h-14l-151 166v5h45zM476 500h34v-520h-16l-18 157q-16 -64 -64 -107.5t-121 -43.5q-205 0 -205 225v289h34v-289q0 -111 37.5 -161t133.5 -50q140 0 185 172v328z" />
    <glyph glyph-name="uacute" unicode="&#xfa;" horiz-adv-x="604" 
d="M440 748l-151 -167h-14l120 171h45v-4zM476 500h34v-520h-16l-18 157q-16 -64 -64 -107.5t-121 -43.5q-205 0 -205 225v289h34v-289q0 -111 37.5 -161t133.5 -50q140 0 185 172v328z" />
    <glyph glyph-name="ucircumflex" unicode="&#xfb;" horiz-adv-x="604" 
d="M302 718l-154 -145h-16l151 168h38l151 -168h-16zM476 500h34v-520h-16l-18 157q-16 -64 -64 -107.5t-121 -43.5q-205 0 -205 225v289h34v-289q0 -111 37.5 -161t133.5 -50q140 0 185 172v328z" />
    <glyph glyph-name="udieresis" unicode="&#xfc;" horiz-adv-x="604" 
d="M209 614q-15 0 -25.5 10.5t-10.5 25.5t10.5 25.5t25.5 10.5t25.5 -10.5t10.5 -25.5t-10.5 -25.5t-25.5 -10.5zM394 614q-15 0 -25.5 10.5t-10.5 25.5t10.5 25.5t25.5 10.5t25.5 -10.5t10.5 -25.5t-10.5 -25.5t-25.5 -10.5zM476 500h34v-520h-16l-18 157
q-16 -64 -64 -107.5t-121 -43.5q-205 0 -205 225v289h34v-289q0 -111 37.5 -161t133.5 -50q140 0 185 172v328z" />
    <glyph glyph-name="yacute" unicode="&#xfd;" horiz-adv-x="504" 
d="M404 748l-151 -167h-14l120 171h45v-4zM451 500h30l-207 -456l-20 -44l-81 -180l-35 21l105 159l-217 499h34l198 -455h3q155 351 190 456z" />
    <glyph glyph-name="thorn" unicode="&#xfe;" horiz-adv-x="612" 
d="M332 514q103 0 163.5 -68t60.5 -186q0 -121 -60 -198t-162 -77q-45 0 -83.5 16t-62 41t-37.5 47.5t-21 43.5h-2v-298h-34l-1 885h35v-350h2q30 71 85 107.5t117 36.5zM331 3q89 0 139 68.5t50 176.5q0 109 -50 178.5t-139 69.5q-142 0 -203 -154v-172q25 -83 74 -125
t129 -42z" />
    <glyph glyph-name="ydieresis" unicode="&#xff;" horiz-adv-x="504" 
d="M173 614q-15 0 -25.5 10.5t-10.5 25.5t10.5 25.5t25.5 10.5t25.5 -10.5t10.5 -25.5t-10.5 -25.5t-25.5 -10.5zM358 614q-15 0 -25.5 10.5t-10.5 25.5t10.5 25.5t25.5 10.5t25.5 -10.5t10.5 -25.5t-10.5 -25.5t-25.5 -10.5zM451 500h30l-207 -456l-20 -44l-81 -180l-35 21
l105 159l-217 499h34l198 -455h3q155 351 190 456z" />
    <glyph glyph-name="Amacron" unicode="&#x100;" horiz-adv-x="622" 
d="M448 833v-16h-284v16h284zM568 0l-67 161h-389q-47 -138 -50 -161h-34q42 104 125.5 322.5t125.5 322.5l21 54h11l293 -699h-36zM116 175h379l-197 470h-3q-103 -249 -179 -470z" />
    <glyph glyph-name="amacron" unicode="&#x101;" horiz-adv-x="527" 
d="M396 639v-16h-284v16h284zM267 514q54 0 90 -16t53.5 -48t23.5 -68t6 -89v-313h-16l-13 164q-32 -66 -92.5 -113t-136.5 -47q-64 0 -100.5 31.5t-36.5 85.5q0 46 23.5 79.5t58.5 52t87 29t95 14t97 3.5v27q0 103 -27 148.5t-115 45.5q-102 0 -187 -72v34q106 52 190 52z
M194 3q65 0 121 44t91 120v99q-39 -1 -61 -2.5t-61 -5.5t-63 -10t-53.5 -17t-46 -26t-28.5 -37.5t-12 -50.5q0 -114 113 -114z" />
    <glyph glyph-name="Abreve" unicode="&#x102;" horiz-adv-x="622" 
d="M306 784q-56 0 -89 38t-33 103h14q0 -55 30 -83t78 -28t78 28t30 83h14q0 -64 -33.5 -102.5t-88.5 -38.5zM568 0l-67 161h-389q-47 -138 -50 -161h-34q42 104 125.5 322.5t125.5 322.5l21 54h11l293 -699h-36zM116 175h379l-197 470h-3q-103 -249 -179 -470z" />
    <glyph glyph-name="abreve" unicode="&#x103;" horiz-adv-x="527" 
d="M254 591q-56 0 -89 38t-33 103h14q0 -55 30 -83t78 -28t78 28t30 83h14q0 -64 -33.5 -102.5t-88.5 -38.5zM267 514q54 0 90 -16t53.5 -48t23.5 -68t6 -89v-313h-16l-13 164q-32 -66 -92.5 -113t-136.5 -47q-64 0 -100.5 31.5t-36.5 85.5q0 46 23.5 79.5t58.5 52t87 29
t95 14t97 3.5v27q0 103 -27 148.5t-115 45.5q-102 0 -187 -72v34q106 52 190 52zM194 3q65 0 121 44t91 120v99q-39 -1 -61 -2.5t-61 -5.5t-63 -10t-53.5 -17t-46 -26t-28.5 -37.5t-12 -50.5q0 -114 113 -114z" />
    <glyph glyph-name="Aogonek" unicode="&#x104;" horiz-adv-x="622" 
d="M28 0q42 104 125.5 322.5t125.5 322.5l21 54h11l293 -699h-12q-89 -63 -89 -140q0 -41 33 -41q16 0 31 13t23 34l10 -5q-22 -56 -69 -56q-31 0 -47.5 16t-16.5 43q0 82 115 136h-14l-67 161h-389q-47 -138 -50 -161h-34zM116 175h379l-197 470h-3q-103 -249 -179 -470z
" />
    <glyph glyph-name="aogonek" unicode="&#x105;" horiz-adv-x="527" 
d="M435 -153l10 -5q-22 -56 -69 -56q-31 0 -47.5 16t-16.5 43q0 82 113 135h-1l-13 164q-32 -66 -92.5 -113t-136.5 -47q-64 0 -100.5 31.5t-36.5 85.5q0 46 23.5 79.5t58.5 52t87 29t95 14t97 3.5v27q0 103 -27 148.5t-115 45.5q-102 0 -187 -72v34q106 52 190 52
q54 0 90 -16t53.5 -48t23.5 -68t6 -89v-313h-4q-88 -62 -88 -139q0 -41 33 -41q16 0 31 13t23 34zM194 3q65 0 121 44t91 120v99q-39 -1 -61 -2.5t-61 -5.5t-63 -10t-53.5 -17t-46 -26t-28.5 -37.5t-12 -50.5q0 -114 113 -114z" />
    <glyph glyph-name="Cacute" unicode="&#x106;" horiz-adv-x="627" 
d="M387 770l120 171h45v-4l-151 -167h-14zM410 -15q-156 0 -253 97t-97 257q0 155 99 255t255 100q56 0 106 -9t71 -22v-34q-55 51 -177 51q-144 0 -230 -98t-86 -243q0 -150 84.5 -245t227.5 -95q108 0 181 43v-19q-79 -38 -181 -38z" />
    <glyph glyph-name="cacute" unicode="&#x107;" horiz-adv-x="498" 
d="M298 581l120 171h45v-4l-151 -167h-14zM303 -16q-115 0 -181.5 72t-66.5 194q0 120 72.5 192.5t197.5 72.5q90 0 134 -28v-34q-50 48 -134 48q-105 0 -169.5 -65.5t-64.5 -185.5q0 -112 57.5 -182t156.5 -70t154 44v-14q-25 -20 -69 -32t-87 -12z" />
    <glyph glyph-name="Cdotaccent" unicode="&#x10a;" horiz-adv-x="627" 
d="M413 794q-15 0 -25.5 10.5t-10.5 25.5t10.5 25.5t25.5 10.5t25.5 -10.5t10.5 -25.5t-10.5 -25.5t-25.5 -10.5zM410 -15q-156 0 -253 97t-97 257q0 155 99 255t255 100q56 0 106 -9t71 -22v-34q-55 51 -177 51q-144 0 -230 -98t-86 -243q0 -150 84.5 -245t227.5 -95
q108 0 181 43v-19q-79 -38 -181 -38z" />
    <glyph glyph-name="cdotaccent" unicode="&#x10b;" horiz-adv-x="498" 
d="M312 592q-15 0 -25.5 10.5t-10.5 25.5t10.5 25.5t25.5 10.5t25.5 -10.5t10.5 -25.5t-10.5 -25.5t-25.5 -10.5zM303 -16q-115 0 -181.5 72t-66.5 194q0 120 72.5 192.5t197.5 72.5q90 0 134 -28v-34q-50 48 -134 48q-105 0 -169.5 -65.5t-64.5 -185.5q0 -112 57.5 -182
t156.5 -70t154 44v-14q-25 -20 -69 -32t-87 -12z" />
    <glyph glyph-name="Ccaron" unicode="&#x10c;" horiz-adv-x="627" 
d="M385 772l-151 168h16l154 -145l154 145h16l-151 -168h-38zM410 -15q-156 0 -253 97t-97 257q0 155 99 255t255 100q56 0 106 -9t71 -22v-34q-55 51 -177 51q-144 0 -230 -98t-86 -243q0 -150 84.5 -245t227.5 -95q108 0 181 43v-19q-79 -38 -181 -38z" />
    <glyph glyph-name="ccaron" unicode="&#x10d;" horiz-adv-x="498" 
d="M276 580l-151 168h16l154 -145l154 145h16l-151 -168h-38zM303 -16q-115 0 -181.5 72t-66.5 194q0 120 72.5 192.5t197.5 72.5q90 0 134 -28v-34q-50 48 -134 48q-105 0 -169.5 -65.5t-64.5 -185.5q0 -112 57.5 -182t156.5 -70t154 44v-14q-25 -20 -69 -32t-87 -12z" />
    <glyph glyph-name="Dcaron" unicode="&#x10e;" horiz-adv-x="730" 
d="M321 757l-151 168h16l154 -145l154 145h16l-151 -168h-38zM108 0v679h212q166 0 257.5 -89.5t91.5 -249.5q0 -161 -91.5 -250.5t-257.5 -89.5h-212zM144 14h176q143 0 227 84.5t84 241.5q0 156 -84.5 240.5t-226.5 84.5h-176v-651z" />
    <glyph glyph-name="dcaron" unicode="&#x10f;" horiz-adv-x="613" 
d="M614 734q16 0 26 -10t10 -27t-19 -60l-33 -70h-24q29 41 54 98q-6 -3 -16 -3q-15 0 -24.5 10.5t-9.5 25.5t10.5 25.5t25.5 10.5zM484 372v348h35v-740h-16l-16 181q-7 -25 -21 -52t-38 -56.5t-63.5 -48.5t-86.5 -19q-102 0 -162 71t-60 184q0 120 61.5 197t162.5 77
q62 0 118 -36t86 -106zM281 3q147 0 203 180v158q-61 155 -203 155q-89 0 -139 -69.5t-50 -178.5q0 -108 50 -176.5t139 -68.5z" />
    <glyph glyph-name="Dcroat" unicode="&#x110;" horiz-adv-x="733" 
d="M323 679q166 0 257.5 -89.5t91.5 -249.5q0 -161 -91.5 -250.5t-257.5 -89.5h-212v332h-72v14h72v333h212zM323 14q143 0 227 84.5t84 241.5q0 156 -84.5 240.5t-226.5 84.5h-176v-319h161v-14h-161v-318h176z" />
    <glyph glyph-name="dcroat" unicode="&#x111;" horiz-adv-x="613" 
d="M637 601v-14h-118v-607h-16l-16 181q-7 -25 -21 -52t-38 -56.5t-63.5 -48.5t-86.5 -19q-102 0 -162 71t-60 184q0 120 61.5 197t162.5 77q62 0 118 -36t86 -106v215h-116v14h116v119h35v-119h118zM281 3q147 0 203 180v158q-61 155 -203 155q-89 0 -139 -69.5t-50 -178.5
q0 -108 50 -176.5t139 -68.5z" />
    <glyph glyph-name="Emacron" unicode="&#x112;" horiz-adv-x="517" 
d="M428 828v-16h-284v16h284zM144 14q157 0 219.5 3t115.5 13v-30h-371v679h351v-30q-90 16 -315 16v-318q209 4 266 8v-30q-119 8 -266 8v-319z" />
    <glyph glyph-name="emacron" unicode="&#x113;" horiz-adv-x="559" 
d="M447 642v-16h-284v16h284zM90 255v-2q0 -113 60.5 -184t165.5 -71q44 0 80 10.5t51.5 19.5t39.5 27v-16q-68 -55 -171 -55q-116 0 -189 75.5t-73 193.5q0 124 75 193t175 69q88 0 146.5 -62t58.5 -157q0 -19 -2 -41h-417zM304 501q-90 0 -150 -59.5t-64 -172.5h382
q1 8 1 27q0 92 -45 148.5t-124 56.5z" />
    <glyph glyph-name="Edotaccent" unicode="&#x116;" horiz-adv-x="517" 
d="M285 794q-15 0 -25.5 10.5t-10.5 25.5t10.5 25.5t25.5 10.5t25.5 -10.5t10.5 -25.5t-10.5 -25.5t-25.5 -10.5zM144 14q157 0 219.5 3t115.5 13v-30h-371v679h351v-30q-90 16 -315 16v-318q209 4 266 8v-30q-119 8 -266 8v-319z" />
    <glyph glyph-name="edotaccent" unicode="&#x117;" horiz-adv-x="559" 
d="M304 614q-15 0 -25.5 10.5t-10.5 25.5t10.5 25.5t25.5 10.5t25.5 -10.5t10.5 -25.5t-10.5 -25.5t-25.5 -10.5zM90 255v-2q0 -113 60.5 -184t165.5 -71q44 0 80 10.5t51.5 19.5t39.5 27v-16q-68 -55 -171 -55q-116 0 -189 75.5t-73 193.5q0 124 75 193t175 69
q88 0 146.5 -62t58.5 -157q0 -19 -2 -41h-417zM304 501q-90 0 -150 -59.5t-64 -172.5h382q1 8 1 27q0 92 -45 148.5t-124 56.5z" />
    <glyph glyph-name="Eogonek" unicode="&#x118;" horiz-adv-x="517" 
d="M477 -134l10 -5q-22 -56 -69 -56q-31 0 -47.5 16t-16.5 43q0 82 115 136h-361v679h351v-30q-90 16 -315 16v-318q209 4 266 8v-30q-119 8 -266 8v-319q157 0 219.5 3t115.5 13v-30q-89 -63 -89 -140q0 -41 33 -41q16 0 31 13t23 34z" />
    <glyph glyph-name="eogonek" unicode="&#x119;" horiz-adv-x="559" 
d="M90 255v-2q0 -113 60.5 -184t165.5 -71q44 0 80 10.5t51.5 19.5t39.5 27v-16q-36 -30 -83 -43q-84 -63 -84 -137q0 -41 33 -41q16 0 31 13t23 34l10 -5q-22 -56 -69 -56q-31 0 -47.5 16t-16.5 43q0 75 97 127q-30 -6 -65 -6q-116 0 -189 75.5t-73 193.5q0 124 75 193
t175 69q88 0 146.5 -62t58.5 -157q0 -19 -2 -41h-417zM304 501q-90 0 -150 -59.5t-64 -172.5h382q1 8 1 27q0 92 -45 148.5t-124 56.5z" />
    <glyph glyph-name="Ecaron" unicode="&#x11a;" horiz-adv-x="517" 
d="M307 772h-38l-151 168h16l154 -145l154 145h16zM144 14q157 0 219.5 3t115.5 13v-30h-371v679h351v-30q-90 16 -315 16v-318q209 4 266 8v-30q-119 8 -266 8v-319z" />
    <glyph glyph-name="ecaron" unicode="&#x11b;" horiz-adv-x="559" 
d="M324 582h-38l-151 168h16l154 -145l154 145h16zM90 255v-2q0 -113 60.5 -184t165.5 -71q44 0 80 10.5t51.5 19.5t39.5 27v-16q-68 -55 -171 -55q-116 0 -189 75.5t-73 193.5q0 124 75 193t175 69q88 0 146.5 -62t58.5 -157q0 -19 -2 -41h-417zM304 501q-90 0 -150 -59.5
t-64 -172.5h382q1 8 1 27q0 92 -45 148.5t-124 56.5z" />
    <glyph glyph-name="Gbreve" unicode="&#x11e;" horiz-adv-x="696" 
d="M413 779q-56 0 -89 38t-33 103h14q0 -55 30 -83t78 -28t78 28t30 83h14q0 -64 -33.5 -102.5t-88.5 -38.5zM393 -15q-146 0 -240 103t-94 255t99 251.5t255 99.5q56 0 106 -9t71 -22v-34q-55 51 -177 51q-143 0 -229.5 -97.5t-86.5 -239.5q0 -148 83.5 -246t212.5 -98
q116 0 205 55v285h35v-280q-55 -39 -109.5 -56.5t-130.5 -17.5z" />
    <glyph glyph-name="gbreve" unicode="&#x11f;" horiz-adv-x="534" 
d="M260 591q-56 0 -89 38t-33 103h14q0 -55 30 -83t78 -28t78 28t30 83h14q0 -64 -33.5 -102.5t-88.5 -38.5zM363 71q145 0 145 -100q0 -66 -60 -108.5t-167 -42.5q-140 0 -220 40v36q66 -62 222 -62q96 0 150.5 37t54.5 91q0 79 -121 79h-289l-9 30l84 120q-92 45 -92 149
q0 76 55.5 125t144.5 49q48 0 91 -16l118 36v-44l-99 -2q42 -22 66.5 -61t24.5 -87q0 -77 -53.5 -124.5t-148.5 -47.5q-51 0 -93 17l-79 -114h275zM97 340q0 -73 45 -115.5t119 -42.5t119.5 42.5t45.5 115.5q0 74 -45.5 117t-119.5 43t-119 -43.5t-45 -116.5z" />
    <glyph glyph-name="Gdotaccent" unicode="&#x120;" horiz-adv-x="696" 
d="M412 794q-15 0 -25.5 10.5t-10.5 25.5t10.5 25.5t25.5 10.5t25.5 -10.5t10.5 -25.5t-10.5 -25.5t-25.5 -10.5zM393 -15q-146 0 -240 103t-94 255t99 251.5t255 99.5q56 0 106 -9t71 -22v-34q-55 51 -177 51q-143 0 -229.5 -97.5t-86.5 -239.5q0 -148 83.5 -246t212.5 -98
q116 0 205 55v285h35v-280q-55 -39 -109.5 -56.5t-130.5 -17.5z" />
    <glyph glyph-name="gdotaccent" unicode="&#x121;" horiz-adv-x="534" 
d="M259 611q-15 0 -25.5 10.5t-10.5 25.5t10.5 25.5t25.5 10.5t25.5 -10.5t10.5 -25.5t-10.5 -25.5t-25.5 -10.5zM363 71q145 0 145 -100q0 -66 -60 -108.5t-167 -42.5q-140 0 -220 40v36q66 -62 222 -62q96 0 150.5 37t54.5 91q0 79 -121 79h-289l-9 30l84 120
q-92 45 -92 149q0 76 55.5 125t144.5 49q48 0 91 -16l118 36v-44l-99 -2q42 -22 66.5 -61t24.5 -87q0 -77 -53.5 -124.5t-148.5 -47.5q-51 0 -93 17l-79 -114h275zM97 340q0 -73 45 -115.5t119 -42.5t119.5 42.5t45.5 115.5q0 74 -45.5 117t-119.5 43t-119 -43.5t-45 -116.5
z" />
    <glyph glyph-name="uni0122" unicode="&#x122;" horiz-adv-x="696" 
d="M393 -15q-146 0 -240 103t-94 255t99 251.5t255 99.5q56 0 106 -9t71 -22v-34q-55 51 -177 51q-143 0 -229.5 -97.5t-86.5 -239.5q0 -148 83.5 -246t212.5 -98q116 0 205 55v285h35v-280q-55 -39 -109.5 -56.5t-130.5 -17.5zM343 -263q41 55 60 98q-6 -3 -16 -3
q-15 0 -24.5 10.5t-9.5 25.5t10.5 25.5t25.5 10.5q16 0 26 -10t10 -27t-19 -60l-33 -70h-30z" />
    <glyph glyph-name="uni0123" unicode="&#x123;" horiz-adv-x="534" 
d="M265 594q-16 0 -26 10t-10 27t19 60l33 70h30q-41 -55 -60 -98q6 3 16 3q15 0 24.5 -10.5t9.5 -25.5t-10.5 -25.5t-25.5 -10.5zM363 71q145 0 145 -100q0 -66 -60 -108.5t-167 -42.5q-140 0 -220 40v36q66 -62 222 -62q96 0 150.5 37t54.5 91q0 79 -121 79h-289l-9 30
l84 120q-92 45 -92 149q0 76 55.5 125t144.5 49q48 0 91 -16l118 36v-44l-99 -2q42 -22 66.5 -61t24.5 -87q0 -77 -53.5 -124.5t-148.5 -47.5q-51 0 -93 17l-79 -114h275zM97 340q0 -73 45 -115.5t119 -42.5t119.5 42.5t45.5 115.5q0 74 -45.5 117t-119.5 43t-119 -43.5
t-45 -116.5z" />
    <glyph glyph-name="Hbar" unicode="&#x126;" horiz-adv-x="751" 
d="M710 505v-14h-67v-491h-36v322h-463v-322h-36v491h-67v14h67v174h36v-174h463v174h36v-174h67zM607 336v155h-463v-155h463z" />
    <glyph glyph-name="hbar" unicode="&#x127;" horiz-adv-x="605" 
d="M324 514q94 0 144 -52.5t50 -148.5v-313h-34v313q0 92 -40.5 137.5t-125.5 45.5q-71 0 -115 -39.5t-75 -115.5v-341h-34v587h-70v14h70v119h34v-119h165v-14h-165v-216q65 143 196 143z" />
    <glyph glyph-name="Itilde" unicode="&#x128;" horiz-adv-x="252" 
d="M210 775q-41 0 -98 41.5t-85 41.5q-53 0 -53 -80h-14q0 106 79 106q29 0 87.5 -42t97.5 -42q53 0 53 83h14q0 -55 -18.5 -81.5t-62.5 -26.5zM108 0v679h36v-679h-36z" />
    <glyph glyph-name="itilde" unicode="&#x129;" horiz-adv-x="222" 
d="M185 595q-36 0 -88 40t-75 40q-53 0 -53 -77h-14q0 106 79 106q24 0 77.5 -40.5t87.5 -40.5q53 0 53 80h14q0 -55 -18.5 -81.5t-62.5 -26.5zM94 0v500h34v-500h-34z" />
    <glyph glyph-name="Imacron" unicode="&#x12a;" horiz-adv-x="252" 
d="M-16 814v16h284v-16h-284zM108 0v679h36v-679h-36z" />
    <glyph glyph-name="imacron" unicode="&#x12b;" horiz-adv-x="222" 
d="M-31 625v16h284v-16h-284zM94 0v500h34v-500h-34z" />
    <glyph glyph-name="Iogonek" unicode="&#x12e;" horiz-adv-x="252" 
d="M142 -134l10 -5q-22 -56 -69 -56q-31 0 -47.5 16t-16.5 43q0 82 115 136h-26v679h36v-679q-89 -63 -89 -140q0 -41 33 -41q16 0 31 13t23 34z" />
    <glyph glyph-name="iogonek" unicode="&#x12f;" horiz-adv-x="222" 
d="M110 613q-15 0 -25.5 10.5t-10.5 25.5t10.5 25.5t25.5 10.5t25.5 -10.5t10.5 -25.5t-10.5 -25.5t-25.5 -10.5zM72 -181q16 0 31 13t23 34l10 -5q-22 -56 -69 -56q-31 0 -47.5 16t-16.5 43q0 82 115 136h-24v500h34v-500q-89 -63 -89 -140q0 -41 33 -41z" />
    <glyph glyph-name="Idotaccent" unicode="&#x130;" horiz-adv-x="252" 
d="M125 796q-15 0 -25.5 10.5t-10.5 25.5t10.5 25.5t25.5 10.5t25.5 -10.5t10.5 -25.5t-10.5 -25.5t-25.5 -10.5zM108 0v679h36v-679h-36z" />
    <glyph glyph-name="dotlessi" unicode="&#x131;" horiz-adv-x="222" 
d="M94 0v500h34v-500h-34z" />
    <glyph glyph-name="IJ" unicode="&#x132;" horiz-adv-x="664" 
d="M108 0v679h36v-679h-36zM399 -15q-73 0 -121 21v36q17 -15 29.5 -22.5t35.5 -14t54 -6.5q130 0 130 177v503h36v-499q0 -91 -40 -143t-124 -52z" />
    <glyph glyph-name="ij" unicode="&#x133;" horiz-adv-x="485" 
d="M111 595q-15 0 -25.5 10.5t-10.5 25.5t10.5 25.5t25.5 10.5t25.5 -10.5t10.5 -25.5t-10.5 -25.5t-25.5 -10.5zM374 595q-15 0 -25.5 10.5t-10.5 25.5t10.5 25.5t25.5 10.5t25.5 -10.5t10.5 -25.5t-10.5 -25.5t-25.5 -10.5zM94 0v500h34v-500h-34zM239 -180q-50 0 -91 18
v36q47 -40 89 -40q124 0 124 177l-4 489h34v-485q0 -195 -152 -195z" />
    <glyph glyph-name="uni0136" unicode="&#x136;" horiz-adv-x="632" 
d="M347 350l272 -350h-41l-272 350h-162v-350h-36v679h36v-315h158q136 144 266 315h37q-35 -45 -86.5 -102.5t-82 -90t-120.5 -126.5v-10h31zM333 -80q16 0 26 -10t10 -27t-19 -60l-33 -70h-30q41 55 60 98q-6 -3 -16 -3q-15 0 -24.5 10.5t-9.5 25.5t10.5 25.5t25.5 10.5z
" />
    <glyph glyph-name="uni0137" unicode="&#x137;" horiz-adv-x="509" 
d="M94 0v720h34v-454h104q34 34 69 74t55.5 66.5t44 57.5t27.5 36h39q-38 -34 -113 -120t-105 -116v-6h21l237 -258h-41l-230 252h-108v-252h-34zM227 -247q41 55 60 98q-6 -3 -16 -3q-15 0 -24.5 10.5t-9.5 25.5t10.5 25.5t25.5 10.5q16 0 26 -10t10 -27t-19 -60l-33 -70
h-30z" />
    <glyph glyph-name="kgreenlandic" unicode="&#x138;" horiz-adv-x="509" 
d="M94 0v500h34v-234h104q34 34 69 74t55.5 66.5t44 57.5t27.5 36h39q-38 -34 -113 -120t-105 -116v-6h21l237 -258h-41l-230 252h-108v-252h-34z" />
    <glyph glyph-name="Lacute" unicode="&#x139;" horiz-adv-x="472" 
d="M264 937l-151 -167h-14l120 171h45v-4zM144 14q142 0 202 3t113 13v-30h-351v679h36v-665z" />
    <glyph glyph-name="lacute" unicode="&#x13a;" horiz-adv-x="222" 
d="M85 796l120 171h45v-4l-151 -167h-14zM94 0v720h34v-720h-34z" />
    <glyph glyph-name="uni013B" unicode="&#x13b;" horiz-adv-x="472" 
d="M144 14q142 0 202 3t113 13v-30h-351v679h36v-665zM291 -80q16 0 26 -10t10 -27t-19 -60l-33 -70h-30q41 55 60 98q-6 -3 -16 -3q-15 0 -24.5 10.5t-9.5 25.5t10.5 25.5t25.5 10.5z" />
    <glyph glyph-name="uni013C" unicode="&#x13c;" horiz-adv-x="222" 
d="M94 0v720h34v-720h-34zM61 -247q41 55 60 98q-6 -3 -16 -3q-15 0 -24.5 10.5t-9.5 25.5t10.5 25.5t25.5 10.5q16 0 26 -10t10 -27t-19 -60l-33 -70h-30z" />
    <glyph glyph-name="Lcaron" unicode="&#x13d;" horiz-adv-x="476" 
d="M353 522h-24q29 41 54 98q-6 -3 -16 -3q-15 0 -24.5 10.5t-9.5 25.5t10.5 25.5t25.5 10.5q16 0 26 -10t10 -27t-19 -60zM144 14q142 0 202 3t113 13v-30h-351v679h36v-665z" />
    <glyph glyph-name="lcaron" unicode="&#x13e;" horiz-adv-x="222" 
d="M184 567q29 41 54 98q-6 -3 -16 -3q-15 0 -24.5 10.5t-9.5 25.5t10.5 25.5t25.5 10.5q16 0 26 -10t10 -27t-19 -60l-33 -70h-24zM94 0v720h34v-720h-34z" />
    <glyph glyph-name="Ldot" unicode="&#x13f;" horiz-adv-x="478" 
d="M144 14q142 0 202 3t113 13v-30h-351v679h36v-665zM388 322q-15 0 -25.5 10.5t-10.5 25.5t10.5 25.5t25.5 10.5t25.5 -10.5t10.5 -25.5t-10.5 -25.5t-25.5 -10.5z" />
    <glyph glyph-name="ldot" unicode="&#x140;" horiz-adv-x="276" 
d="M94 0v720h34v-720h-34zM214 333q-15 0 -25.5 10.5t-10.5 25.5t10.5 25.5t25.5 10.5t25.5 -10.5t10.5 -25.5t-10.5 -25.5t-25.5 -10.5z" />
    <glyph glyph-name="Lslash" unicode="&#x141;" horiz-adv-x="493" 
d="M165 14q142 0 202 3t113 13v-30h-351v253l-87 -74v21l87 74v405h36v-375l133 113v-21l-133 -113v-269z" />
    <glyph glyph-name="lslash" unicode="&#x142;" horiz-adv-x="325" 
d="M304 469v-17l-118 -85v-367h-34v342l-114 -82v17l114 82v361h34v-336z" />
    <glyph glyph-name="Nacute" unicode="&#x143;" horiz-adv-x="719" 
d="M355 755l120 171h45v-4l-151 -167h-14zM599 -20l-472 654h-3v-368q0 -50 9 -266h-32q8 192 8 267v432h11l472 -654h3v368q0 74 -8 266h32q-9 -216 -9 -266v-433h-11z" />
    <glyph glyph-name="nacute" unicode="&#x144;" horiz-adv-x="605" 
d="M453 747l-151 -167h-14l120 171h45v-4zM327 514q93 0 142 -51.5t49 -149.5v-313h-34v313q0 92 -39.5 137.5t-123.5 45.5q-130 0 -193 -155v-341h-34v520h16l18 -149q65 143 199 143z" />
    <glyph glyph-name="uni0145" unicode="&#x145;" horiz-adv-x="719" 
d="M599 -20l-472 654h-3v-368q0 -50 9 -266h-32q8 192 8 267v432h11l472 -654h3v368q0 74 -8 266h32q-9 -216 -9 -266v-433h-11zM290 -247q41 55 60 98q-6 -3 -16 -3q-15 0 -24.5 10.5t-9.5 25.5t10.5 25.5t25.5 10.5q16 0 26 -10t10 -27t-19 -60l-33 -70h-30z" />
    <glyph glyph-name="uni0146" unicode="&#x146;" horiz-adv-x="605" 
d="M327 514q93 0 142 -51.5t49 -149.5v-313h-34v313q0 92 -39.5 137.5t-123.5 45.5q-130 0 -193 -155v-341h-34v520h16l18 -149q65 143 199 143zM296 -80q16 0 26 -10t10 -27t-19 -60l-33 -70h-30q41 55 60 98q-6 -3 -16 -3q-15 0 -24.5 10.5t-9.5 25.5t10.5 25.5t25.5 10.5
z" />
    <glyph glyph-name="Ncaron" unicode="&#x147;" horiz-adv-x="719" 
d="M353 757l-151 168h16l154 -145l154 145h16l-151 -168h-38zM599 -20l-472 654h-3v-368q0 -50 9 -266h-32q8 192 8 267v432h11l472 -654h3v368q0 74 -8 266h32q-9 -216 -9 -266v-433h-11z" />
    <glyph glyph-name="ncaron" unicode="&#x148;" horiz-adv-x="605" 
d="M334 579h-38l-151 168h16l154 -145l154 145h16zM327 514q93 0 142 -51.5t49 -149.5v-313h-34v313q0 92 -39.5 137.5t-123.5 45.5q-130 0 -193 -155v-341h-34v520h16l18 -149q65 143 199 143z" />
    <glyph glyph-name="napostrophe" unicode="&#x149;" horiz-adv-x="605" 
d="M10 735q16 0 26 -10t10 -27t-19 -60l-33 -70h-24q29 41 54 98q-6 -3 -16 -3q-15 0 -24.5 10.5t-9.5 25.5t10.5 25.5t25.5 10.5zM327 514q93 0 142 -51.5t49 -149.5v-313h-34v313q0 92 -39.5 137.5t-123.5 45.5q-130 0 -193 -155v-341h-34v520h16l18 -149q65 143 199 143z
" />
    <glyph glyph-name="Eng" unicode="&#x14a;" horiz-adv-x="719" 
d="M587 679h32q-9 -216 -9 -266v-433q0 -160 -121 -160q-63 0 -117 30v35q54 -51 117 -51q106 0 106 146v6l-468 648h-3v-368q0 -50 9 -266h-32q8 192 8 267v432h11l472 -654h3v368q0 74 -8 266z" />
    <glyph glyph-name="eng" unicode="&#x14b;" horiz-adv-x="605" 
d="M327 514q93 0 142 -51.5t49 -149.5v-313q0 -85 -39.5 -132.5t-117.5 -47.5q-40 0 -81 18v16q37 -20 79 -20q56 0 90.5 35t34.5 131v313q0 92 -39.5 137.5t-123.5 45.5q-130 0 -193 -155v-341h-34v520h16l18 -149q65 143 199 143z" />
    <glyph glyph-name="Omacron" unicode="&#x14c;" horiz-adv-x="792" 
d="M257 812v16h284v-16h-284zM396 -15q-152 0 -244 100t-92 255q0 154 92 254t244 100t244 -100.5t92 -253.5q0 -155 -91 -255t-245 -100zM396 -1q137 0 217.5 98t80.5 243q0 144 -81 242t-217 98q-137 0 -217.5 -99t-80.5 -241q0 -145 80.5 -243t217.5 -98z" />
    <glyph glyph-name="omacron" unicode="&#x14d;" horiz-adv-x="626" 
d="M171 623v16h284v-16h-284zM313 -15q-118 0 -188.5 75.5t-70.5 189.5t70.5 189t188.5 75q119 0 189 -75t70 -189q0 -109 -71 -187t-188 -78zM313 -1q101 0 162 71t61 180t-61 179.5t-162 70.5t-162 -70.5t-61 -179.5t61 -180t162 -71z" />
    <glyph glyph-name="Ohungarumlaut" unicode="&#x150;" horiz-adv-x="792" 
d="M315 750l90 171h45v-4l-121 -167h-14zM469 750l90 171h45v-4l-121 -167h-14zM396 -15q-152 0 -244 100t-92 255q0 154 92 254t244 100t244 -100.5t92 -253.5q0 -155 -91 -255t-245 -100zM396 -1q137 0 217.5 98t80.5 243q0 144 -81 242t-217 98q-137 0 -217.5 -99
t-80.5 -241q0 -145 80.5 -243t217.5 -98z" />
    <glyph glyph-name="ohungarumlaut" unicode="&#x151;" horiz-adv-x="626" 
d="M214 575l90 171h45v-4l-121 -167h-14zM368 575l90 171h45v-4l-121 -167h-14zM313 -15q-118 0 -188.5 75.5t-70.5 189.5t70.5 189t188.5 75q119 0 189 -75t70 -189q0 -109 -71 -187t-188 -78zM313 -1q101 0 162 71t61 180t-61 179.5t-162 70.5t-162 -70.5t-61 -179.5
t61 -180t162 -71z" />
    <glyph glyph-name="OE" unicode="&#x152;" horiz-adv-x="1106" 
d="M733 14q157 0 219.5 3t115.5 13v-30h-371v170q-39 -86 -117 -135.5t-184 -49.5q-152 0 -244 100t-92 255q0 154 92 254t244 100q105 0 183 -50t118 -136v171h351v-30q-90 16 -315 16v-318q209 4 266 8v-30q-119 8 -266 8v-319zM396 -1q137 0 217.5 98t80.5 243
q0 144 -81 242t-217 98q-137 0 -217.5 -99t-80.5 -241q0 -145 80.5 -243t217.5 -98z" />
    <glyph glyph-name="oe" unicode="&#x153;" horiz-adv-x="1042" 
d="M573 255v-2q0 -113 60.5 -184t165.5 -71q44 0 80 10.5t51.5 19.5t39.5 27v-16q-68 -55 -171 -55q-87 0 -152 45t-93 121q-27 -74 -90 -119.5t-151 -45.5q-118 0 -188.5 75.5t-70.5 189.5t70.5 189t188.5 75q88 0 151 -43t90 -116q27 77 92 118.5t141 41.5q88 0 146.5 -62
t58.5 -157q0 -19 -2 -41h-417zM787 501q-90 0 -150 -59.5t-64 -172.5h382q1 8 1 27q0 92 -45 148.5t-124 56.5zM313 -1q101 0 162 71t61 180t-61 179.5t-162 70.5t-162 -70.5t-61 -179.5t61 -180t162 -71z" />
    <glyph glyph-name="Racute" unicode="&#x154;" horiz-adv-x="606" 
d="M445 924l-151 -167h-14l120 171h45v-4zM554 0h-39l-194 334h-23h-154v-334h-36v679h216q111 0 164.5 -39t53.5 -124q0 -82 -54.5 -127.5t-152.5 -53.5l8 -12h23zM297 348q113 0 160 43t47 121q0 72 -41.5 112.5t-146.5 40.5h-172v-317h153z" />
    <glyph glyph-name="racute" unicode="&#x155;" horiz-adv-x="315" 
d="M255 737h45v-4l-151 -167h-14zM128 415q19 45 64 72.5t97 27.5v-33q-61 0 -100.5 -18t-60.5 -72v-392h-34v520h16z" />
    <glyph glyph-name="uni0156" unicode="&#x156;" horiz-adv-x="606" 
d="M366 323l188 -323h-39l-194 334h-23h-154v-334h-36v679h216q111 0 164.5 -39t53.5 -124q0 -82 -54.5 -127.5t-152.5 -53.5l8 -12h23zM297 348q113 0 160 43t47 121q0 72 -41.5 112.5t-146.5 40.5h-172v-317h153zM315 -80q16 0 26 -10t10 -27t-19 -60l-33 -70h-30
q41 55 60 98q-6 -3 -16 -3q-15 0 -24.5 10.5t-9.5 25.5t10.5 25.5t25.5 10.5z" />
    <glyph glyph-name="uni0157" unicode="&#x157;" horiz-adv-x="315" 
d="M128 415q19 45 64 72.5t97 27.5v-33q-61 0 -100.5 -18t-60.5 -72v-392h-34v520h16zM110 -80q16 0 26 -10t10 -27t-19 -60l-33 -70h-30q41 55 60 98q-6 -3 -16 -3q-15 0 -24.5 10.5t-9.5 25.5t10.5 25.5t25.5 10.5z" />
    <glyph glyph-name="Rcaron" unicode="&#x158;" horiz-adv-x="606" 
d="M316 759h-38l-151 168h16l154 -145l154 145h16zM554 0h-39l-194 334h-23h-154v-334h-36v679h216q111 0 164.5 -39t53.5 -124q0 -82 -54.5 -127.5t-152.5 -53.5l8 -12h23zM297 348q113 0 160 43t47 121q0 72 -41.5 112.5t-146.5 40.5h-172v-317h153z" />
    <glyph glyph-name="rcaron" unicode="&#x159;" horiz-adv-x="315" 
d="M196 565h-38l-151 168h16l154 -145l154 145h16zM128 415q19 45 64 72.5t97 27.5v-33q-61 0 -100.5 -18t-60.5 -72v-392h-34v520h16z" />
    <glyph glyph-name="Sacute" unicode="&#x15a;" horiz-adv-x="519" 
d="M249 770l120 171h45v-4l-151 -167h-14zM248 -15q-57 0 -113.5 14.5t-83.5 28.5v34q70 -63 199 -63q82 0 137.5 40t55.5 107q0 72 -38.5 108t-120.5 70l-66 28q-79 34 -116.5 73t-37.5 111q0 78 62 118t150 40q87 0 152 -36v-34q-58 56 -153 56q-76 0 -129 -32t-53 -103
q0 -60 34 -95t109 -68l65 -27q43 -18 67.5 -31t52.5 -35.5t40.5 -52.5t12.5 -71q0 -84 -65.5 -132t-160.5 -48z" />
    <glyph glyph-name="sacute" unicode="&#x15b;" horiz-adv-x="453" 
d="M185 580l120 171h45v-4l-151 -167h-14zM239 -15q-104 0 -190 47v34q85 -67 186 -67q66 0 106.5 28t40.5 79q0 25 -11.5 46.5t-24 34t-40.5 26t-38.5 17.5t-41.5 14q-42 14 -61.5 22.5t-49 26t-42.5 42t-13 57.5q0 52 41 87t111 35q43 0 91.5 -11.5t71.5 -24.5v-34
q-58 56 -160 56q-60 0 -93 -27t-33 -76q0 -22 10.5 -40.5t20 -28.5t37.5 -23.5t36.5 -16.5t43.5 -15q29 -10 42 -15t38 -15.5t37.5 -21t27 -25t21 -33.5t6.5 -41q0 -57 -43 -97t-127 -40z" />
    <glyph glyph-name="Scedilla" unicode="&#x15e;" horiz-adv-x="519" 
d="M474 165q0 -80 -59 -127t-148 -52l-28 -47q104 -20 104 -84q0 -34 -28.5 -56t-72.5 -22q-52 0 -90 29v30q24 -25 43 -36t47 -11q33 0 50 17t17 46q0 33 -23 49t-68 25l34 59h-4q-57 0 -113.5 14.5t-83.5 28.5v34q70 -63 199 -63q82 0 137.5 40t55.5 107q0 72 -38.5 108
t-120.5 70l-66 28q-79 34 -116.5 73t-37.5 111q0 78 62 118t150 40q87 0 152 -36v-34q-58 56 -153 56q-76 0 -129 -32t-53 -103q0 -60 34 -95t109 -68l65 -27q43 -18 67.5 -31t52.5 -35.5t40.5 -52.5t12.5 -71z" />
    <glyph glyph-name="scedilla" unicode="&#x15f;" horiz-adv-x="453" 
d="M409 122q0 -55 -41 -95t-121 -42l-27 -46q104 -20 104 -84q0 -34 -28.5 -56t-72.5 -22q-52 0 -90 29v30q24 -25 43 -36t47 -11q33 0 50 17t17 46q0 33 -23 49t-68 25l34 59q-102 2 -184 47v34q85 -67 186 -67q66 0 106.5 28t40.5 79q0 25 -11.5 46.5t-24 34t-40.5 26
t-38.5 17.5t-41.5 14q-42 14 -61.5 22.5t-49 26t-42.5 42t-13 57.5q0 52 41 87t111 35q43 0 91.5 -11.5t71.5 -24.5v-34q-58 56 -160 56q-60 0 -93 -27t-33 -76q0 -22 10.5 -40.5t20 -28.5t37.5 -23.5t36.5 -16.5t43.5 -15q29 -10 42 -15t38 -15.5t37.5 -21t27 -25t21 -33.5
t6.5 -41z" />
    <glyph glyph-name="Scaron" unicode="&#x160;" horiz-adv-x="519" 
d="M247 772l-151 168h16l154 -145l154 145h16l-151 -168h-38zM248 -15q-57 0 -113.5 14.5t-83.5 28.5v34q70 -63 199 -63q82 0 137.5 40t55.5 107q0 72 -38.5 108t-120.5 70l-66 28q-79 34 -116.5 73t-37.5 111q0 78 62 118t150 40q87 0 152 -36v-34q-58 56 -153 56
q-76 0 -129 -32t-53 -103q0 -60 34 -95t109 -68l65 -27q43 -18 67.5 -31t52.5 -35.5t40.5 -52.5t12.5 -71q0 -84 -65.5 -132t-160.5 -48z" />
    <glyph glyph-name="scaron" unicode="&#x161;" horiz-adv-x="453" 
d="M213 579l-151 168h16l154 -145l154 145h16l-151 -168h-38zM239 -15q-104 0 -190 47v34q85 -67 186 -67q66 0 106.5 28t40.5 79q0 25 -11.5 46.5t-24 34t-40.5 26t-38.5 17.5t-41.5 14q-42 14 -61.5 22.5t-49 26t-42.5 42t-13 57.5q0 52 41 87t111 35q43 0 91.5 -11.5
t71.5 -24.5v-34q-58 56 -160 56q-60 0 -93 -27t-33 -76q0 -22 10.5 -40.5t20 -28.5t37.5 -23.5t36.5 -16.5t43.5 -15q29 -10 42 -15t38 -15.5t37.5 -21t27 -25t21 -33.5t6.5 -41q0 -57 -43 -97t-127 -40z" />
    <glyph glyph-name="uni0162" unicode="&#x162;" horiz-adv-x="572" 
d="M12 679h548v-30q-77 13 -255 16v-665h-11l-27 -46q104 -20 104 -84q0 -34 -28.5 -56t-72.5 -22q-52 0 -90 29v30q24 -25 43 -36t47 -11q33 0 50 17t17 46q0 33 -23 49t-68 25l34 59h-11v665q-179 -1 -257 -16v30z" />
    <glyph glyph-name="uni0163" unicode="&#x163;" horiz-adv-x="310" 
d="M172 0h-11l-25 -43q104 -20 104 -84q0 -34 -28.5 -56t-72.5 -22q-52 0 -90 29v30q24 -25 43 -36t47 -11q33 0 50 17t17 46q0 33 -23 49t-68 25l33 56h-10v486h-127v14h127l18 132h16v-132h127v-14h-127v-486z" />
    <glyph glyph-name="Tcaron" unicode="&#x164;" horiz-adv-x="572" 
d="M296 772h-38l-151 168h16l154 -145l154 145h16zM12 679h548v-30q-77 13 -255 16v-665h-36v665q-179 -1 -257 -16v30z" />
    <glyph glyph-name="tcaron" unicode="&#x165;" horiz-adv-x="310" 
d="M262 557q29 41 54 98q-6 -3 -16 -3q-15 0 -24.5 10.5t-9.5 25.5t10.5 25.5t25.5 10.5q16 0 26 -10t10 -27t-19 -60l-33 -70h-24zM138 0v486h-127v14h127l18 132h16v-132h127v-14h-127v-486h-34z" />
    <glyph glyph-name="Tbar" unicode="&#x166;" horiz-adv-x="587" 
d="M19 679h548v-30q-77 13 -255 16v-294h164v-14h-164v-357h-36v357h-160v14h160v294q-179 -1 -257 -16v30z" />
    <glyph glyph-name="tbar" unicode="&#x167;" horiz-adv-x="336" 
d="M311 486h-127v-189h119v-14h-119v-283h-34v283h-116v14h116v189h-127v14h127l18 132h16v-132h127v-14z" />
    <glyph glyph-name="Utilde" unicode="&#x168;" horiz-adv-x="702" 
d="M434 759q-41 0 -98 41.5t-85 41.5q-53 0 -53 -80h-14q0 106 79 106q29 0 87.5 -42t97.5 -42q53 0 53 83h14q0 -55 -18.5 -81.5t-62.5 -26.5zM350 -15q-135 0 -193 75.5t-58 214.5v404h36v-419q0 -130 49.5 -193.5t180.5 -63.5q109 0 165 69t56 200v141q0 74 -8 266h32
q-9 -216 -9 -266v-141q0 -287 -251 -287z" />
    <glyph glyph-name="utilde" unicode="&#x169;" horiz-adv-x="604" 
d="M203 677q-53 0 -53 -80h-14q0 106 79 106q29 0 87.5 -42t97.5 -42q53 0 53 83h14q0 -55 -18.5 -81.5t-62.5 -26.5q-41 0 -98 41.5t-85 41.5zM476 500h34v-520h-16l-18 157q-16 -64 -64 -107.5t-121 -43.5q-205 0 -205 225v289h34v-289q0 -111 37.5 -161t133.5 -50
q140 0 185 172v328z" />
    <glyph glyph-name="Umacron" unicode="&#x16a;" horiz-adv-x="702" 
d="M208 798v16h284v-16h-284zM350 -15q-135 0 -193 75.5t-58 214.5v404h36v-419q0 -130 49.5 -193.5t180.5 -63.5q109 0 165 69t56 200v141q0 74 -8 266h32q-9 -216 -9 -266v-141q0 -287 -251 -287z" />
    <glyph glyph-name="umacron" unicode="&#x16b;" horiz-adv-x="604" 
d="M444 640v-16h-284v16h284zM476 500h34v-520h-16l-18 157q-16 -64 -64 -107.5t-121 -43.5q-205 0 -205 225v289h34v-289q0 -111 37.5 -161t133.5 -50q140 0 185 172v328z" />
    <glyph glyph-name="Uring" unicode="&#x16e;" horiz-adv-x="702" 
d="M350 736q-42 0 -70.5 28.5t-28.5 70.5q0 41 28.5 69.5t70.5 28.5t70 -28.5t28 -69.5q0 -42 -28 -70.5t-70 -28.5zM350 752q35 0 57.5 23.5t22.5 59.5q0 35 -22.5 58.5t-57.5 23.5q-36 0 -58.5 -23t-22.5 -59t22.5 -59.5t58.5 -23.5zM350 -15q-135 0 -193 75.5t-58 214.5
v404h36v-419q0 -130 49.5 -193.5t180.5 -63.5q109 0 165 69t56 200v141q0 74 -8 266h32q-9 -216 -9 -266v-141q0 -287 -251 -287z" />
    <glyph glyph-name="uring" unicode="&#x16f;" horiz-adv-x="604" 
d="M300 557q-42 0 -70.5 28.5t-28.5 70.5q0 41 28.5 69.5t70.5 28.5t70 -28.5t28 -69.5q0 -42 -28 -70.5t-70 -28.5zM300 738q-36 0 -58.5 -23t-22.5 -59t22.5 -59.5t58.5 -23.5q35 0 57.5 23.5t22.5 59.5q0 35 -22.5 58.5t-57.5 23.5zM476 500h34v-520h-16l-18 157
q-16 -64 -64 -107.5t-121 -43.5q-205 0 -205 225v289h34v-289q0 -111 37.5 -161t133.5 -50q140 0 185 172v328z" />
    <glyph glyph-name="Uhungarumlaut" unicode="&#x170;" horiz-adv-x="702" 
d="M269 736l90 171h45v-4l-121 -167h-14zM423 736l90 171h45v-4l-121 -167h-14zM350 -15q-135 0 -193 75.5t-58 214.5v404h36v-419q0 -130 49.5 -193.5t180.5 -63.5q109 0 165 69t56 200v141q0 74 -8 266h32q-9 -216 -9 -266v-141q0 -287 -251 -287z" />
    <glyph glyph-name="uhungarumlaut" unicode="&#x171;" horiz-adv-x="604" 
d="M338 743l-121 -167h-14l90 171h45v-4zM492 743l-121 -167h-14l90 171h45v-4zM476 500h34v-520h-16l-18 157q-16 -64 -64 -107.5t-121 -43.5q-205 0 -205 225v289h34v-289q0 -111 37.5 -161t133.5 -50q140 0 185 172v328z" />
    <glyph glyph-name="Uogonek" unicode="&#x172;" horiz-adv-x="702" 
d="M578 679h32q-9 -216 -9 -266v-141q0 -244 -181 -281q-87 -62 -87 -138q0 -41 33 -41q16 0 31 13t23 34l10 -5q-22 -56 -69 -56q-31 0 -47.5 16t-16.5 43q0 79 106 132q-23 -4 -53 -4q-135 0 -193 75.5t-58 214.5v404h36v-419q0 -130 49.5 -193.5t180.5 -63.5
q109 0 165 69t56 200v141q0 74 -8 266z" />
    <glyph glyph-name="uogonek" unicode="&#x173;" horiz-adv-x="604" 
d="M505 -154l10 -5q-22 -56 -69 -56q-31 0 -47.5 16t-16.5 43q0 82 115 136h-3l-18 157q-16 -64 -64 -107.5t-121 -43.5q-205 0 -205 225v289h34v-289q0 -111 37.5 -161t133.5 -50q140 0 185 172v328h34v-520h-3q-89 -63 -89 -140q0 -41 33 -41q16 0 31 13t23 34z" />
    <glyph glyph-name="Wcircumflex" unicode="&#x174;" horiz-adv-x="997" 
d="M506 886l-154 -145h-16l151 168h38l151 -168h-16zM936 679h36q-36 -103 -108.5 -318.5t-109.5 -317.5l-21 -63h-11l-229 658l-211 -658h-11l-251 699h36l227 -635h3l210 655h11l228 -657h3q179 519 198 637z" />
    <glyph glyph-name="wcircumflex" unicode="&#x175;" horiz-adv-x="800" 
d="M405 718l-154 -145h-16l151 168h38l151 -168h-16zM746 500h30q-23 -60 -76.5 -204.5t-102.5 -268.5l-18 -48h-11l-167 489l-175 -488h-11l-187 520h34l166 -461h3l173 481h11l166 -492h3q132 351 162 472z" />
    <glyph glyph-name="Ycircumflex" unicode="&#x176;" horiz-adv-x="559" 
d="M116 741l151 168h38l151 -168h-16l-154 145l-154 -145h-16zM260 0v302l-224 377h36l211 -357h3q165 258 215 357h36q-214 -323 -241 -364v-315h-36z" />
    <glyph glyph-name="ycircumflex" unicode="&#x177;" horiz-adv-x="504" 
d="M266 718l-154 -145h-16l151 168h38l151 -168h-16zM451 500h30l-207 -456l-20 -44l-81 -180l-35 21l105 159l-217 499h34l198 -455h3q155 351 190 456z" />
    <glyph glyph-name="Ydieresis" unicode="&#x178;" horiz-adv-x="559" 
d="M187 782q-15 0 -25.5 10.5t-10.5 25.5t10.5 25.5t25.5 10.5t25.5 -10.5t10.5 -25.5t-10.5 -25.5t-25.5 -10.5zM372 782q-15 0 -25.5 10.5t-10.5 25.5t10.5 25.5t25.5 10.5t25.5 -10.5t10.5 -25.5t-10.5 -25.5t-25.5 -10.5zM260 0v302l-224 377h36l211 -357h3
q165 258 215 357h36q-214 -323 -241 -364v-315h-36z" />
    <glyph glyph-name="Zacute" unicode="&#x179;" horiz-adv-x="549" 
d="M414 938l-151 -167h-14l120 171h45v-4zM201 14q225 0 315 16v-30h-472v14l422 651h-120q-225 0 -315 -16v30h476v-14l-423 -651h117z" />
    <glyph glyph-name="zacute" unicode="&#x17a;" horiz-adv-x="423" 
d="M351 748l-151 -167h-14l120 171h45v-4zM196 14q138 0 201 16v-30h-363v14l309 472h-96q-138 0 -201 -16v30h332v-14l-309 -472h127z" />
    <glyph glyph-name="Zdotaccent" unicode="&#x17b;" horiz-adv-x="549" 
d="M275 795q-15 0 -25.5 10.5t-10.5 25.5t10.5 25.5t25.5 10.5t25.5 -10.5t10.5 -25.5t-10.5 -25.5t-25.5 -10.5zM201 14q225 0 315 16v-30h-472v14l422 651h-120q-225 0 -315 -16v30h476v-14l-423 -651h117z" />
    <glyph glyph-name="zdotaccent" unicode="&#x17c;" horiz-adv-x="423" 
d="M212 612q-15 0 -25.5 10.5t-10.5 25.5t10.5 25.5t25.5 10.5t25.5 -10.5t10.5 -25.5t-10.5 -25.5t-25.5 -10.5zM196 14q138 0 201 16v-30h-363v14l309 472h-96q-138 0 -201 -16v30h332v-14l-309 -472h127z" />
    <glyph glyph-name="Zcaron" unicode="&#x17d;" horiz-adv-x="549" 
d="M295 773h-38l-151 168h16l154 -145l154 145h16zM201 14q225 0 315 16v-30h-472v14l422 651h-120q-225 0 -315 -16v30h476v-14l-423 -651h117z" />
    <glyph glyph-name="zcaron" unicode="&#x17e;" horiz-adv-x="423" 
d="M232 580h-38l-151 168h16l154 -145l154 145h16zM196 14q138 0 201 16v-30h-363v14l309 472h-96q-138 0 -201 -16v30h332v-14l-309 -472h127z" />
    <glyph glyph-name="uni01EA" unicode="&#x1ea;" horiz-adv-x="792" 
d="M444 -12q-87 -63 -87 -139q0 -41 33 -41q16 0 31 13t23 34l10 -5q-22 -56 -69 -56q-31 0 -47.5 16t-16.5 43q0 82 110 133q-12 -1 -35 -1q-152 0 -244 100t-92 255q0 154 92 254t244 100t244 -100.5t92 -253.5q0 -142 -77.5 -239t-210.5 -113zM98 340q0 -145 80.5 -243
t217.5 -98t217.5 98t80.5 243q0 144 -81 242t-217 98q-137 0 -217.5 -99t-80.5 -241z" />
    <glyph glyph-name="uni01EB" unicode="&#x1eb;" horiz-adv-x="626" 
d="M371 -9q-78 -62 -78 -132q0 -41 33 -41q16 0 31 13t23 34l10 -5q-22 -56 -69 -56q-31 0 -47.5 16t-16.5 43q0 74 92 124q-24 -2 -36 -2q-118 0 -188.5 75.5t-70.5 189.5t70.5 189t188.5 75q119 0 189 -75t70 -189q0 -94 -54 -167t-147 -92zM90 250q0 -109 61 -180
t162 -71t162 71t61 180t-61 179.5t-162 70.5t-162 -70.5t-61 -179.5z" />
    <glyph glyph-name="AEacute" unicode="&#x1fc;" horiz-adv-x="818" 
d="M663 922l-151 -167h-14l120 171h45v-4zM445 14q157 0 219.5 3t115.5 13v-30h-371v194h-272q-57 -101 -102 -194h-37l411 679h351v-30q-90 16 -315 16v-318q209 4 266 8v-30q-119 8 -266 8v-319zM145 208h264v443q-196 -323 -264 -443z" />
    <glyph glyph-name="aeacute" unicode="&#x1fd;" horiz-adv-x="911" 
d="M605 748l-151 -167h-14l120 171h45v-4zM442 255v-2q0 -113 60.5 -184t165.5 -71q44 0 80 10.5t51.5 19.5t39.5 27v-16q-68 -55 -171 -55q-129 0 -202 91q-38 42 -52 105q-27 -96 -89 -146t-144 -50q-64 0 -100.5 31.5t-36.5 85.5q0 46 24 80t59 52t87 29t95.5 14t97.5 3
l-1 46q0 90 -31.5 133t-114.5 43q-92 0 -178 -72v34q106 52 191 52q75 0 112.5 -33.5t48.5 -99.5q32 64 93 98.5t129 34.5q88 0 146.5 -62t58.5 -157q0 -19 -2 -41h-417zM656 501q-90 0 -150 -59.5t-64 -172.5h382q1 8 1 27q0 92 -45 148.5t-124 56.5zM193 3q157 0 217 200
q-4 21 -4 50v13q-152 -6 -213 -24q-112 -35 -113 -125q0 -114 113 -114z" />
    <glyph glyph-name="Oslashacute" unicode="&#x1fe;" horiz-adv-x="807" 
d="M540 937l-151 -167h-14l120 171h45v-4zM765 679l-104 -103q77 -95 77 -236q0 -155 -91 -255t-245 -100q-147 0 -239 94l-79 -79h-22l91 90q-87 98 -87 250q0 154 92 254t244 100q156 0 249 -106l92 91h22zM104 340q0 -136 70 -229l457 456q-84 113 -229 113
q-137 0 -217.5 -99t-80.5 -241zM700 340q0 123 -60 214l-457 -455q82 -100 219 -100t217.5 98t80.5 243z" />
    <glyph glyph-name="oslashacute" unicode="&#x1ff;" horiz-adv-x="638" 
d="M457 747l-151 -167h-14l120 171h45v-4zM578 500l-66 -66q66 -72 66 -184q0 -109 -71 -187t-188 -78q-112 0 -184 70l-55 -55h-21l66 66q-65 74 -65 184q0 114 70.5 189t188.5 75q112 0 183 -69l55 55h21zM96 250q0 -97 48 -164l340 340q-63 74 -165 74q-101 0 -162 -70.5
t-61 -179.5zM542 250q0 98 -49 164l-339 -340q61 -75 165 -75q101 0 162 71t61 180z" />
    <glyph glyph-name="uni0218" unicode="&#x218;" horiz-adv-x="519" 
d="M248 -15q-57 0 -113.5 14.5t-83.5 28.5v34q70 -63 199 -63q82 0 137.5 40t55.5 107q0 72 -38.5 108t-120.5 70l-66 28q-79 34 -116.5 73t-37.5 111q0 78 62 118t150 40q87 0 152 -36v-34q-58 56 -153 56q-76 0 -129 -32t-53 -103q0 -60 34 -95t109 -68l65 -27
q43 -18 67.5 -31t52.5 -35.5t40.5 -52.5t12.5 -71q0 -84 -65.5 -132t-160.5 -48zM207 -262q41 55 60 98q-6 -3 -16 -3q-15 0 -24.5 10.5t-9.5 25.5t10.5 25.5t25.5 10.5q16 0 26 -10t10 -27t-19 -60l-33 -70h-30z" />
    <glyph glyph-name="uni0219" unicode="&#x219;" horiz-adv-x="453" 
d="M239 -15q-104 0 -190 47v34q85 -67 186 -67q66 0 106.5 28t40.5 79q0 25 -11.5 46.5t-24 34t-40.5 26t-38.5 17.5t-41.5 14q-42 14 -61.5 22.5t-49 26t-42.5 42t-13 57.5q0 52 41 87t111 35q43 0 91.5 -11.5t71.5 -24.5v-34q-58 56 -160 56q-60 0 -93 -27t-33 -76
q0 -22 10.5 -40.5t20 -28.5t37.5 -23.5t36.5 -16.5t43.5 -15q29 -10 42 -15t38 -15.5t37.5 -21t27 -25t21 -33.5t6.5 -41q0 -57 -43 -97t-127 -40zM188 -262q41 55 60 98q-6 -3 -16 -3q-15 0 -24.5 10.5t-9.5 25.5t10.5 25.5t25.5 10.5q16 0 26 -10t10 -27t-19 -60l-33 -70
h-30z" />
    <glyph glyph-name="uni021A" unicode="&#x21a;" horiz-adv-x="572" 
d="M12 679h548v-30q-77 13 -255 16v-665h-36v665q-179 -1 -257 -16v30zM281 -80q16 0 26 -10t10 -27t-19 -60l-33 -70h-30q41 55 60 98q-6 -3 -16 -3q-15 0 -24.5 10.5t-9.5 25.5t10.5 25.5t25.5 10.5z" />
    <glyph glyph-name="uni021B" unicode="&#x21b;" horiz-adv-x="310" 
d="M138 0v486h-127v14h127l18 132h16v-132h127v-14h-127v-486h-34zM104 -244q41 55 60 98q-6 -3 -16 -3q-15 0 -24.5 10.5t-9.5 25.5t10.5 25.5t25.5 10.5q16 0 26 -10t10 -27t-19 -60l-33 -70h-30z" />
    <glyph glyph-name="uni0237" unicode="&#x237;" horiz-adv-x="220" 
d="M-26 -180q-50 0 -91 18v36q47 -40 89 -40q124 0 124 177l-4 489h34v-485q0 -195 -152 -195z" />
    <glyph glyph-name="circumflex" unicode="&#x2c6;" horiz-adv-x="424" 
d="M35 585l151 168h38l151 -168h-16l-154 145l-154 -145h-16z" />
    <glyph glyph-name="caron" unicode="&#x2c7;" horiz-adv-x="424" 
d="M193 585l-151 168h16l154 -145l154 145h16l-151 -168h-38z" />
    <glyph glyph-name="breve" unicode="&#x2d8;" horiz-adv-x="407" 
d="M204 555q-56 0 -89 38t-33 103h14q0 -55 30 -83t78 -28t78 28t30 83h14q0 -64 -33.5 -102.5t-88.5 -38.5z" />
    <glyph glyph-name="dotaccent" unicode="&#x2d9;" horiz-adv-x="197" 
d="M98 574q-15 0 -25.5 10.5t-10.5 25.5t10.5 25.5t25.5 10.5t25.5 -10.5t10.5 -25.5t-10.5 -25.5t-25.5 -10.5z" />
    <glyph glyph-name="ring" unicode="&#x2da;" horiz-adv-x="279" 
d="M140 542q-42 0 -70.5 28.5t-28.5 70.5q0 41 28.5 69.5t70.5 28.5t70 -28.5t28 -69.5q0 -42 -28 -70.5t-70 -28.5zM140 558q35 0 57.5 23.5t22.5 59.5q0 35 -22.5 58.5t-57.5 23.5q-36 0 -58.5 -23t-22.5 -59t22.5 -59.5t58.5 -23.5z" />
    <glyph glyph-name="ogonek" unicode="&#x2db;" horiz-adv-x="239" 
d="M95 -185q-31 0 -47.5 16t-16.5 43q0 82 115 136h10q-89 -63 -89 -140q0 -41 33 -41q16 0 31 13t23 34l10 -5q-22 -56 -69 -56z" />
    <glyph glyph-name="tilde" unicode="&#x2dc;" horiz-adv-x="462" 
d="M296 589q-41 0 -98 41.5t-85 41.5q-53 0 -53 -80h-14q0 106 79 106q29 0 87.5 -42t97.5 -42q53 0 53 83h14q0 -55 -18.5 -81.5t-62.5 -26.5z" />
    <glyph glyph-name="hungarumlaut" unicode="&#x2dd;" horiz-adv-x="417" 
d="M79 581l90 171h45v-4l-121 -167h-14zM233 581l90 171h45v-4l-121 -167h-14z" />
    <glyph glyph-name="gravecomb" unicode="&#x300;" 
d="M-97 586l-151 166v5h45l120 -171h-14z" />
    <glyph glyph-name="acutecomb" unicode="&#x301;" 
d="M-218 586l120 171h45v-4l-151 -167h-14z" />
    <glyph glyph-name="uni0302" unicode="&#x302;" 
d="M-385 585l151 168h38l151 -168h-16l-154 145l-154 -145h-16z" />
    <glyph glyph-name="tildecomb" unicode="&#x303;" 
d="M-135 589q-41 0 -98 41.5t-85 41.5q-53 0 -53 -80h-14q0 106 79 106q29 0 87.5 -42t97.5 -42q53 0 53 83h14q0 -55 -18.5 -81.5t-62.5 -26.5z" />
    <glyph glyph-name="uni0304" unicode="&#x304;" 
d="M-323 639v16h284v-16h-284z" />
    <glyph glyph-name="uni0306" unicode="&#x306;" 
d="M-203 555q-56 0 -89 38t-33 103h14q0 -55 30 -83t78 -28t78 28t30 83h14q0 -64 -33.5 -102.5t-88.5 -38.5z" />
    <glyph glyph-name="uni0307" unicode="&#x307;" 
d="M-99 574q-15 0 -25.5 10.5t-10.5 25.5t10.5 25.5t25.5 10.5t25.5 -10.5t10.5 -25.5t-10.5 -25.5t-25.5 -10.5z" />
    <glyph glyph-name="uni0308" unicode="&#x308;" 
d="M-287 579q-15 0 -25.5 10.5t-10.5 25.5t10.5 25.5t25.5 10.5t25.5 -10.5t10.5 -25.5t-10.5 -25.5t-25.5 -10.5zM-102 579q-15 0 -25.5 10.5t-10.5 25.5t10.5 25.5t25.5 10.5t25.5 -10.5t10.5 -25.5t-10.5 -25.5t-25.5 -10.5z" />
    <glyph glyph-name="uni030A" unicode="&#x30a;" 
d="M-139 542q-42 0 -70.5 28.5t-28.5 70.5q0 41 28.5 69.5t70.5 28.5t70 -28.5t28 -69.5q0 -42 -28 -70.5t-70 -28.5zM-139 558q35 0 57.5 23.5t22.5 59.5q0 35 -22.5 58.5t-57.5 23.5q-36 0 -58.5 -23t-22.5 -59t22.5 -59.5t58.5 -23.5z" />
    <glyph glyph-name="uni030B" unicode="&#x30b;" 
d="M-338 581l90 171h45v-4l-121 -167h-14zM-184 581l90 171h45v-4l-121 -167h-14z" />
    <glyph glyph-name="uni030C" unicode="&#x30c;" 
d="M-231 585l-151 168h16l154 -145l154 145h16l-151 -168h-38z" />
    <glyph glyph-name="uni0326" unicode="&#x326;" 
d="M-152 -116q41 55 60 98q-6 -3 -16 -3q-15 0 -24.5 10.5t-9.5 25.5t10.5 25.5t25.5 10.5q16 0 26 -10t10 -27t-19 -60l-33 -70h-30z" />
    <glyph glyph-name="uni0327" unicode="&#x327;" 
d="M-148 -165q-52 0 -90 29v30q24 -25 43 -36t47 -11q33 0 50 17t17 46q0 33 -23 49t-68 25l36 62h14l-29 -49q104 -20 104 -84q0 -34 -28.5 -56t-72.5 -22z" />
    <glyph glyph-name="uni0328" unicode="&#x328;" 
d="M-151 -185q-31 0 -47.5 16t-16.5 43q0 82 115 136h10q-89 -63 -89 -140q0 -41 33 -41q16 0 31 13t23 34l10 -5q-22 -56 -69 -56z" />
    <glyph glyph-name="uni0335" unicode="&#x335;" 
d="M-325 264v14h269v-14h-269z" />
    <glyph glyph-name="uni0336" unicode="&#x336;" 
d="M-705 264v14h669v-14h-669z" />
    <glyph glyph-name="uni0337" unicode="&#x337;" 
d="M-430 141l388 270h22l-388 -270h-22z" />
    <glyph glyph-name="uni0338" unicode="&#x338;" 
d="M-562 0l498 500h21l-498 -500h-21z" />
    <glyph glyph-name="Wgrave" unicode="&#x1e80;" horiz-adv-x="997" 
d="M546 752h-14l-151 166v5h45zM936 679h36q-36 -103 -108.5 -318.5t-109.5 -317.5l-21 -63h-11l-229 658l-211 -658h-11l-251 699h36l227 -635h3l210 655h11l228 -657h3q179 519 198 637z" />
    <glyph glyph-name="wgrave" unicode="&#x1e81;" horiz-adv-x="800" 
d="M439 571h-14l-151 166v5h45zM746 500h30q-23 -60 -76.5 -204.5t-102.5 -268.5l-18 -48h-11l-167 489l-175 -488h-11l-187 520h34l166 -461h3l173 481h11l166 -492h3q132 351 162 472z" />
    <glyph glyph-name="Wacute" unicode="&#x1e82;" horiz-adv-x="997" 
d="M637 922l-151 -167h-14l120 171h45v-4zM936 679h36q-36 -103 -108.5 -318.5t-109.5 -317.5l-21 -63h-11l-229 658l-211 -658h-11l-251 699h36l227 -635h3l210 655h11l228 -657h3q179 519 198 637z" />
    <glyph glyph-name="wacute" unicode="&#x1e83;" horiz-adv-x="800" 
d="M543 748l-151 -167h-14l120 171h45v-4zM746 500h30q-23 -60 -76.5 -204.5t-102.5 -268.5l-18 -48h-11l-167 489l-175 -488h-11l-187 520h34l166 -461h3l173 481h11l166 -492h3q132 351 162 472z" />
    <glyph glyph-name="Wdieresis" unicode="&#x1e84;" horiz-adv-x="997" 
d="M407 782q-15 0 -25.5 10.5t-10.5 25.5t10.5 25.5t25.5 10.5t25.5 -10.5t10.5 -25.5t-10.5 -25.5t-25.5 -10.5zM592 782q-15 0 -25.5 10.5t-10.5 25.5t10.5 25.5t25.5 10.5t25.5 -10.5t10.5 -25.5t-10.5 -25.5t-25.5 -10.5zM936 679h36q-36 -103 -108.5 -318.5
t-109.5 -317.5l-21 -63h-11l-229 658l-211 -658h-11l-251 699h36l227 -635h3l210 655h11l228 -657h3q179 519 198 637z" />
    <glyph glyph-name="wdieresis" unicode="&#x1e85;" horiz-adv-x="800" 
d="M312 614q-15 0 -25.5 10.5t-10.5 25.5t10.5 25.5t25.5 10.5t25.5 -10.5t10.5 -25.5t-10.5 -25.5t-25.5 -10.5zM497 614q-15 0 -25.5 10.5t-10.5 25.5t10.5 25.5t25.5 10.5t25.5 -10.5t10.5 -25.5t-10.5 -25.5t-25.5 -10.5zM746 500h30q-23 -60 -76.5 -204.5
t-102.5 -268.5l-18 -48h-11l-167 489l-175 -488h-11l-187 520h34l166 -461h3l173 481h11l166 -492h3q132 351 162 472z" />
    <glyph glyph-name="uni1E9E" unicode="&#x1e9e;" horiz-adv-x="657" 
d="M372 457q0 -38 25 -69.5t60 -56t70.5 -50.5t60.5 -64.5t25 -85.5q0 -74 -53.5 -110t-129.5 -36q-108 0 -155 27v39q64 -52 158 -52q63 0 102.5 32t39.5 96q0 44 -24.5 78.5t-59.5 58.5t-70.5 47.5t-60 58t-24.5 78.5q0 64 57 108.5t166 79.5q-82 38 -186 38
q-114 0 -176 -64.5t-62 -169.5v-440h-36v434q0 255 276 255q110 0 201 -44v-17q-110 -44 -143 -66q-60 -42 -61 -105z" />
    <glyph glyph-name="Ygrave" unicode="&#x1ef2;" horiz-adv-x="559" 
d="M312 752l-151 166v5h45l120 -171h-14zM260 0v302l-224 377h36l211 -357h3q165 258 215 357h36q-214 -323 -241 -364v-315h-36z" />
    <glyph glyph-name="ygrave" unicode="&#x1ef3;" horiz-adv-x="504" 
d="M300 571h-14l-151 166v5h45zM451 500h30l-207 -456l-20 -44l-81 -180l-35 21l105 159l-217 499h34l198 -455h3q155 351 190 456z" />
    <glyph glyph-name="uni1EF8" unicode="&#x1ef8;" horiz-adv-x="559" 
d="M363 758q-41 0 -98 41.5t-85 41.5q-53 0 -53 -80h-14q0 106 79 106q29 0 87.5 -42t97.5 -42q53 0 53 83h14q0 -55 -18.5 -81.5t-62.5 -26.5zM260 0v302l-224 377h36l211 -357h3q165 258 215 357h36q-214 -323 -241 -364v-315h-36z" />
    <glyph glyph-name="uni1EF9" unicode="&#x1ef9;" horiz-adv-x="504" 
d="M167 677q-53 0 -53 -80h-14q0 106 79 106q29 0 87.5 -42t97.5 -42q53 0 53 83h14q0 -55 -18.5 -81.5t-62.5 -26.5q-41 0 -98 41.5t-85 41.5zM451 500h30l-207 -456l-20 -44l-81 -180l-35 21l105 159l-217 499h34l198 -455h3q155 351 190 456z" />
    <glyph glyph-name="endash" unicode="&#x2013;" horiz-adv-x="610" 
d="M47 251v14h516v-14h-516z" />
    <glyph glyph-name="emdash" unicode="&#x2014;" horiz-adv-x="770" 
d="M47 251v14h676v-14h-676z" />
    <glyph glyph-name="quoteleft" unicode="&#x2018;" horiz-adv-x="198" 
d="M149 720q-36 -52 -72 -136q6 3 16 3q15 0 24.5 -10.5t9.5 -25.5t-10.5 -25.5t-25.5 -10.5q-16 0 -26 10t-10 27t19 60l50 108h25z" />
    <glyph glyph-name="quoteright" unicode="&#x2019;" horiz-adv-x="194" 
d="M55 530q36 52 72 136q-6 -3 -16 -3q-15 0 -24.5 10.5t-9.5 25.5t10.5 25.5t25.5 10.5q16 0 26 -10t10 -27t-19 -60l-50 -108h-25z" />
    <glyph glyph-name="quotesinglbase" unicode="&#x201a;" horiz-adv-x="183" 
d="M34 -146q36 52 72 136q-6 -3 -16 -3q-15 0 -24.5 10.5t-9.5 25.5t10.5 25.5t25.5 10.5q16 0 26 -10t10 -27t-19 -60l-50 -108h-25z" />
    <glyph glyph-name="quotedblleft" unicode="&#x201c;" horiz-adv-x="351" 
d="M149 720q-36 -52 -72 -136q6 3 16 3q15 0 24.5 -10.5t9.5 -25.5t-10.5 -25.5t-25.5 -10.5q-16 0 -26 10t-10 27t19 60l50 108h25zM302 720q-36 -52 -72 -136q6 3 16 3q15 0 24.5 -10.5t9.5 -25.5t-10.5 -25.5t-25.5 -10.5q-16 0 -26 10t-10 27t19 60l50 108h25z" />
    <glyph glyph-name="quotedblright" unicode="&#x201d;" horiz-adv-x="347" 
d="M55 530q36 52 72 136q-6 -3 -16 -3q-15 0 -24.5 10.5t-9.5 25.5t10.5 25.5t25.5 10.5q16 0 26 -10t10 -27t-19 -60l-50 -108h-25zM208 530q36 52 72 136q-6 -3 -16 -3q-15 0 -24.5 10.5t-9.5 25.5t10.5 25.5t25.5 10.5q16 0 26 -10t10 -27t-19 -60l-50 -108h-25z" />
    <glyph glyph-name="quotedblbase" unicode="&#x201e;" horiz-adv-x="336" 
d="M34 -146q36 52 72 136q-6 -3 -16 -3q-15 0 -24.5 10.5t-9.5 25.5t10.5 25.5t25.5 10.5q16 0 26 -10t10 -27t-19 -60l-50 -108h-25zM187 -146q36 52 72 136q-6 -3 -16 -3q-15 0 -24.5 10.5t-9.5 25.5t10.5 25.5t25.5 10.5q16 0 26 -10t10 -27t-19 -60l-50 -108h-25z" />
    <glyph glyph-name="dagger" unicode="&#x2020;" horiz-adv-x="511" 
d="M484 517v-14h-233v-608h-16v608h-208v14h208v250h16v-250h233z" />
    <glyph glyph-name="daggerdbl" unicode="&#x2021;" horiz-adv-x="545" 
d="M501 503h-233v-344h233v-14h-233v-250h-16v250h-208v14h208v344h-208v14h208v250h16v-250h233v-14z" />
    <glyph glyph-name="bullet" unicode="&#x2022;" horiz-adv-x="351" 
d="M176 279q-34 0 -57 23t-23 57q0 33 23 56t57 23q33 0 56 -23t23 -56q0 -34 -23 -57t-56 -23z" />
    <glyph glyph-name="ellipsis" unicode="&#x2026;" horiz-adv-x="599" 
d="M102 -15q-15 0 -25.5 10.5t-10.5 25.5t10.5 25.5t25.5 10.5t25.5 -10.5t10.5 -25.5t-10.5 -25.5t-25.5 -10.5zM299 -15q-15 0 -25.5 10.5t-10.5 25.5t10.5 25.5t25.5 10.5t25.5 -10.5t10.5 -25.5t-10.5 -25.5t-25.5 -10.5zM497 -15q-15 0 -25.5 10.5t-10.5 25.5
t10.5 25.5t25.5 10.5t25.5 -10.5t10.5 -25.5t-10.5 -25.5t-25.5 -10.5z" />
    <glyph glyph-name="perthousand" unicode="&#x2030;" horiz-adv-x="1184" 
d="M190 325q-64 0 -109.5 46t-45.5 118t45 119t110 47t110 -47t45 -119t-45.5 -118t-109.5 -46zM243 0l321 655h15l-320 -655h-16zM190 338q55 0 89 42t34 109q0 71 -34 112t-89 41t-89 -41t-34 -112q0 -67 34 -109t89 -42zM624 -15q-64 0 -109.5 46t-45.5 118t45 119
t110 47t110 -47t45 -119t-45.5 -118t-109.5 -46zM995 -15q-64 0 -109.5 46t-45.5 118t45 119t110 47t110 -47t45 -119t-45.5 -118t-109.5 -46zM624 -2q55 0 89 42t34 109q0 71 -34 112t-89 41t-89 -41t-34 -112q0 -67 34 -109t89 -42zM995 -2q55 0 89 42t34 109
q0 71 -34 112t-89 41t-89 -41t-34 -112q0 -67 34 -109t89 -42z" />
    <glyph glyph-name="guilsinglleft" unicode="&#x2039;" horiz-adv-x="357" 
d="M300 25l-244 211v17l244 210v-13l-203 -205l203 -207v-13z" />
    <glyph glyph-name="guilsinglright" unicode="&#x203a;" horiz-adv-x="357" 
d="M57 25v13l203 207l-203 205v13l244 -210v-17z" />
    <glyph glyph-name="fraction" unicode="&#x2044;" horiz-adv-x="346" 
d="M3 0l321 655h15l-320 -655h-16z" />
    <glyph glyph-name="Euro" unicode="&#x20ac;" horiz-adv-x="657" 
d="M449 641q-107 0 -177.5 -68t-88.5 -181h267v-13h-269q-4 -27 -4 -61q0 -18 2 -50h271v-13h-269q15 -119 84.5 -187.5t179.5 -68.5q103 0 154 51v-32q-20 -13 -63.5 -23t-90.5 -10q-125 0 -205.5 69t-96.5 201h-90v13h88q-2 32 -2 50q0 36 4 61h-90v13h92
q19 124 100.5 193.5t203.5 69.5q99 0 153 -34v-33q-53 53 -153 53z" />
    <glyph glyph-name="trademark" unicode="&#x2122;" horiz-adv-x="874" 
d="M775 693h8v-386h-34v312h-1l-154 -273h-6l-151 267h-2v-148q0 -38 6 -158h-25q6 120 6 158v228h8l172 -303h2zM30 679h326v-28q-79 14 -135 14h-11v-358h-34v358h-11q-56 0 -135 -14v28z" />
    <glyph glyph-name="minus" unicode="&#x2212;" horiz-adv-x="540" 
d="M35 327v14h470v-14h-470z" />
    <glyph glyph-name="approxequal" unicode="&#x2248;" horiz-adv-x="540" 
d="M41 361q0 59 35 88t82 29q44 0 119 -43t120 -43t67 29t22 73h16q0 -50 -27 -83t-78 -33q-48 0 -123 43t-118 43q-41 0 -70 -24.5t-29 -78.5h-16zM41 171q0 59 35 88t82 29q44 0 119 -43t120 -43t67 29t22 73h16q0 -50 -27 -83t-78 -33q-48 0 -123 43t-118 43
q-41 0 -70 -24.5t-29 -78.5h-16z" />
    <glyph glyph-name="notequal" unicode="&#x2260;" horiz-adv-x="540" 
d="M503 412h-214l-45 -155h259v-14h-263l-41 -144h-16l41 144h-187v14h191l45 155h-236v14h240l41 143h16l-41 -143h210v-14z" />
    <glyph glyph-name="uniF8FF" unicode="&#xf8ff;" horiz-adv-x="2307" 
d="M561 199q-46 0 -66.5 19.5t-20.5 63.5v228h99q0 -30 -19.5 -59.5t-47.5 -42.5l1 -4q28 17 58 17h51v-79h-42v-48q0 -17 18 -17q14 0 24 7v-75q-17 -10 -55 -10zM636 204v306h98q0 -33 -23 -59.5t-56 -34.5l2 -3q41 8 70 8h8v-217h-99zM1371 199q-46 0 -67 19.5t-21 63.5
v228h99q0 -30 -19 -59.5t-48 -42.5l2 -4q28 17 58 17h50v-79h-42v-48q0 -17 18 -17q13 0 24 7v-75q-17 -10 -54 -10zM100 204v305h99v-305h-99zM285 199q-32 0 -51 17t-19 44q0 29 20 47.5t54 18.5q45 0 66 -21h2v35q0 25 -23 25t-23 -29l-90 14q18 78 122 78q54 0 84 -24
t30 -66v-134h-98v22h-3q-19 -27 -71 -27zM756 204v217h97v-65h3q8 70 71 70q34 0 53.5 -22.5t19.5 -65.5v-134h-100v129q0 27 -19 27q-11 0 -15.5 -6.5t-10.5 -25.5v-124h-99zM1141 199q-60 0 -93 31t-33 82t33.5 82.5t92.5 31.5t92.5 -31.5t33.5 -82.5q0 -50 -33 -81.5
t-93 -31.5zM1691 132v289h99v-65h3q11 70 73 70q83 0 83 -114q0 -56 -25 -84.5t-61 -28.5q-52 0 -69 43h-3v-110h-100zM2087 199q-59 0 -91.5 31t-32.5 82q0 50 34.5 82t92.5 32q52 0 84.5 -31.5t32.5 -77.5v-9h-150q0 -19 9 -32.5t25 -13.5q26 0 30 34l82 -8
q-8 -46 -40 -67.5t-76 -21.5zM1472 128v66h65q57 0 67 12l-1 3h-68q-40 0 -52 39l-54 173h100q3 -16 10 -53t11.5 -66.5t6.5 -53.5h2q6 57 30 173h99l-71 -207q-31 -86 -106 -86h-39zM2057 320h6q55 0 55 24q0 22 -24 22q-17 0 -27 -12.5t-10 -33.5zM1825 247q30 0 30 57
q0 61 -27 61q-22 0 -30 -33v-72q10 -13 27 -13zM1141 261q29 0 29 51q0 52 -29 52q-28 0 -28 -52q0 -51 28 -51zM335 229q15 0 22 11v51q-5 8 -19 8q-27 0 -27 -35t24 -35z" />
    <glyph glyph-name="uni00A40301" horiz-adv-x="403" 
d="M259 772l120 171h45v-4l-151 -167h-14zM138 -15q-73 0 -121 21v36q17 -15 29.5 -22.5t35.5 -14t54 -6.5q130 0 130 177v503h36v-499q0 -91 -40 -143t-124 -52z" />
    <glyph glyph-name="i.loclTRK" horiz-adv-x="222" 
d="M110 613q-15 0 -25.5 10.5t-10.5 25.5t10.5 25.5t25.5 10.5t25.5 -10.5t10.5 -25.5t-10.5 -25.5t-25.5 -10.5zM94 0v500h34v-500h-34z" />
    <glyph glyph-name="uni006A0301" horiz-adv-x="220" 
d="M83 581l120 171h45v-4l-151 -167h-14zM-26 -180q-50 0 -91 18v36q47 -40 89 -40q124 0 124 177l-4 489h34v-485q0 -195 -152 -195z" />
    <glyph glyph-name="a.ss01" horiz-adv-x="615" 
d="M505 520h16v-540h-13l-24 174q-7 -24 -21.5 -50t-38.5 -54.5t-62.5 -46.5t-83.5 -18q-102 0 -162 71t-60 184q0 120 61.5 197t162.5 77q66 0 120.5 -39.5t83.5 -104.5zM281 3q146 0 203 179v160q-61 154 -203 154q-89 0 -139 -69.5t-50 -178.5q0 -108 50 -176.5
t139 -68.5z" />
    <glyph glyph-name="aacute.ss01" horiz-adv-x="615" 
d="M438 747l-151 -167h-14l120 171h45v-4zM505 520h16v-540h-13l-24 174q-7 -24 -21.5 -50t-38.5 -54.5t-62.5 -46.5t-83.5 -18q-102 0 -162 71t-60 184q0 120 61.5 197t162.5 77q66 0 120.5 -39.5t83.5 -104.5zM281 3q146 0 203 179v160q-61 154 -203 154q-89 0 -139 -69.5
t-50 -178.5q0 -108 50 -176.5t139 -68.5z" />
    <glyph glyph-name="abreve.ss01" horiz-adv-x="615" 
d="M300 591q-56 0 -89 38t-33 103h14q0 -55 30 -83t78 -28t78 28t30 83h14q0 -64 -33.5 -102.5t-88.5 -38.5zM505 520h16v-540h-13l-24 174q-7 -24 -21.5 -50t-38.5 -54.5t-62.5 -46.5t-83.5 -18q-102 0 -162 71t-60 184q0 120 61.5 197t162.5 77q66 0 120.5 -39.5
t83.5 -104.5zM281 3q146 0 203 179v160q-61 154 -203 154q-89 0 -139 -69.5t-50 -178.5q0 -108 50 -176.5t139 -68.5z" />
    <glyph glyph-name="acircumflex.ss01" horiz-adv-x="615" 
d="M300 717l-154 -145h-16l151 168h38l151 -168h-16zM505 520h16v-540h-13l-24 174q-7 -24 -21.5 -50t-38.5 -54.5t-62.5 -46.5t-83.5 -18q-102 0 -162 71t-60 184q0 120 61.5 197t162.5 77q66 0 120.5 -39.5t83.5 -104.5zM281 3q146 0 203 179v160q-61 154 -203 154
q-89 0 -139 -69.5t-50 -178.5q0 -108 50 -176.5t139 -68.5z" />
    <glyph glyph-name="adieresis.ss01" horiz-adv-x="615" 
d="M207 613q-15 0 -25.5 10.5t-10.5 25.5t10.5 25.5t25.5 10.5t25.5 -10.5t10.5 -25.5t-10.5 -25.5t-25.5 -10.5zM392 613q-15 0 -25.5 10.5t-10.5 25.5t10.5 25.5t25.5 10.5t25.5 -10.5t10.5 -25.5t-10.5 -25.5t-25.5 -10.5zM505 520h16v-540h-13l-24 174q-7 -24 -21.5 -50
t-38.5 -54.5t-62.5 -46.5t-83.5 -18q-102 0 -162 71t-60 184q0 120 61.5 197t162.5 77q66 0 120.5 -39.5t83.5 -104.5zM281 3q146 0 203 179v160q-61 154 -203 154q-89 0 -139 -69.5t-50 -178.5q0 -108 50 -176.5t139 -68.5z" />
    <glyph glyph-name="agrave.ss01" horiz-adv-x="615" 
d="M334 570h-14l-151 166v5h45zM505 520h16v-540h-13l-24 174q-7 -24 -21.5 -50t-38.5 -54.5t-62.5 -46.5t-83.5 -18q-102 0 -162 71t-60 184q0 120 61.5 197t162.5 77q66 0 120.5 -39.5t83.5 -104.5zM281 3q146 0 203 179v160q-61 154 -203 154q-89 0 -139 -69.5
t-50 -178.5q0 -108 50 -176.5t139 -68.5z" />
    <glyph glyph-name="amacron.ss01" horiz-adv-x="615" 
d="M442 639v-16h-284v16h284zM505 520h16v-540h-13l-24 174q-7 -24 -21.5 -50t-38.5 -54.5t-62.5 -46.5t-83.5 -18q-102 0 -162 71t-60 184q0 120 61.5 197t162.5 77q66 0 120.5 -39.5t83.5 -104.5zM281 3q146 0 203 179v160q-61 154 -203 154q-89 0 -139 -69.5t-50 -178.5
q0 -108 50 -176.5t139 -68.5z" />
    <glyph glyph-name="aogonek.ss01" horiz-adv-x="615" 
d="M518 -154l10 -5q-22 -56 -69 -56q-31 0 -47.5 16t-16.5 43q0 82 115 136h-2l-24 174q-7 -24 -21.5 -50t-38.5 -54.5t-62.5 -46.5t-83.5 -18q-102 0 -162 71t-60 184q0 120 61.5 197t162.5 77q66 0 120.5 -39.5t83.5 -104.5l21 150h16v-540h-1q-89 -63 -89 -140
q0 -41 33 -41q16 0 31 13t23 34zM281 3q146 0 203 179v160q-61 154 -203 154q-89 0 -139 -69.5t-50 -178.5q0 -108 50 -176.5t139 -68.5z" />
    <glyph glyph-name="aring.ss01" horiz-adv-x="615" 
d="M298 556q-42 0 -70.5 28.5t-28.5 70.5q0 41 28.5 69.5t70.5 28.5t70 -28.5t28 -69.5q0 -42 -28 -70.5t-70 -28.5zM298 737q-36 0 -58.5 -23t-22.5 -59t22.5 -59.5t58.5 -23.5q35 0 57.5 23.5t22.5 59.5q0 35 -22.5 58.5t-57.5 23.5zM505 520h16v-540h-13l-24 174
q-7 -24 -21.5 -50t-38.5 -54.5t-62.5 -46.5t-83.5 -18q-102 0 -162 71t-60 184q0 120 61.5 197t162.5 77q66 0 120.5 -39.5t83.5 -104.5zM281 3q146 0 203 179v160q-61 154 -203 154q-89 0 -139 -69.5t-50 -178.5q0 -108 50 -176.5t139 -68.5z" />
    <glyph glyph-name="atilde.ss01" horiz-adv-x="615" 
d="M201 676q-53 0 -53 -80h-14q0 106 79 106q29 0 87.5 -42t97.5 -42q53 0 53 83h14q0 -55 -18.5 -81.5t-62.5 -26.5q-41 0 -98 41.5t-85 41.5zM505 520h16v-540h-13l-24 174q-7 -24 -21.5 -50t-38.5 -54.5t-62.5 -46.5t-83.5 -18q-102 0 -162 71t-60 184q0 120 61.5 197
t162.5 77q66 0 120.5 -39.5t83.5 -104.5zM281 3q146 0 203 179v160q-61 154 -203 154q-89 0 -139 -69.5t-50 -178.5q0 -108 50 -176.5t139 -68.5z" />
    <glyph glyph-name="g.ss01" horiz-adv-x="614" 
d="M507 520h16v-449q0 -123 -58.5 -187t-172.5 -64q-59 0 -97 10.5t-83 33.5v36q70 -66 172 -66q108 0 155 55.5t47 181.5v82q-8 -24 -22.5 -50t-38.5 -54t-62 -46t-83 -18q-102 0 -162 71t-60 184q0 120 61.5 197t162.5 77q66 0 120.5 -39.5t83.5 -104.5zM283 3
q146 0 203 179v160q-61 154 -203 154q-89 0 -139 -69.5t-50 -178.5q0 -108 50 -176.5t139 -68.5z" />
    <glyph glyph-name="gbreve.ss01" horiz-adv-x="614" 
d="M302 591q-56 0 -89 38t-33 103h14q0 -55 30 -83t78 -28t78 28t30 83h14q0 -64 -33.5 -102.5t-88.5 -38.5zM507 520h16v-449q0 -123 -58.5 -187t-172.5 -64q-59 0 -97 10.5t-83 33.5v36q70 -66 172 -66q108 0 155 55.5t47 181.5v82q-8 -24 -22.5 -50t-38.5 -54t-62 -46
t-83 -18q-102 0 -162 71t-60 184q0 120 61.5 197t162.5 77q66 0 120.5 -39.5t83.5 -104.5zM283 3q146 0 203 179v160q-61 154 -203 154q-89 0 -139 -69.5t-50 -178.5q0 -108 50 -176.5t139 -68.5z" />
    <glyph glyph-name="uni0123.ss01" horiz-adv-x="614" 
d="M307 594q-16 0 -26 10t-10 27t19 60l33 70h30q-41 -55 -60 -98q6 3 16 3q15 0 24.5 -10.5t9.5 -25.5t-10.5 -25.5t-25.5 -10.5zM507 520h16v-449q0 -123 -58.5 -187t-172.5 -64q-59 0 -97 10.5t-83 33.5v36q70 -66 172 -66q108 0 155 55.5t47 181.5v82q-8 -24 -22.5 -50
t-38.5 -54t-62 -46t-83 -18q-102 0 -162 71t-60 184q0 120 61.5 197t162.5 77q66 0 120.5 -39.5t83.5 -104.5zM283 3q146 0 203 179v160q-61 154 -203 154q-89 0 -139 -69.5t-50 -178.5q0 -108 50 -176.5t139 -68.5z" />
    <glyph glyph-name="gdotaccent.ss01" horiz-adv-x="614" 
d="M301 611q-15 0 -25.5 10.5t-10.5 25.5t10.5 25.5t25.5 10.5t25.5 -10.5t10.5 -25.5t-10.5 -25.5t-25.5 -10.5zM507 520h16v-449q0 -123 -58.5 -187t-172.5 -64q-59 0 -97 10.5t-83 33.5v36q70 -66 172 -66q108 0 155 55.5t47 181.5v82q-8 -24 -22.5 -50t-38.5 -54
t-62 -46t-83 -18q-102 0 -162 71t-60 184q0 120 61.5 197t162.5 77q66 0 120.5 -39.5t83.5 -104.5zM283 3q146 0 203 179v160q-61 154 -203 154q-89 0 -139 -69.5t-50 -178.5q0 -108 50 -176.5t139 -68.5z" />
    <glyph glyph-name="uni030C.alt" 
d="M-140 590q29 41 54 98q-6 -3 -16 -3q-15 0 -24.5 10.5t-9.5 25.5t10.5 25.5t25.5 10.5q16 0 26 -10t10 -27t-19 -60l-33 -70h-24z" />
    <glyph glyph-name="caron.alt" horiz-adv-x="202" 
d="M62 590q29 41 54 98q-6 -3 -16 -3q-15 0 -24.5 10.5t-9.5 25.5t10.5 25.5t25.5 10.5q16 0 26 -10t10 -27t-19 -60l-33 -70h-24z" />
    <glyph glyph-name="uni0308.case" 
d="M-258 579q-15 0 -25.5 10.5t-10.5 25.5t10.5 25.5t25.5 10.5t25.5 -10.5t10.5 -25.5t-10.5 -25.5t-25.5 -10.5zM-73 579q-15 0 -25.5 10.5t-10.5 25.5t10.5 25.5t25.5 10.5t25.5 -10.5t10.5 -25.5t-10.5 -25.5t-25.5 -10.5z" />
    <glyph glyph-name="uni0307.case" 
d="M-99 574q-15 0 -25.5 10.5t-10.5 25.5t10.5 25.5t25.5 10.5t25.5 -10.5t10.5 -25.5t-10.5 -25.5t-25.5 -10.5z" />
    <glyph glyph-name="gravecomb.case" 
d="M-97 586l-151 166v5h45l120 -171h-14z" />
    <glyph glyph-name="acutecomb.case" 
d="M-218 586l120 171h45v-4l-151 -167h-14z" />
    <glyph glyph-name="uni030B.case" 
d="M-338 581l90 171h45v-4l-121 -167h-14zM-184 581l90 171h45v-4l-121 -167h-14z" />
    <glyph glyph-name="uni0302.case" 
d="M-378 585l151 168h38l151 -168h-16l-154 145l-154 -145h-16z" />
    <glyph glyph-name="uni030C.case" 
d="M-231 585l-151 168h16l154 -145l154 145h16l-151 -168h-38z" />
    <glyph glyph-name="uni0306.case" 
d="M-203 555q-56 0 -89 38t-33 103h14q0 -55 30 -83t78 -28t78 28t30 83h14q0 -64 -33.5 -102.5t-88.5 -38.5z" />
    <glyph glyph-name="uni030A.case" 
d="M-139 542q-42 0 -70.5 28.5t-28.5 70.5q0 41 28.5 69.5t70.5 28.5t70 -28.5t28 -69.5q0 -42 -28 -70.5t-70 -28.5zM-139 558q35 0 57.5 23.5t22.5 59.5q0 35 -22.5 58.5t-57.5 23.5q-36 0 -58.5 -23t-22.5 -59t22.5 -59.5t58.5 -23.5z" />
    <glyph glyph-name="tildecomb.case" 
d="M-141 589q-41 0 -98 41.5t-85 41.5q-53 0 -53 -80h-14q0 106 79 106q29 0 87.5 -42t97.5 -42q53 0 53 83h14q0 -55 -18.5 -81.5t-62.5 -26.5z" />
    <glyph glyph-name="uni0304.case" 
d="M-323 639v16h284v-16h-284z" />
    <glyph glyph-name="uni0337.case" 
d="M-433 103l395 283h17l-395 -283h-17z" />
    <glyph glyph-name="uni0338.case" 
d="M-744 0l681 679h22l-681 -679h-22z" />
    <glyph glyph-name="dieresis.case" horiz-adv-x="385" 
d="M127 579q-15 0 -25.5 10.5t-10.5 25.5t10.5 25.5t25.5 10.5t25.5 -10.5t10.5 -25.5t-10.5 -25.5t-25.5 -10.5zM312 579q-15 0 -25.5 10.5t-10.5 25.5t10.5 25.5t25.5 10.5t25.5 -10.5t10.5 -25.5t-10.5 -25.5t-25.5 -10.5z" />
    <glyph glyph-name="dotaccent.case" horiz-adv-x="197" 
d="M98 574q-15 0 -25.5 10.5t-10.5 25.5t10.5 25.5t25.5 10.5t25.5 -10.5t10.5 -25.5t-10.5 -25.5t-25.5 -10.5z" />
    <glyph glyph-name="grave.case" horiz-adv-x="274" 
d="M177 586l-151 166v5h45l120 -171h-14z" />
    <glyph glyph-name="acute.case" horiz-adv-x="274" 
d="M76 586l120 171h45v-4l-151 -167h-14z" />
    <glyph glyph-name="hungarumlaut.case" horiz-adv-x="417" 
d="M79 581l90 171h45v-4l-121 -167h-14zM233 581l90 171h45v-4l-121 -167h-14z" />
    <glyph glyph-name="circumflex.case" horiz-adv-x="424" 
d="M46 585l151 168h38l151 -168h-16l-154 145l-154 -145h-16z" />
    <glyph glyph-name="caron.case" horiz-adv-x="424" 
d="M193 585l-151 168h16l154 -145l154 145h16l-151 -168h-38z" />
    <glyph glyph-name="breve.case" horiz-adv-x="407" 
d="M204 555q-56 0 -89 38t-33 103h14q0 -55 30 -83t78 -28t78 28t30 83h14q0 -64 -33.5 -102.5t-88.5 -38.5z" />
    <glyph glyph-name="ring.case" horiz-adv-x="279" 
d="M140 542q-42 0 -70.5 28.5t-28.5 70.5q0 41 28.5 69.5t70.5 28.5t70 -28.5t28 -69.5q0 -42 -28 -70.5t-70 -28.5zM140 558q35 0 57.5 23.5t22.5 59.5q0 35 -22.5 58.5t-57.5 23.5q-36 0 -58.5 -23t-22.5 -59t22.5 -59.5t58.5 -23.5z" />
    <glyph glyph-name="tilde.case" horiz-adv-x="462" 
d="M310 589q-41 0 -98 41.5t-85 41.5q-53 0 -53 -80h-14q0 106 79 106q29 0 87.5 -42t97.5 -42q53 0 53 83h14q0 -55 -18.5 -81.5t-62.5 -26.5z" />
    <glyph glyph-name="macron.case" horiz-adv-x="363" 
d="M40 639v16h284v-16h-284z" />
    <glyph glyph-name="IJacute" horiz-adv-x="664" 
d="M99 772l120 171h45v-4l-151 -167h-14zM508 772l120 171h45v-4l-151 -167h-14zM108 0v679h36v-679h-36zM399 -15q-73 0 -121 21v36q17 -15 29.5 -22.5t35.5 -14t54 -6.5q130 0 130 177v503h36v-499q0 -91 -40 -143t-124 -52z" />
    <glyph glyph-name="ijacute" horiz-adv-x="490" 
d="M84 582l120 171h45v-4l-151 -167h-14zM353 581l120 171h45v-4l-151 -167h-14zM94 0v500h34v-500h-34zM244 -180q-50 0 -91 18v36q47 -40 89 -40q124 0 124 177l-4 489h34v-485q0 -195 -152 -195z" />
    </font>
</defs>
</svg>
